<?xml version="1.0" encoding="UTF-8"?>
<!DOCTYPE svg PUBLIC "-//W3C//DTD SVG 1.1//EN" "http://www.w3.org/Graphics/SVG/1.1/DTD/svg11.dtd">
<!-- Creator: CorelDRAW 2019 (64-Bit) -->
<svg xmlns="http://www.w3.org/2000/svg" xml:space="preserve" width="3.3866mm" height="38.1mm" version="1.1" style="shape-rendering:geometricPrecision; text-rendering:geometricPrecision; image-rendering:optimizeQuality; fill-rule:evenodd; clip-rule:evenodd"
viewBox="0 0 338.66 3810"
 xmlns:xlink="http://www.w3.org/1999/xlink"
 xmlns:xodm="http://www.corel.com/coreldraw/odm/2003">
 <defs>
  <style type="text/css">
   <![CDATA[
    .fil0 {fill:#898989;fill-rule:nonzero}
   ]]>
  </style>
 </defs>
 <g id="Слой_x0020_1">
  <metadata id="CorelCorpID_0Corel-Layer"/>
  <g>
   <path class="fil0" d="M94.77 101.45l48.46 -12.32 18.75 78.86 17.82 85.14 16.88 91.01 15.9 96.5 14.91 101.58 13.88 106.24 12.84 110.51 11.75 114.35 10.64 117.8 9.5 120.81 8.33 123.43 7.13 125.62 5.9 127.4 4.63 128.77 3.33 129.71 2.01 130.25 0.65 130.36 -0.74 130.07 -2.16 129.35 -3.6 128.22 -5.1 126.69 -6.61 124.72 -8.16 122.36 -9.74 119.58 -11.36 116.37 -13 112.77 -14.68 108.75 -16.41 104.33 -18.16 99.51 -19.97 94.28 -21.81 88.65 -23.7 82.63 -47.76 -14.82 23.14 -80.65 21.39 -86.95 19.65 -92.8 17.92 -98.21 16.23 -103.19 14.54 -107.73 12.9 -111.85 11.28 -115.55 9.68 -118.8 8.1 -121.66 6.59 -124.06 5.06 -126.07 3.6 -127.64 2.14 -128.79 0.74 -129.53 -0.65 -129.84 -1.99 -129.73 -3.33 -129.19 -4.61 -128.25 -5.88 -126.88 -7.09 -125.1 -8.29 -122.89 -9.46 -120.25 -10.58 -117.2 -11.69 -113.71 -12.76 -109.83 -13.78 -105.5 -14.79 -100.76 -15.76 -95.56 -16.68 -89.97 -17.56 -83.92 -18.41 -77.42zm31.65 -62.11l-33.95 36.71 40.66 -10.34 -75.37 222.72 -47.36 -16.02 75.36 -222.73 40.66 -10.34zm0 0l-40.66 10.34 12.36 -36.51 28.3 26.17zm155.68 178.05l-16.98 18.35 -172.65 -159.69 33.95 -36.71 172.65 159.69 -16.97 18.36z"/>
  </g>
 </g>
</svg>
