<?xml version="1.0" encoding="UTF-8"?>
<!DOCTYPE svg PUBLIC "-//W3C//DTD SVG 1.1//EN" "http://www.w3.org/Graphics/SVG/1.1/DTD/svg11.dtd">
<!-- Creator: CorelDRAW 2019 (64-Bit) -->
<svg xmlns="http://www.w3.org/2000/svg" xml:space="preserve" width="175px" height="86px" version="1.1" style="shape-rendering:geometricPrecision; text-rendering:geometricPrecision; image-rendering:optimizeQuality; fill-rule:evenodd; clip-rule:evenodd"
viewBox="0 0 18600 9100"
 xmlns:xlink="http://www.w3.org/1999/xlink"
 xmlns:xodm="http://www.corel.com/coreldraw/odm/2003">
 <defs>
  <style type="text/css">
   <![CDATA[
    .fil0 {fill:#fff}
   ]]>
  </style>
 </defs>
 <g id="Слой_x0020_1">
  <metadata id="CorelCorpID_0Corel-Layer"/>
  <g id="_2889978248720">
   <path class="fil0" d="M15356.52 4980.47c406.01,-26.99 644.55,76.47 1061.88,11.46 284.03,-44.25 608.77,-188.43 897.81,-218.91 -137.64,150.03 -184.89,169.3 -408.31,247.15 -492.8,171.7 -1098.66,173.41 -1551.38,-39.7zm-9852.23 956.63l-155.28 190.01c-319.99,434.55 -628.58,790.61 -921.11,1202.17 -331.75,466.75 -919.41,915.69 -1016.74,1056.93 -175.69,-65.69 -257.14,42.02 -16.61,-44.8l265.59 -367.06 -150.4 24.36 -181.57 105.42c-6.04,-12.08 -24.28,21.46 -37.4,30.92 -230.86,55.63 -2418.74,-790.1 -2744.95,-909.82l-234.44 -102.06 64.76 -357.82c173.63,39.66 234.1,90.21 430.46,63.87 28.02,167.63 407.6,242.1 606.86,313.07 234.49,83.51 475.47,177.91 733.39,263.4 355.21,117.74 1036.18,383.77 1383.77,539.65 82.81,-70.97 113.99,-86.45 181.26,-179.28 -368.22,-13.05 -1152.96,-336.56 -1476.78,-452.7 -313.91,-112.59 -1131.69,-488.52 -1428.5,-484.14 -58.63,-85.15 -254.18,-140.96 -368.11,-215.59 88.45,-865.04 826.79,-1884.81 1268.73,-2367.26 753.97,-823.1 3714.43,-2603.8 5110.79,-1759.58 453.58,274.21 624.63,494.11 1164.94,650.62 533.87,154.65 1148.01,63.77 1735.5,141.22 -196.11,68.8 30.31,95.31 -337.19,136.57 -555.94,222.86 -1649.89,435.85 -1986.88,785.02 -269.45,0 -8.46,-35.7 -59.15,128.41l-205.22 -24.53c-141.67,206.7 -605.33,287.45 -1360.75,985.39 -304.59,281.41 -907.01,1018.14 -1139.76,1152.37 -61.18,-48.15 -510.93,-176.36 -718.48,-253.24 -272.72,-101.04 -559.54,-254.12 -803.58,-235.54 -108.77,-176.97 -248.96,-160.41 -510.62,-265.4 -264.24,-106.04 -353.94,-173.45 -663.49,-193.02l272.01 163.65c227.6,99.81 671.1,314 902.1,294.77 190.96,229.7 1142.21,475.93 1427.23,600.2l-459.44 691.85c-332.54,-128.85 -2797.98,-1079.35 -3099.42,-1111.3l1466.77 651.72c510.23,186.15 1101.93,386.71 1529.81,592.3l-63.7 200.96c190.09,-117.61 136.79,122.8 105.92,-244 340.8,-101.69 32.96,-33.65 135.25,81.08 157.52,-123.81 91.97,-106.09 213.74,-273.32 10.45,-14.36 44.2,-53.75 54.86,-67.57 106.89,-138.57 179.41,-248.88 239.93,-399.66 177.88,-169.96 124.44,-206.53 295.13,-387.93l279.11 -267.12c511.76,-533.97 1036.17,-1119.89 1748.43,-1446.63 386.02,-177.11 277.75,-51.01 354.17,-245.03l239.15 32.99c98.85,-117.76 184.31,-174.21 387.94,-197.9l-694.89 391.29c-216.89,120.68 -422.96,240.65 -637.75,388.6 -890.37,613.2 -451.14,435.85 -1125.39,993.49zm-2133.88 2742.08c121.04,-86.43 95.88,-82.82 156.55,-171.49 945.72,-467.47 2264.87,-3203.34 3517.56,-3539.49 110.7,278.47 289.05,701.74 566.36,825.43 74.44,149.51 -74.9,-1.54 73.69,106.68 3.93,2.86 133.51,53.45 149.62,59.2 608.17,39.53 916.81,41.53 1235.65,-386.23 223.03,-299.25 379.73,-694.69 737.97,-820.22 203.87,221.85 184.94,448.05 305.36,611.57 60.91,636.67 29.09,557.35 -155.76,1054.22 11.18,658.1 563.23,935.65 1175.32,914.3 277.29,-9.66 591.17,-110.14 818.56,-212.26 274.08,-123.08 441.35,-295.26 663.9,-421.36l152.44 -205.5c158.99,-182.14 172.88,-189.72 279.52,-455.12 56.07,-139.54 128.52,-382.69 156.97,-535.88 163.76,-59.48 100.08,-319.23 86.94,-519.98 -5.62,-86.12 -6.65,-174.15 -26.99,-259.18 -79.09,-330.81 -20.16,-117.76 -109.93,-220.8 295.42,-324.92 1851.2,863.03 2866.84,895.96 540.9,17.55 784.61,-142.78 1162.14,-146.78l136.92 -111.78c30.52,-20.9 103.92,-62.33 151.86,-92.56 117.45,-74.01 165.51,-127.77 306.9,-191.59l-13.12 -30.35c195.27,-195.78 267.85,-253.87 404.09,-538.87l33 33.2 158.63 -433.58c86.98,-505.94 108.76,-886.54 -48.18,-1342.68 -102.39,-113.15 -23.93,169.94 -82.06,-81.03 -6.15,-26.63 -34.67,-23.71 -46.52,-40.5 197.07,812.68 155.5,665.15 -14.05,1420.71 -106.77,-188.04 -24.3,-553.79 -33.25,-869.06 -1.21,2.64 125.3,62.15 -64.91,65.16l-63.12 -25.39c-59.34,-34.36 9.03,-24.32 -103.16,-114.57 393.57,-5.49 103.5,18.82 221.9,-87.34 -46.97,-263.05 -125.24,-440.79 -236.25,-596.3 49.02,-41.34 -100.22,-162.63 91.36,-5.01 6.43,5.3 17.92,33.48 29.93,48 194.42,0 5.03,25.28 80.09,-170.5 -180.96,-125.16 -202.07,-222.9 -445.49,-303.52 -133.55,-196.14 -644.79,-374.51 -921.04,-439.67 -714.9,-202.4 -1563.88,-162.32 -2116.53,-560.41 -287.07,-206.8 -498.51,-494.56 -763.55,-629.47 -422.29,-214.94 -868.29,-56.25 -1299.4,-7.74 -246.37,97.85 -386.44,165.09 -553.52,271.73 -89.6,57.16 -145.59,89 -259.39,153.74 -204.57,116.38 -200.57,90.35 -242.51,212.53 -1128.58,82.26 -1544.26,91.51 -2546.14,467.84l-201.45 93.79c-349.34,129.84 -830.69,464.07 -1123.24,725.71l-253.77 243.43c-77.16,65.3 -42.44,39.25 -133.25,102.11 -691.95,-768.25 -3071.4,-117.22 -3984.59,473.18 -770.82,498.36 -1541.51,1048.03 -2095.15,1764.97 -203.92,264.08 -350.4,537.29 -533.8,764l-95.05 205.48c-435.97,794 -542.73,2159.24 54.94,2849.07 282.29,325.8 723.46,530.86 1260.65,546.92 692.26,20.7 961.51,-111.61 1529.51,-342.72zm4868.98 -3133.18c-48.48,-93.93 -34.38,-173.81 -201.29,-125.42 -54.48,-161.18 -52.89,-126.9 -202.46,-271.03 -164.34,-158.37 -27.71,-91.27 -266.72,-185.79 -103.81,-97.47 -154.1,-128.41 -211.36,-261.3 427.07,8.6 413.7,294.69 681.43,322.89 73.55,175.62 83.14,165.22 273.99,301.84 236.68,169.42 220.05,87.82 311,285.05l-384.59 -66.24zm-201.29 -125.42l146.09 169.41 28.74 56.82c1.33,-11.24 -24.32,15.02 -44.7,41.52l-432.21 -280.13c-110.7,-104.67 -187.79,-180.5 -281.58,-269.41l-211.08 11.29 -89.95 -308.66c209.84,58.02 217.11,108.64 399.9,175.45l168.72 234.23c92.16,86.03 163.95,131.94 316.07,169.48zm3620.66 -2718.35l36.59 133.78c139.77,244.8 52.02,135.78 331.02,227.9 195.56,126.14 359.67,293.53 521.29,443.3l12.25 111.56c-297.13,-40.03 -469.69,-115.48 -728.66,-239.9 -189.47,-91.02 -470.24,-282.51 -575.52,-308.97 -164.5,-188.22 -326.19,-305.75 -559.25,-393.88 123.69,219.03 62.44,118.57 212.99,241.75 106.06,86.74 88.97,90.47 259.25,171.56l-998.85 51.2c-317.1,-5.27 -649.12,-9.8 -964.68,-33.17 -1212.22,-89.8 -816.03,-57.9 -1597.61,-398.5 162.46,-433.46 711.71,-868.66 1066.55,-1093.25 1168.91,-739.83 978.99,-378.69 1390.85,-205.5 84.6,218.04 283.05,348.24 525.74,370.38 86.52,217.44 223.74,216.41 413.35,385.87 184.83,165.22 164.12,243.25 456.91,363.16 91.59,157.28 29.54,111.92 197.78,172.71zm-1147.47 -199.26c-9.28,-10.57 -57.63,-74.85 -70.51,-85.41 -82.98,-67.9 -12.9,-36.62 -112.54,-54.97 -7.8,223.89 -35.56,168.11 183.05,140.38zm3489.07 771.11l-164.99 -75.21c-110.61,-179.6 -168.76,-75.53 -250.63,-330.23l415.62 405.44zm-161.83 -4.43c178.66,179.81 64.31,89.51 216.48,128.14 44.56,228.97 -25.45,36.45 62.64,178.81l250.91 352.11c-89.37,128.82 145.36,160.58 -171.49,71.91 -189.51,-120.44 -242.07,-208.27 -343.69,-389.64 -42.3,-304.23 2.37,-98.06 -96.51,-175.82l81.66 -165.51zm945.09 1185.68l-104.7 -152.87c-111.65,-46.02 -204.08,-21.66 -186.1,-177.6 -63.16,-268.42 -147.95,-269.32 -18.29,-517.55 -105.83,-111.44 -128.63,-145.43 -213.81,-251.89l-144.71 -300.04 116.81 2.89c40.38,67 230.08,265.83 288.65,297.15l71.17 239.64 -125.52 154.7c191.51,113.61 220.52,205.74 298.93,417.14 180.87,-125.67 72.56,-100.78 280.66,-7.78 -59.99,123.15 -92.47,100.83 37.26,100.83 166.65,90.38 162.68,101.4 275.37,258.08l151.21 -40.83c-45.12,216.28 -65.77,109.48 174.46,182.36l173.94 192.89c-1052.38,-39.41 -739.92,-397.81 -1075.33,-397.12zm2854.82 -326.01c96.28,44.76 131.9,-140.11 40.97,149.07l10.33 67.57 -225.26 -10.71 92.83 -182.14 81.13 -23.79zm357.8 -224.09c0.94,-3.72 1.87,-7.97 2.84,-12.92 -0.97,4.93 -1.9,9.2 -2.84,12.92zm4.71 -22.34c1.83,-9.41 4.07,-20.77 7.21,-34.73 -3.14,13.93 -5.38,25.34 -7.21,34.73zm8.62 -40.85c1.95,-8.38 4.24,-17.65 6.91,-27.85l0 0.02c-2.7,10.19 -4.96,19.47 -6.91,27.83zm-6.9 -65.75c-12.94,1.69 -24.97,3.08 -36.21,4.22 11.24,-1.14 23.28,-2.53 36.21,-4.22zm-37.58 4.36c-6.97,0.7 -13.61,1.33 -19.97,1.86 6.34,-0.53 12.98,-1.14 19.97,-1.86zm-31.79 2.79c-6.35,0.46 -12.37,0.84 -18.07,1.14 5.72,-0.3 11.7,-0.68 18.07,-1.14zm-18.94 1.2c-5.76,0.3 -11.19,0.53 -16.32,0.71 5.12,-0.18 10.56,-0.41 16.32,-0.71zm-2247.45 -1586.67l-55.35 -157.01 75.5 214.14 -12.56 -215.3 -10.35 0.19 2.76 157.98zm-55.35 -157.01l52.59 -0.97 -52.59 0.97zm130.22 -2.41c-35.12,-12.64 -55.05,-17.17 -68.53,-19.94l-13.53 -232.1 4.02 230.13c-21.57,-4.62 -26.36,-8.88 -86.29,-64.9 -99.59,-77.3 -109.61,132.58 -80.07,-114.84l162.34 -50.39 91.4 130.27 -9.34 121.77zm-105.78 229.02c7.54,4.91 15.48,9.94 23.83,15.15l7.03 4.35 1.62 0.99c36.28,109.3 45.55,77.03 0.46,160.26 -183.74,-39.55 9.36,3.4 -181.21,-144.56l148.27 -36.19zm752.66 530.68c67.3,97.67 93.17,115.77 70.45,205.45l-161.54 42.63 -32.53 -83.76 -7.65 -145.71 131.27 -18.61zm-5424.74 -1210.54c55.59,166.78 32.5,179.76 180.03,268.48l54.5 171.69c-96.65,132.03 147.27,224.18 -154.48,48.73 -186.26,-108.31 -168.98,-316.55 -453.25,-296.12 -74.88,-134.23 -81.97,-109.51 -198.02,-219.02 -201.76,-190.36 -7.32,-100.42 -257.13,-171.46 -129.33,-135.13 -195.35,-128.61 -270.58,-313.79 144.4,-8.84 423.78,-55.23 545.7,-36.78 227.07,34.38 153.55,101.42 385.05,201.74 107.54,248.11 109.18,-57.85 168.18,346.53zm1828.41 1980.55c-49.11,-65.23 -76.41,-91.07 -135.13,-147.4 -311.1,-200.49 -280.06,-228.74 -507.78,-448.12 -55.73,-335.74 -41.87,-99.7 72.1,-179.99l176.95 18.23c90.68,106.98 89.6,112.69 130.39,251.56 13.6,3.94 36.23,-5.52 41.88,7.12 5.11,11.5 31.61,2.34 38.62,-0.15 7.39,-2.64 30.46,-7.05 39.2,-10.88 9.65,-4.23 29.72,-16.46 39.4,-21.49 10.29,-5.37 29.59,-23.29 38.33,-28.51 9.3,-5.56 25.13,-23.54 40.45,-30.76 81.82,105.27 -30.51,45.11 159.8,114.32 170.76,129.57 193.05,166.72 313.38,325.64 64.16,225.98 31.66,42.94 48.07,298.4l140.69 -158.75c113.54,103.01 -56.67,-0.84 165.54,129.38 83.16,48.74 84.89,37.99 166.05,77.76l182.43 225.46c1.93,2.07 85.56,70.92 88.93,79.92 45.52,121.24 224.04,-46.1 -57.1,84.09 -218.84,-76.1 -379.47,-152.78 -614.17,-246.81 -289.35,-115.91 -352.45,-185.93 -568.03,-339.02zm3049.43 685.76l66.95 61.51c197.88,181.36 120.77,144.62 300.84,189.55 92.26,180.63 168.42,147.09 326.07,327.36 -293.64,67.91 -456.75,85.47 -573.14,-165.59 -118.45,-132.65 -116.55,-169.79 -220.91,-248.88 14.32,-320.43 -17.26,-39.4 100.19,-163.95zm367.79 251.06l-137.06 -261.12c-7.46,-60.26 1.98,-98.2 -28.07,-159.22 -66.75,-135.45 -17.07,-47.74 -103.71,-135.98l90.06 -89.87 248.77 248.96c10.08,52.19 19.08,136.16 62.01,164.33 21.67,14.22 39.38,-11.51 202.69,5.97l490.41 393.06c-377.03,251.53 -161.12,-5.18 -825.1,-166.13zm-1143.59 -2000.02c-1.51,-1.51 -3.24,-2.93 -5.12,-4.25 1.9,1.32 3.59,2.74 5.12,4.25zm-99.16 -16.12c-4.59,0.29 -9.34,0.67 -14.29,1.1 4.93,-0.43 9.7,-0.81 14.29,-1.1zm-59.97 6.2l-168.49 16.95c107.23,123.51 95,160.97 274.91,199.6 5.07,20.73 11.91,50.66 16.37,92.4l71.33 67.1 32.37 192.83c80.83,-313.08 8.75,-80.19 102.06,-186.86 180.84,82.38 168.95,70.4 241.64,241.95 4.21,16.3 11.76,36.21 15.4,48.1 3.71,12.08 11.36,34.3 15.72,48.84 4.57,15.24 11.12,35.85 15.67,51.41 28.29,96.8 20.78,44.61 43.53,173.6l-64.25 -18.54 -28.9 -123.84 -169.74 -40.3 -14.11 -119.32 -154.73 -27.22 -42.1 140.02c141.29,76.93 110.4,12.63 164.66,177.55l147.34 287.76c-81.35,8.85 -116.68,8.74 -231.93,-36.72 -52.41,-48.73 -134.82,-158.99 -206.99,-262.24l-112.33 19.06 -82.26 -13.36c-142.53,-169.48 -14.31,-58.43 -196.81,-122.6 -2.66,-270.99 -2.6,23.58 -82.58,-259.74 -41.38,-213.67 8.83,-65.85 -113.22,-127.48l-5.66 -117.2c106.75,69.7 81.39,49.05 173.05,92.09 134.29,63.24 68.56,-70.4 140.74,70.73l25.58 150.88 215.96 -93.41c-6.96,-7.34 -89.87,-91 -94.66,-97.98 -84.07,-122.5 2.88,41.04 -60.98,-134.82 -95.32,-190.38 -72.01,-43.92 -73.31,-285.65l38.23 13.36 -20.37 -185.08 145.48 43.5c30.12,141.61 -33.99,69.63 43.38,124.63zm-1577.65 351.09l143.27 171.35c70.66,79.21 111.88,110.29 142.69,226.91l97.17 250.3c-263.52,-112.86 -75.23,-96.68 -322.67,-103.69 -90.4,-127.18 -180.49,-214 -236.77,-389.24l-70.44 -137.39 132.57 -50.63 114.18 32.39zm255.56 22.41c5.05,-251.13 24.07,-106.65 -71.48,-136.43l71.48 136.43zm592.78 -129.81c202.4,356.16 92.21,149.26 -9.34,210.48l-139.68 -118.35c-81.71,-189.99 -66.45,-104.7 -90.71,-353.56l100.44 27.11c48.6,-114.84 3.17,-44.59 59.7,-86.89l45.91 -21.81c5.04,-2.59 19.81,-8.59 25.59,-11.07 102.66,-43.93 89.83,-79.04 323.42,-36.11l84.41 181.47 14.94 151.55 -113.68 0.19c-141.91,-71.11 -22.7,6.46 -124.53,-73.76 -3.04,-2.38 -61.17,-77.43 -68.32,-86.96l-193.22 -53.95c8.97,17.98 -9.95,295.47 59.19,165.4 4.15,-7.81 14.38,37.41 28.82,50.23l-2.94 56.03zm-4700.42 1736.53l-204.79 126.01 -109.66 68.97c-165.2,-177.76 -315.47,-239.36 -455.42,-414.58l530.04 66.56 189.52 35.71 50.31 117.33zm946.78 1819.48c95.84,-68.15 49.3,-33.53 107.74,-145.19 414.17,-86.57 121.19,4.62 312.62,32.21 135.76,19.58 224.55,-22.6 411.49,-10.33 -111.37,-171.05 -244.02,-73.6 -399.88,-223.87l-529.23 31.98 -83.64 31c-4.04,-0.21 -8.1,-0.26 -12.13,-0.1l95.77 -30.9 38.64 -182.66 528.41 -0.86 0 -248.89 -518.69 85.66 44.25 -88.02 176.85 -109.24 373.52 -15.82 -9.55 -197.03 -167.35 17.74 -438.58 -13.47c-143.76,-58.05 -111.61,-6.44 -131.62,-231.84 236.51,40.73 253.58,142.33 455.15,74.27l291.88 -14.19 3.44 -184.5c350.62,-102.54 222.38,-66.44 524.44,-28.99 12.73,-11.65 29.46,-48.46 36.45,-36.76l164.65 -120.37c105.37,-50.72 153.15,-50.37 255.78,-64.85l-327.21 -130.27c-19.03,-6.22 -33.27,-12.69 -50.9,-18.62 -92.3,-31.02 53.9,-15.78 -139.12,-47.9 -88.31,247.8 -14.52,-97.89 88.83,262.65l-586.34 29.56 259.05 -211.13c157.92,-99.28 8.57,45.91 152.34,-119.7l-418.68 13.8c101.38,-144.26 -29.76,-23.36 118.11,-116.02l439.7 -221.56c-12.96,30.63 -32.94,29.96 -38.6,51.7 -19.98,76.7 -65.14,25.05 -154.6,147.93l390.17 116.01c278.78,65.56 301.01,43.15 594.52,4.97 -157.18,236.69 27.57,101.44 -276.54,241.08 29.57,237.27 -18.8,26.7 109.88,112.09l347.99 -39.24c27.25,-13.07 216.58,-418.52 401.56,-72.85 -149.48,105.25 -91.86,60.81 -314.26,57.59l24.09 169.98 -568.28 34.31 -447.95 50.73c200.08,-27.06 460.35,-104.75 542.48,91.65 -199.44,78.28 -179.17,-41.27 -180.73,78.77l-238.13 32.4 27.6 148.03 413.3 -58.38c-37.31,71.8 -36.47,102.64 -89.94,187.38l-436.52 3.49 23.48 158.14 342.22 -43.67c9.98,5.46 32.69,17.16 43.95,23.47l155.12 96.86 331.84 -59.45c-38.49,64.12 -41.82,103.62 -102.05,179.05l-522.2 81.83c50.12,-109.38 -67.38,-103.81 113.22,-65.68 -101.95,-107.54 98.3,-84.76 -195.34,-56.36 -165.94,16.04 -102.49,37.75 -327.61,34.81l-74.57 -87.53c-36.58,13.29 -215.37,41.65 -221.85,44.05 -165.01,61.16 -84.67,25.76 -186.55,127.67l397.54 -55.63 16.15 148.53 154.19 -2.96 336.26 27.96c133.44,55.61 30.67,29.06 226.56,-1.59l198.37 2.12 -48.02 159.53 -449.23 92.93 -37.94 142.53 169.21 -21.77 215.27 54.22 -284.91 109.42 -159.96 30.36c69.82,-280.11 41.58,-86.43 -119,-152.69l-353.19 57.25 -63.08 -108.77 -382.92 76.59c-32.75,-29.93 -65.78,-17.36 -75.12,-135.43 -0.87,-10.99 -0.45,-17.45 -3,-25.68 -146.69,17.36 -59.08,-10.79 -87.39,84.91l-201.68 -38.45zm-232.1 -268.12l-1.47 2.34c0.46,-0.84 0.94,-1.59 1.47,-2.34zm-6.28 29.02c0.17,2.76 0.48,5.67 0.96,8.76 -0.48,-3.09 -0.79,-6 -0.96,-8.76zm1.18 10.15c0.53,3.16 1.22,6.5 2.07,10.02 -0.85,-3.51 -1.54,-6.86 -2.07,-10.02zm8.85 31.92l2.34 6.22c-0.86,-2.12 -1.61,-4.19 -2.34,-6.22zm3302.59 -3378.05l190.16 -27.47c26.1,105.23 -92.44,54.94 98.66,100.61 88.08,76.41 154.48,157.62 203.04,293.03l10.38 188.15 -502.24 -554.32zm3280.72 1480.46l-57.23 -177.72 -91.36 168.38c-24.21,-19.91 -35.85,-37.32 -102.03,-76.08 -76.58,-44.87 -43.45,-22.87 -109.15,-52.55l-200.01 -298.65 -9.65 -166.68c326.54,148.51 -118.89,124.32 354.45,167.02 265.41,44.8 80.83,-21.84 3.9,-38.97 11.52,-149.17 -35.59,-99.48 88.57,-221.3 10.73,-1.88 28.35,-23.52 30.96,-10.47l76.34 76 173.64 -77.83c11.22,16.66 36.59,47.07 44.39,55.69 5.61,6.21 23.63,25.56 29.4,31.85 6.26,6.84 22.25,22.22 32.91,33.77l72.68 36.31 173.36 353.72c127.29,-85.7 83.88,-107.95 267.01,-143.87 3.08,248.5 35.71,119.42 -38.52,280.43 -274.52,71.97 -208.77,90.42 -371.46,-38.67 -266.15,-211.21 -76.88,-184.26 -230.23,-385.45l-94.68 143.48c-14.55,-9.05 -136.02,-68.33 -149.27,-73.57 -51.47,-20.28 -85.46,-34.79 -106.41,-44.83 -0.72,7.46 -1.58,15.33 -2.59,23.71l25.03 194.6c74.05,47.64 279.44,-18.16 372.19,208.17l9.76 65.36c58.21,175.98 -90.99,-79.69 8.9,37.8l99.31 35.05c3.7,-11.72 24.53,8.95 40.49,16.97l-50.05 166.07c266.7,-46.73 105.11,32.69 154.08,-141.47l205.47 96.3c-30.59,39.41 -36.32,37.92 -79.57,81.88l-83.53 86.11c-404.58,21.19 -97.96,35.81 -196.45,-122.82l-144.73 1.16c-71.34,-147.03 -25.5,-32.39 -85.13,-146.07 -59.28,-113.02 1.63,34.16 -60.79,-142.83zm-1080.54 -181.04l-96.12 -49.25c-66.93,-288.8 -69.67,-91.34 -139.54,-373.45 66.56,-51.59 -38.73,-42.75 136.31,-6.07 99.67,40.98 110.07,29.28 144.38,186.41l180 396.2 -225.03 -153.84zm-323.15 -29.97c127.94,27.39 75.82,-104.32 114.5,91.48l51.02 83.4c327.75,518.87 254.54,262.26 180.73,380.15 -115.61,-161.17 -210.82,-67.04 -210.85,-67.04 -64.61,-184.24 0.29,-40.3 -130.43,-170.69 -56.8,-56.67 -99.24,-107.62 -143.85,-162.79l-41.05 -190.26c37.49,-86.45 -77.59,-29.16 109.32,-40.11 -13.43,173.41 -19.11,49.08 70.61,75.86zm-2537.37 -1111.35c-66.06,-96.93 -81.35,87.55 -49.95,-116.31l183.63 2.97 -40.95 47.42 31.95 146.61c-144.38,-78.05 -71.02,82.68 -124.68,-80.69zm-1864.81 1992.93l-272.96 47.04 -288.33 11.84c38.81,-154.48 20.85,-120.2 111.13,-214.25l416.74 -0.18 33.42 155.55zm3823.43 -1403.73l192.38 287.59 8.21 174.54c-310.84,-138.94 -190.5,-175.99 -348.52,-296.77 58.76,-291.92 -13.92,-92.54 147.93,-165.36zm1084.75 129.73c-75.91,-52.46 -146.51,-127.28 -204.89,-187.35l9.38 -199.43 147 50.41c121.41,137.13 125.12,87.63 181.28,288.82l32.91 149.17 -165.68 -101.62zm-15425.1 4098.01l566.09 61.2c93.98,122.03 365.99,183.85 520.22,247.05l181.02 105.1c-432.33,-5.46 -877.35,-193.19 -1148.34,-365.66l-118.99 -47.69zm566.09 61.2c-132.61,-167.37 -336.81,-155.99 -545.42,-261.91l-157.23 -54.2c78.11,-138.64 -130.74,-78.72 163.93,-126.56 141.77,160.78 2365.22,831.4 2617.45,968.88 -511.44,134.79 -1610.11,-568.16 -2078.73,-526.21zm14072.5 -5060.92l37.29 -166.33 84.74 9.9c81.98,75.95 69.68,101.06 65.22,216.09l-187.25 -59.66zm-4653.88 1102.93l-203.99 0.26 -6.86 -56.09 -0.19 56.11 0.26 0 -0.07 -56.11c114.74,-75.45 187.08,-100.35 347.95,-1.27l-137.1 57.1zm-305.56 39.84l94.86 36.5 0.26 212.43 0.25 -1.27 1.25 -6.55 0.29 -1.57 1.05 -5.92 0.31 -1.85 0.85 -5.32 0.33 -2.1 0.68 -4.74c0.58,-4.1 1.08,-8 1.5,-11.75l0.19 -1.78 1.01 -10.6 0.05 -0.62c0.26,-3.35 0.47,-6.55 0.6,-9.61l0.07 -1.22 0.15 -3.98 0 -0.16 0.09 -3.13 0.02 -1.45 0.03 -3.18 0 -1.18 0 -0.55 -0.14 -7.44 -0.12 -3.18 -0.03 -0.5 -0.19 -3.44 -0.19 -3.13 -0.01 -0.12 -0.24 -3.06 0 -0.02 -0.26 -2.85 0 -0.14 -0.27 -2.55 -0.02 -0.25 -0.24 -2.28 -0.26 -2.34 -0.03 -0.45 -0.19 -1.76 -0.03 -0.51c-0.29,-2.93 -0.52,-5.44 -0.53,-7.63 -0.02,-0.98 0.03,-1.88 0.12,-2.74l0.01 -0.32 0.09 -0.64 0.05 -0.24 0.16 -0.87 0.03 -0.15 0.19 -0.75 0.13 -0.45 0.12 -0.31 0.28 -0.7 0.05 -0.12 0.38 -0.75 0.17 -0.31 0.22 -0.32 0.44 -0.67 0.07 -0.09 0.75 -0.89 0.79 -0.78 0.16 -0.14 0.95 -0.79 0.14 -0.1 1.16 -0.82 0.09 -0.05 1.4 -0.84 0.02 -0.02 1.61 -0.85 0.03 -0.02 1.73 -0.84 0.13 -0.06 1.85 -0.79 2.16 -0.89 0.37 -0.16 2.01 -0.76 0.53 -0.21 0.39 -0.15 -8.21 -67.19 -16.8 -6.47 -94.86 -36.5zm4959.44 -1142.77c-28.75,-8.44 -48.82,-15.36 -62.43,-19.42l62.43 19.42zm929.94 488.98l-30.13 -190.71 188.71 58.21c119.99,410.29 158.35,193.43 191.54,359.69 46.88,234.87 -15.57,63.25 -49.86,112.58 -89.33,-68.4 -57.8,-38.5 -155.03,-135.09 -174.45,-173.31 -43.73,41.1 -145.23,-204.68zm-180.36 -45.19c-138,-44.9 -47.83,-1.34 -198.66,-76.17l-39.96 -224.42 285.16 64.95 -46.54 235.64zm1633.02 517.46l-177.57 4.17c-66.3,-109.33 -73.36,-67.95 -44.68,-191.01 4.5,-1.38 -42.76,-177.53 145.43,2.98 54.14,51.93 51.2,106 76.82,183.86zm149.31 227.38c-59.18,-143.39 -52.6,-90.73 -55.95,-289.93l158.55 14.3c9.95,104.17 -24.75,26.51 36.17,185.04l-138.77 90.59zm-871.11 -1175.14c4.29,1.47 8.4,2.82 12.26,4.01 -3.88,-1.19 -7.95,-2.54 -12.26,-4.01zm83.71 8.73c0.24,-0.04 0.43,-0.02 0.57,0.05l-0.57 -0.05zm169.05 -107.42c75.73,57.45 93.89,-84.19 71.21,173.07 -192.47,7.47 -168.02,-2.23 -253.21,-158.04l77.73 -99.7 104.27 84.67zm-254.69 -129.99l-15.11 90.66 -129.05 128.82c-13.31,14.21 -39.36,66.86 -49.73,53.71 -10.16,-12.88 -30.14,30.28 -49.43,51.88l243.32 -325.07zm-247.05 324.8l66.25 -174 -247.58 -602.81 189.06 22.9 -24.15 166.23c3.28,14.64 9.25,35.37 13.9,49.94l62.27 109.6c1.98,-1.97 28.6,-20.46 60.67,-49.75l126.63 153.09 -247.05 324.8zm-7741.4 2635.43c-250.89,-52.77 -128.82,-64.73 -340.06,-223.62 -142.78,-107.38 -231.31,-157.38 -386.01,-191.15 -108.48,-233.74 -369.4,-208.46 -375.08,-470.22 653.41,23.83 729.51,540.64 1192.61,571.36 -193.9,-274.29 -158.17,-209.35 -448.99,-372.31l-359.14 -280.52c-3.43,-15.32 -19.94,-14.26 -17.53,-11.92l87.79 -150.64 447.87 35.33 578.82 401.58c-98.2,280.1 -270.56,488.18 -380.28,692.11zm6722.67 -3136.36l1.05 203.06c-193.99,-102.12 -119.24,-39.77 -192.35,-177.54 75.57,-52.11 -113.92,-119.46 191.3,-25.52zm-12.69 495.95l-36.57 -98.99 141.51 -1.56c98.47,53.48 80.55,-103.58 78.39,118.41 -230.13,135.95 -136.97,81.57 -183.33,-17.86zm377 -139.9l209.33 -53.27c27.42,107.75 23.83,90.69 45.1,242.52 -170.81,-20.55 -217.02,7.81 -254.43,-189.25zm-25.64 -224.61c-13.98,-163.99 68.14,43.99 -76.48,-215.25 191.39,90.9 58.34,-37.5 187.78,112.07 -76.03,199.69 14.06,31.25 -111.3,103.18zm-5527.35 4074.51c22.85,-7.99 172.98,-62.89 194.87,-64.06 362.39,-19.15 32.13,-25.33 188.14,47.3 -97.48,70.34 183.01,89.54 -210.18,91.08 -285.64,1.12 -165.99,-69.01 -172.83,-74.32l-128.89 20.48 -54.48 -18 113.05 -133.13c100.35,98.7 30.55,42.6 70.32,130.65zm-91.72 154.99c278.42,82.29 273.42,78.53 561.63,23.76l-3.9 146.93 394.87 40.34c-17.95,11.82 -72.99,40.07 -89.98,50.06 -114.67,67.35 -86.7,40.68 -177.6,113.38 -421.16,11.85 -466.11,-117.09 -685.02,-374.47zm561.63 23.76l38.11 -135.47c33.61,-5.66 198.54,-42.97 210.32,-42.58 247.39,8.39 75.49,-24.9 223.75,91.67l-472.18 86.38zm2177.75 -1832.6c-93.79,107.78 -1.51,64.65 -181.1,91.82 -19.19,2.91 -185.07,-17.84 -205.6,-19.69l14.27 -78.1c36.21,-4.04 205.65,-43.95 210.53,-44.25 152.69,-9.75 87.47,-60.3 161.9,50.22zm-2169.83 -724.61l-15.36 36.15c-60.49,195.32 -142.28,141.51 -362.05,129.98l433.85 270.48 -539.46 11.05c162.66,-173.26 213.34,-147.09 479.42,-130.12 95.47,78.8 27.99,-27.97 40.41,127.96 6.48,-3.35 12.53,-6.02 18.2,-8.1 112.94,-41.57 67.34,153.04 100.64,-127.37 -194.98,-54.7 -283.38,-52.87 -521.29,-14.64 -115.03,-120.11 -52.72,-40.03 -11.77,-129.26l63.43 -138.37 313.98 -27.76zm-10193.45 3888.22c84.81,-175.22 -54.87,-60.68 117.5,-65.66 193.58,-5.6 55.13,7.73 182.94,47.91 366.66,115.25 678.52,320.41 1040.77,303.24 111.58,160.27 140.01,44.23 473.42,237.88 -203.23,17 -259.79,10.47 -449.42,-32.96 -290.63,-66.54 -210.73,-103.22 -479.56,-105.7l488.58 232.46c-396.91,91.22 -982.57,-128.06 -1137.65,-403.93l643.07 153.09c-226.66,-121.43 -667.75,-220.93 -879.65,-366.33zm1341.21 285.49l-201.26 -196.81c100.77,11.94 209.51,25.5 318.67,58.09 341.09,101.81 137.29,40.33 242.52,165.81l-359.93 -27.09zm9595.42 -7407.85c173.44,-141.27 356.76,-291.74 564.57,-398.51 199.89,-102.68 493.55,-160.5 704.61,-271.29 293.76,-13.55 529.88,-99.14 871.12,13.98 534.23,177.07 349,886.74 1812.3,1147.1l-163.2 31.02c-296.62,76.72 -642.17,219.04 -889.12,321.12 -171.51,70.9 -261.31,108.36 -432.53,167.58 -156.29,54.07 -344.06,90.09 -318.06,240.15 180.14,97.65 674.53,-215.03 1011.41,-371.91l860.37 -256.22c278.47,-37.67 289.06,44.92 344.61,93.2 -456.05,9.34 -909.58,169.93 -1274.22,330.3 -162.36,71.42 -352.61,162.19 -541.53,244.62 -190.5,83.12 -368.32,103.85 -540.64,187.1l-230.61 4.81c146.4,-28.26 104.85,-5.36 225.85,-73.81 271.22,-153.4 101.73,-54.48 144.76,-158.09 -244.58,-46.47 -130.8,-32.16 -380.34,49.06 -117.5,38.25 -191.08,59.63 -298.66,80.89 -297.66,58.84 -524.23,53.35 -822.84,60.14 -437.89,-26.34 -801.83,-177.07 -853.44,-602.92l81.13 -652.81 124.46 -185.51zm-265.59 148.68c-66.25,299.75 -197.98,307.48 -199.23,353.92l-88.6 -74.3c-8.91,-18.48 -22.73,-40.49 -29.37,-54.07 -45.52,-93.26 -87.46,-107.3 -53.88,-217.44 11.77,-5.51 6.4,-252.54 229.63,144.26 54.69,-168.01 -30.78,-93.79 141.45,-152.37zm2897.19 3242.81c-109.51,-342.25 -56.08,-92.06 61.18,-160.61l157.88 115.8 66.57 102.73 -285.63 -57.92zm-1894.84 1840.82c108.59,-24.67 73.03,-3.27 168.85,-48.94 181.6,-86.52 107.73,-63.67 168.94,-139.61 293.8,32.53 83.36,-2.93 189.77,88.17l-233.66 188.45 -344.97 71.67 51.07 -159.74zm337.79 -188.55l-255.37 -13.82 51.43 -154.38c240.31,-58.07 220.04,-111.06 507.78,-84.5l-303.84 252.7zm-874.41 788.27c452.33,-122.51 258.55,-28.43 320.19,65.22 -192.53,-18.75 -381.32,170.23 -603.02,221.59 -211.9,76.48 -188.03,93.35 -442.49,69.28 122.56,-64.85 233.43,-116.3 351.06,-180.68 250.59,-137.17 93.33,-106.38 374.26,-175.41zm704.01 -168.83l-301.46 25.98c18.29,-21.43 -46.73,-102.44 171.71,-159.73 299.01,-78.4 126.38,-15.73 188.03,93.14 -116.43,-40.09 -117.49,-73.43 -58.28,40.61zm3969.15 -3348.73l162.65 42.2c61.14,134.65 64.13,61.75 31.66,146.9 -73.65,193.2 -96.35,34.4 -109.19,32.48 -148.82,-162.57 -63.5,1.32 -85.12,-221.58zm429.75 26.05c140.57,20.6 340.37,67.45 114.16,178.96 -104.45,-85.58 -74.02,16.93 -114.16,-178.96zm379.95 -3.3c-82.48,-153.52 -16.74,-17.04 -81.01,-136.7 -73.12,-136.18 11.72,62.48 -71.43,-156.75l230.07 91.83 18.32 208.72 -95.95 -7.1zm-176.85 -1117.44c237.27,116.85 117.17,-112.64 168.93,217.53l-168.93 -217.53zm-132.12 228.17c-200.36,3.47 -25.98,21.36 -255.77,-28.98 99.25,-95.28 227.59,-282.25 -131.57,-409.5 -141.36,0 -4.48,18.73 -60.93,-171.39 239.37,53.69 163.1,0.24 266.16,235.04 162.03,-0.24 51.11,-42.85 144.69,57.34 -19.14,134.31 48.01,61.27 -70.71,136.7 47.36,47.11 59.92,5.99 108.13,180.79zm560.5 646.5l-200.5 -99.47c122.33,-188.19 -77.3,-71.43 190.92,-88.7l9.58 188.17zm-121.39 -292.22l-88.35 -177.33c209.93,-99.18 10.32,-10.73 113.9,-132.96 8.09,-9.56 16.3,-27.88 25.11,-36.96 8.4,-8.64 21.28,-22.72 30.01,-30.18 12.36,-10.57 93.58,-44.27 111.69,-52.97 -25.01,-22.53 -259.86,36.55 28.58,-240.6l185.54 248.86c-16.47,9.94 -48.87,30.19 -58.91,38.13l-33.25 145.94 -281.43 62 55.83 148.6 -88.72 27.47zm-4750.3 2766.07l403.9 -100.15c-120.2,195.21 -108.72,163.8 -342.89,188.98 -80.84,-67.31 -73.77,88.47 -61.01,-88.83zm170.95 -224.5c-109.75,-47.09 -60.56,-7.41 -119.19,-77.21l141.97 -85.36c312.15,-37.88 351.34,104.99 -22.78,162.57zm-161.73 -218.69c-117.69,177.42 72.64,12.15 -98.94,107.75 -6.81,3.79 -151.19,42.79 -153.94,42.91 -184.91,8.95 -214.42,2.53 -243.99,-148.35l496.87 -2.31zm4741.08 -2322.88c136.75,-60.49 140.55,-19.32 111.81,104.05l-111.81 -104.05zm-7404.41 1823c144.2,-183.35 87.12,-148.57 336.8,-157.45l-124.56 101.38 -212.24 56.07zm217.11 360.94c-15.63,-48.97 -49.7,-185.27 -62.46,-218.25 258.28,39.38 208.3,-52.24 155.04,183.75l-92.58 34.5zm683.85 -313.8l2.14 -0.83 -2.14 0.83zm0 0l3.57 -1.62 -3.57 1.62zm-1889.22 -784.59c-110.3,-42.32 -32.54,18.75 -98.65,-68.32 231.59,-35.23 473.38,-132.61 667.42,-253.6 430.42,-17.25 564.28,-171.59 1164.31,-120.96l-468.13 120.16c-150.87,28.96 -305.34,65.1 -421.66,98.05 -290,82.17 -563.54,174.95 -843.29,224.67zm7013.61 -1695.61c48.22,-25.24 -80.6,-144.55 100.45,-27.19 161.13,104.41 34.97,-8.08 96.2,164.65 -258.68,-60.52 -144.98,-49.71 -196.65,-137.46zm187.62 -242.44c28.45,165.44 53.87,118.02 -68.59,72.49 -7.7,-2.86 -30.93,-17.07 -38.71,-21.23 -11.54,-6.19 -30.58,-31.95 -40.79,-51.26l148.09 0zm1278.81 1336.93c192.69,109.52 108.29,-93.41 202.76,214.22 -249.15,9.65 -133.43,102.34 -202.76,-214.22zm473.18 -43.77c132.44,79.43 50.29,-121.65 91.7,89.75 44.08,225.08 -1.95,54.49 -31.35,102.88 -63.86,-64.88 -187.51,-124.5 -60.35,-192.63zm-304.63 -200.37c139.58,63.97 206.26,-5.25 123.61,230.98 -80.33,-42.21 -52.31,40.49 -105.3,-78.47 -79.85,-179.23 -19.95,-32.26 -18.31,-152.51zm172.3 -182.91c81.6,101.27 131.7,-22.97 23.99,168.54 -48.6,-96.76 -44.89,-68.49 -23.99,-168.54zm-32.27 851.36l26.39 -248.4c119.51,78.44 -4.28,-133.83 114.72,88.82 57.87,108.26 28.93,63.5 23.18,147.5l-164.29 12.08zm241.38 -928.24l-151.36 30.46 -34.47 -247.1c207.39,62.81 184.45,44.59 185.83,216.64zm-2590.71 -652.27c-195.65,84.48 -106.52,126.71 -182.19,-60.35 229.19,-141.87 178.41,55.32 182.19,60.35zm-44.41 2930.13c-285.74,-32.52 -539.12,-118.83 -699.05,-268.98 269.82,-22.99 309.76,-6.75 560.52,163.46l138.53 105.52zm-1431.64 -631.36c285.16,-22.53 506.62,106.34 689.59,295.98 -181.07,87.7 -614.74,-175.44 -689.59,-295.98zm-1532.27 -5.73c133.4,-61.69 114.24,-123.66 295.85,0 -10.3,13.12 57.08,92.52 -146.37,90.5 -218.76,-2.17 -60.2,-11.89 -149.48,-90.5zm489.65 30.19l24.15 -148.48c9.2,13.72 31.37,29.41 33.76,36.3l-57.91 112.18zm643.75 -200.13c126.27,-12.71 37.7,-64.4 251.01,30.32 341.35,151.61 51.33,-15.49 147.86,145.35 -121.65,-2.02 -409.15,-45.37 -398.87,-175.67zm-1796.29 49.24c55.23,-44.42 25.16,-73.21 154.83,-82.29 431.22,-30.21 125.06,16.32 215.63,82.29 -170.68,183.88 -261.11,175.16 -370.46,0zm375.85 -120.67c68.38,-43.16 28.56,-175.18 222.35,0 -41.06,39.03 85.76,39.61 -96.34,56.82 -295.66,27.93 -8.81,23.57 -126.01,-56.82zm1420.44 71.43c-255.61,12.14 -199.06,-13.05 -433.58,-96.05 -102,-36.11 -185.1,-52.17 -287.2,-96.08 0.52,-0.41 -62.81,-146.13 407.09,-18.04 385.71,105.12 288.85,164.31 313.69,210.17zm-1892.7 -188.66c11.6,-16.33 152.31,-100.56 248.18,-96.83 360.1,14.05 60.07,-25.62 184.99,112.47 -533.1,140.04 -393.76,14.04 -433.17,-15.64zm-1948.01 -124.16c-72.37,229.22 -5.13,177.93 -276.55,114.69 68.81,-120.2 162.2,-154.41 276.55,-114.69zm2157.45 -100.8c-207.47,78.14 -176.17,9.3 -216.59,-19.88 115.21,-110.05 32.78,-206.69 216.59,19.88zm-1686.44 100.8c20.66,-167.05 -18.63,-57.94 94.71,-95.67l-94.71 95.67zm-6724.04 4548.36c-120.71,156.32 12.83,15.43 -208.58,118.06l-85.88 37.41c-12.77,6.22 -28.38,14.41 -40.44,20.59 -8.96,4.6 -16.37,8.59 -22.55,12.06l357.45 -188.12z"/>
  </g>
 </g>
</svg>
