<?xml version="1.0" encoding="UTF-8"?>
<!DOCTYPE svg PUBLIC "-//W3C//DTD SVG 1.1//EN" "http://www.w3.org/Graphics/SVG/1.1/DTD/svg11.dtd">
<!-- Creator: CorelDRAW 2019 (64-Bit) -->
<svg xmlns="http://www.w3.org/2000/svg" xml:space="preserve" width="130px" height="156px" version="1.1" style="shape-rendering:geometricPrecision; text-rendering:geometricPrecision; image-rendering:optimizeQuality; fill-rule:evenodd; clip-rule:evenodd"
viewBox="0 0 18100 21700"
 xmlns:xlink="http://www.w3.org/1999/xlink"
 xmlns:xodm="http://www.corel.com/coreldraw/odm/2003">
 <defs>
  <style type="text/css">
   <![CDATA[
    .fil0 {fill:#fff}
   ]]>
  </style>
 </defs>
 <g id="Слой_x0020_1">
  <metadata id="CorelCorpID_0Corel-Layer"/>
  <g id="_2889959272064">
   <path class="fil0" d="M10064.33 21236.25c66,56.65 49.77,-84.88 54.87,99.16l-148.14 -46.23c-235.63,-47.68 -198.44,3.78 -170.1,-218.88 145.42,52.09 138.02,94.04 263.37,165.95zm-613.17 -11602.16l-0.32 82.59 -77.36 -13.06c-404.3,-144.76 -304.1,-143.91 -420.58,-535.71 -54.68,61.39 -54.55,-61.77 -29.63,131.81 5.39,41.75 27.78,116.66 37.2,173.33 -175.23,-79.84 -112.69,-30.04 -202.37,-440.5 -72.04,10.69 -47.21,17.04 -83.46,43.27l41.86 197.56 -53.31 60.89c-26.15,-165.38 -29.51,-226.03 -112.71,-374.81 -47.23,-76.39 70.45,-43.85 -102.86,-69.44 -29.97,271.66 -15.81,23.89 52.12,132.79l36.48 52.91 -18.13 11.43 -10.14 128.25 -82.69 -68.43 35.27 -48.44 -104.23 -231.34c-76.88,27.84 -66.36,-52.97 -55.86,72.38l-14.33 37.98 77.4 85.75c-120.44,67.96 -48.17,5.6 -45.81,188.68 -82.29,11.84 -216.69,66.15 -216.58,-32.08l-142.64 -431.3c-97.44,38.5 -83.82,9.44 -19.51,159l36.07 167.46c88.34,69.43 52.87,-93.65 77.23,89.94 -121.91,45.26 -51.83,25.17 -93.39,-16.83 -140.89,-50.23 -114.29,-35.89 -183.36,-178.33 -17.64,-101.41 -56.6,-158.77 -98.75,-230.46 -50.72,96.74 -0.69,-9.14 -23.3,105.15 -23.49,118.75 18.19,29.19 -37.18,103.06 -83.92,-71.11 -113.53,-78.19 -214.69,-144.38 -29.15,-19.05 -70.43,-44.85 -100.55,-70.04 -68.36,-57.18 -56.2,-55.67 -68.28,-75.29l-365.17 -186.11c-112.83,124.74 -67.42,203.03 -200,364.37 -86.31,105.01 -159.01,149.99 -245.41,285.92 -2.55,103.2 -29.44,80.27 68.59,80.27l316.58 -150.09c-68,71.04 -129.67,105.37 -172.86,193.79l32.01 35.25c189.49,-58.91 267.12,-125.18 388.02,-239.5l36.01 27.97c-56.99,94.13 -372.03,420.71 -469.88,495.69 -221.73,169.88 -491.31,211.42 -816.6,131.9l-29.8 -445.91 -56.02 -137.81c-114.68,6.44 0.2,-29.88 -98.16,14.52 -6.57,2.94 -26.55,13.48 -32.97,16.62 -6.38,3.11 -18.02,16.59 -28.21,23.3l-41.38 -23.98 -42.14 -18.4c240.23,-170.1 531.15,-316.2 789.44,-476.73 249.51,-155.11 561.71,-366.77 818.18,-473.69 42.77,-60.86 569.34,-369.27 682.79,-441.06 390.29,-246.89 474.02,-179.72 982.43,-172.18 10.81,6.87 26.42,4.76 32.6,20.33 6.06,15.32 24.41,15.07 32.93,18.53 208.47,84.58 -85.07,-22.59 67.98,26.21 33.65,10.73 110.54,24.4 145.46,32.93 85.49,22.59 167.35,65.91 252.85,88.11 34.97,9.07 98.25,18.21 138.89,13.75 114.58,-12.58 21.22,50.82 110.07,-38.86l-21.55 -74.21c24.31,-140.16 53.16,-306.77 33.77,-479.31 -40.66,36.49 -35.45,1.25 -67.53,71.35 -27.61,60.35 -18.24,67.9 -24.59,133.5 -16.07,31.8 -31.32,29.37 -37.44,107.68 -2.57,32.95 5.62,112.75 8.42,145.76l-99.4 -10.99c-72.36,-4.53 -151.79,26.4 -151.79,-75.56 -115.98,-60.89 -68.98,-141.11 -51.59,-314.84 40.47,-404.28 60.64,-293.01 580.5,-579.59 663.04,-365.49 1403.82,-1172.89 1862.44,-1061.21 520.48,126.74 725.37,186.73 1039.54,457.94 72.77,5.7 45.11,17.28 44.96,-72.46l10.48 11.28 -65.08 -116.19c192.01,21.22 53.82,-9.29 106.09,72.32 113.64,110.9 39.36,17.35 57.01,122.89 36.67,27.1 52.88,19.06 97.89,88.3 44,-67.39 5.63,2.36 22.83,-86.65 1.61,-8.29 2.38,-21.78 3.99,-30.41 24.98,-135.99 -21.25,-73.77 43.13,-154.5l79.18 185.47c84.65,-86.16 104.1,179.19 60.71,-165.81 246.56,-15.73 57.57,-24.08 132.43,79.57 10.1,52.78 -37.92,90.89 54.95,88.81 44.54,-1 46.32,50.38 69.43,-67.26 2.97,-15.09 11.2,-20.66 24.08,-34.92l57.01 66.25 127.05 -2.19c83.74,31.61 8.44,-50.39 79.16,42.99l37.93 115.44 74.37 -156.68c149.84,120.95 51.53,61.68 257.79,94.44 97.63,15.5 166.1,33.46 258.88,39.86l212.91 135.41 43.22 46.25c-470.1,286.16 -368.6,288.96 -1013.93,403.67 -336.09,59.77 -224.52,178.89 -491.65,133.49 -83.01,-14.11 -59.71,-68.09 -342.09,124.12 -261.16,703.66 -754.38,329.08 -946.95,692.69 -88.06,15.74 -70.44,39.9 -78.42,-35.58 -14.73,-197.33 0.81,-85.07 -66.51,-124.2 -2.97,8.22 -8.99,19.49 -11.05,23.76l-49.78 101.76c-38.42,84.69 -31.08,53.35 -52.11,141 -237.65,55.63 -59.62,-19.39 -132.55,104.81l-60.35 157.98c-11.25,85.73 6.53,198.44 -78.42,198.44 15.26,304.78 -342.34,741.5 -498.53,991.5 -117.24,187.66 -516.31,762.95 -552.06,882.46l-99.57 -248.67c-93.77,123.97 -18.24,109.48 -146.08,223.05l-18.68 -399.73 -94.85 208.78c-95.68,-86.83 -14.92,63.12 -77.21,-164.18 -23.34,-85.2 2.43,-223.69 -29.82,-34.99l-75.59 87.81 -42.11 -87.81 -2.74 -171.16 -64.69 -206.39 -13.28 245.73zm-6595.07 -6101.73l-74.39 -190.23c-34.69,-351.72 245.05,-386 486.97,-542.77 219.24,-142.04 449.5,-274.36 663.32,-414.04 775.98,-506.96 822.09,-676.82 1338.67,-234.06 38.13,50.34 12.71,-16.71 59.46,89.19 52.48,118.89 3.91,-3.59 26.84,125.06 44.54,77.14 17.63,57.56 72.62,25.82 61.83,-71.31 -74.89,-76.09 72.04,-59.01l28.23 107.01 17.64 321.64c180.53,-86.39 182.96,-223.71 205.32,233.31l73.84 -33.82c70.21,-60.09 -73.88,-52.5 83.59,-49.97 10.62,82.63 1.16,118.15 6.33,166.27 11.93,110.68 -1.53,62.48 42.71,125.27 68.66,-59.5 -100.21,-40.84 92.17,-50.28l-49.45 111.99 -34.8 282.46c108.1,-83.16 63.09,-20.84 118.6,-163.02 64.91,-106.18 -93.55,-41.32 91.59,-89.26 8.61,152.26 27.36,100.16 -49.23,214.86l-31.73 337.76c127.09,-67.99 54.01,14.54 124.14,-147l86.43 -133.94c42.47,54.63 66.8,20.24 49.22,155.43 -23.06,177.16 -48.21,96.74 -72.18,120.96l31.73 145.37 70.41 -89.96c60.51,-74.59 -57.67,-40.51 75.33,-70.4 0.04,0.17 41.37,16.03 -25.19,130.03 -27.48,124.95 -73.36,170.2 -80.95,286.35 -12.49,190.61 62.42,1.83 -0.27,248.38l45.28 118.9c1.74,4.22 8.73,27.67 9.99,22.44 1.21,-5.08 6.8,14.5 8.58,22.24 -57.58,134.19 -5.95,-7.53 -78.39,67 -128.24,223.05 -391.81,350.93 -642.26,506.61 -180.21,112 -494.34,380.37 -697.48,413.68 -37.98,51.8 -11.83,32.74 -63.09,75.38 -69.59,57.86 -33.05,21.02 -101.35,51.61 -284.12,294.03 -471.22,-8.57 -631.86,-244.2l-1348.43 -1993.06zm-358.28 285.35l4.3 -46.06 68.83 -85.6 36.13 146.82 -13.58 122.1 30.2 123.26 77.23 -84.79 -10.22 -22.94 37.15 -110.43c54.74,97.15 36.22,150.12 44.2,293.35 134.27,-156.7 6.31,-33.31 141.14,-109.94l16.58 413 68.3 -171.25c130.05,-11.33 34.9,-19.6 50.7,65.82 113.66,121.1 -38.95,40.68 104.56,239.11l59.16 317.62 143.72 -130.58c8.63,216.42 -92.86,335.2 104.51,297.49l35.97 -83.07 0.51 211.91 -31.16 72.12c-14.84,141.87 -11.61,-52.29 -0.3,94.34 152.39,-30.74 15.33,9.97 77.52,-80.5l62.92 -99.03 39.03 64.26 33.76 281.78c159.85,0.4 15.9,13.37 81.9,-67.69l94.47 -22.87 -59.44 262.78 177.8 43.17c1.18,196.39 -42.6,234.53 -47.54,413.75 -8.9,323.01 -317.04,382.98 -808.24,665.61 -1407.65,809.91 -1177.42,810.93 -2097.54,-791.9l-726.69 -1280.22c140.63,-171.52 1836.17,-1272.35 2017.15,-1291.09l107.88 236.94 79.09 112.73zm5661.51 687.04l1.97 58.1 141.49 -84.69c188.93,-46.93 485.02,-316.53 677.84,-413.21 222.85,48.63 431.23,278.83 605.82,375.91l76.42 100.71c59.51,-103.93 104.52,119.49 48.72,-157.19 -24.03,-119.32 -80.84,-122 -113.84,-154.65 -12.18,-218.58 -439.54,-561.79 -728.87,-403.71 -94.23,51.49 -675.2,554.13 -711.68,615.43 0.34,30.53 0.23,50.78 2.13,63.3zm4357.33 3519.16l37.84 -69.34c-6.04,-86.98 -3.23,-44.98 -35.71,-93.43l-2.13 162.77zm807.19 1494.59l42.62 77.5 57.43 -93.38c23.26,88.6 4.89,69.4 13.82,134.45 8.03,58.35 -17.82,75.01 70.76,207.8 49.36,-57.41 53.83,45.28 92.09,-216.18l37.3 -360.81 94.15 -113.7 6.01 286.14c-96.95,53.61 -71.08,303.95 -51.2,413.68l91.93 -160.98c0.39,-81.5 -8.43,-87.92 9.53,-175.33l65.19 -136c156.64,176.05 8.74,532.63 6.74,808.74 -42.36,74.25 -32.63,-97.45 -41.73,96.04 -6.93,147.52 12.25,88.62 34.99,135.89 113.98,-63.05 78.33,3.72 110.11,-173.63 -7.61,-157.87 50.63,-418.01 136.87,-511.03 100.72,187.82 4.13,534.31 -33.28,762.44 -0.71,65.77 -5.17,146.39 8.92,205.83 28.83,121.59 -66.98,34.1 58.71,92.78 -5.35,-185.65 58.18,-574.65 149.89,-711.63 142.74,143.19 10.86,427.9 11.11,676.29 -2.08,2.8 -62.62,-40.22 -46.68,87.76 22.49,180.67 0.81,53.72 78.68,93.15l81.69 -194.99 42.89 -273.13c92.07,0 51.36,92.45 46.64,182.13 -19.68,172.82 -89.26,340.83 1.26,473.97 95.93,-179.22 25.12,-319.26 186.33,-430.99l-5.72 455.56c-19.72,27.72 -70.63,76.29 -67.29,165.14 8.56,227.35 53.43,118.87 102.32,140.66l46.03 -207.57 0.29 -86.18c8,-11.94 38.07,-55.69 43.35,-59.41 101.45,-71.27 -18.11,-23.57 57.14,-20.26l39.77 205.21c-85.27,50 -74.47,386.84 -65.13,505.3 113.8,-24.62 49.1,19.22 113.46,-73.34l22.15 -266.51c62.41,-57.5 34.1,-21.71 102,-48.41l-12.34 336.18 -61.21 208.51c217.84,-33.29 30.31,11.69 108.04,-87.58l63.27 -229.34 97.97 138.98c-53.82,123.06 -35.31,39.01 -90.34,183.81l18.11 55.65c-112.81,72.08 -63.48,202.3 -8.23,301.91 166.82,-70.45 108.75,-22.13 97.91,-174.35l82.77 -208.66c84.92,180.64 3.45,289.29 36.18,522.41 43.22,89.75 -68.13,72.23 78.21,72.66l23.12 -201.03c24.19,-388.3 78.21,375.93 78.59,384.05l22.75 118c141.25,-64.71 29.52,50.22 134.76,-137.09l75.93 395.48c127.33,35.76 -55.09,60.01 59.88,-17.79 69.68,-47.12 -47.84,6.55 76.87,-70.53 157.51,694.89 185.42,353.59 376.86,796.45 125.65,290.67 281.04,450.12 445.72,720.38 152.28,249.91 310.22,465.65 462.03,703.83 596.09,935.28 570.71,966.95 97.15,1570.43 -355.67,453.24 -1219.21,1106.17 -1732.54,1237.28 -324.27,82.82 -158.34,85.3 -379.95,202.77 -118.69,42.98 -43.09,28.16 -70.76,-19.37l31.54 -31.67c71.19,-109.98 95.17,138.17 53.87,-130.22 -168.38,13.16 -48.25,-10.33 -96.53,62.67l-45.7 -1.15c-40.62,73.55 7.86,48.36 -108.15,98.91 -42.9,172.63 -145.42,239.05 -291.07,333.65l20.93 -124.38 149.78 -270.45c-133.34,23.53 -147.71,88.96 -206.38,217.24 -112.75,172.91 -141.77,334.63 -375.27,375.72l197.16 -476.26c70.31,-76.31 36.3,101.18 63.47,-100.82 -161.9,39.33 -44.49,-6.4 -100.36,88.34 -228.91,150.69 -225.83,618.96 -562.52,736.87l199.48 -629.18c-184.28,126.71 -280.55,457.7 -442.44,628.39l-45.02 -89.42 31.31 -192.57c45.87,-62.98 51.99,101.52 49.21,-131.32 -157.54,67.72 -31.44,-10.19 -94.04,100.58 -213.31,192.49 -120.78,430.96 -464.61,543.6 -3.24,-7.46 -9.82,-27.76 -10.08,-22.19 -0.28,5.32 -6.89,-18.96 -7.04,-22.19 -1.4,-26.32 0.58,-41.02 6.4,-68.47 74.83,-100.27 42.24,130.2 66.79,-126.86 -184.64,23.64 -53.31,-12.14 -105.18,86.43 -122.22,126.97 -87.43,189.55 -266.47,294.96 -96.59,58.84 -31.84,38.05 -62.69,-23.59l112.54 -288.2c-181.75,106.68 -275.68,378.86 -465.87,543.51l-40.9 -50.65 26.61 -111.18c53.34,-48.67 20.64,39.86 86.24,-105.73 33.31,-73.89 7.83,-52.23 10.82,-97.89 -119.93,95.04 -76.97,29.15 -137.83,176.46 -178.36,248.41 -178.64,391.38 -464.88,528.44l22.59 -165.95c62.2,-57.18 50.13,94.23 53.44,-133.77l-105.16 108.96c-46.82,129.01 -300.48,524.98 -390.21,633.44l-43.4 -46.83 56.71 -205.41c60.01,-64.07 62.32,99.98 55.74,-118.72 -166.15,39.44 -36.86,-9.92 -93.41,92.79 -181.44,259.44 -349.61,582.95 -573.78,836.42 -61.24,80.2 90.76,54.5 -103.63,69.95 15.13,-222.81 -6.97,-26.25 53.52,-110.98l29.36 -200.75c32.67,-41.96 12.95,21.72 53.19,-95.21 30.95,-89.85 4.69,2.51 -12.95,-95.19l-81.29 99.95 -256.33 631.1c-440.68,-9.66 -495.9,-331.48 -681.24,-687.09 -660.51,-1267.25 -2317.25,-4222.31 -3066.09,-5349.11l-546.28 -860.4c-116.55,-86.13 -59.05,-27.69 -105.47,-152.05 -95.23,-64.96 -974.57,-1421.29 -1021.8,-1574.91l-10.93 -299.51c-28.06,-9.95 16.24,-122.74 -113.78,60.96l25.67 -233.23c-100.75,-61.33 10.97,-68.38 -135.93,7.8l29.48 102.88 -66.72 -232.91 35.45 123.74 19.3 -123.74 74.46 -269.09c-129.39,56.59 -136.53,73.15 -177.23,218.1l-58.25 89.98 35.05 -318.73 -34.98 -69.82 -74.32 198.81 -76.59 -42.53c-16,-165.4 14.37,-207.22 64.2,-287.06l39.11 -151.96c-160.53,126.71 -81.6,93.59 -171.33,240.11 -70.83,-66.81 -78.14,107.86 -54.65,-133.51l-23.3 -44.23c9.38,-7.51 66.94,-11.06 97.15,-100.06 82.73,-243.67 -5.61,-81.63 -49.25,-130.07l-66.52 208.06c-52.4,29.78 -40.62,28.93 -113.7,23.17 41.9,-271.87 157.36,-288.22 191.4,-509.46 -67.71,31.01 -91.51,61.13 -147.78,111.32 -22.19,148.42 11.92,51.16 -105.75,192.69l-5.28 79.72c-87.74,-118.13 -40.39,-124.72 -96.42,-219.39 -23.53,-39.73 -122.84,-147.48 -147.97,-172.65 44.17,-126.01 112.67,-281.25 270.14,-293.45l-12.48 126.66c-41.18,161.86 -30.53,46.79 30.42,85.27 22.53,-69.56 44.08,-122.51 70.53,-195.21 63.77,-175.28 -17.88,-86.28 86.21,-145.52l114.62 56.82c50.13,-147.22 25.51,-112.79 159.09,-181.96l60.69 264.07c20.02,-125.54 -6.59,-3.91 21.23,-109.45 0.75,-2.85 27.97,-91.23 30.46,-96.44 62.96,-132.32 -6.08,-72.23 130.99,-146.93 65.38,55.1 10.77,-73.86 75.91,80.14l47.33 -37.62c14.01,-119.17 -24.74,-59.03 64.62,-135.92 30.74,42.15 18.73,0.04 42.05,84.65 2.7,9.77 6.53,102.33 7.34,118.72l50.86 80.18c-18.56,-139.3 -11.6,-67.2 51.23,-109.05l-22.43 -70.79 86.56 -197.83c85.43,92.68 35.01,-154.71 72.7,163.01 63.92,-73.93 61.12,-153.81 164.76,-246.76l-9.27 150.88c-78.81,68.32 -48.86,-110.8 -70.42,135.19l70.55 -92.92 117.55 -247.06c57.72,98.39 31.15,151.22 20.16,311.15 26.99,-57.45 9.69,-7.54 85.85,-42.62 7.85,-151.94 23.34,-84.07 76.97,-212.05 96.95,-59.67 -122.42,-92.24 122.63,-38.2l-61.17 62.15 -33.99 233.66 -46.53 257.44c67.89,-71.49 34.52,-36.5 69.21,-104.39l80.26 -155.82c8.34,-300.16 72.13,-274.08 160.05,-305.69l42.93 224.24c-91.38,99.03 -52.1,16.54 -93.44,198.05l-31.55 144.46c58.67,68.07 -15.24,19 97.51,31.01l87.3 -302.71 112.07 -318.13 148.41 -62.46 -68.25 122.66 -54.99 348.82c55.28,-47.04 25.38,-3.57 65.28,-77.89 32.28,-60.13 30.5,-63.17 51.75,-124.24 29.3,-84.16 53.17,-174.35 72.92,-245.94l44.42 -102.57c34.25,50.23 34.12,-19.87 35.5,86.48 2.45,187.86 -5.55,34.24 -47.29,97.18l25.04 67.55c24.31,140.9 -48.07,87.29 63.45,143.17l133.62 -446.12 91.11 -115.87c-1.22,171.33 24.89,69.23 -53.79,161.81l-27.95 226.94c1.41,136.3 -14.13,44.19 48.83,77.14 43.96,-141.78 257.53,-662.32 331.1,-773.39l17.45 53.06c14.32,138.27 -11.56,137.68 -34.08,286.18l73.17 20.28c36.82,-156.2 82.24,-270.09 169.59,-362.66l-217.25 882.35 -31.46 292.85 11.61 1.85 121.33 -259.82c1.64,-162.38 161.06,-685.92 238.72,-864.73 71.19,74.12 49.27,-75.16 40.36,155.37 -0.76,19.68 -28.27,130.45 -34.09,175.24 -17.11,22.97 -34.25,-30.38 -69.45,122.97 -24.62,107.24 2.79,99.65 20.05,142.42 111.11,-66.86 57.13,-14.84 89.06,-135.09l176.07 -421.56c66.32,157.93 -72.93,484.97 -88.4,697.28 36.26,-36.69 52.41,-55.14 89.08,-97.14l169.25 -617.4 508.46 100.69c-29.93,136.59 -107.51,268.71 -81.28,385.9l-96.44 19.72 -0.81 120.53 -24.81 70.49c12.14,89.46 -5.82,30.24 36.03,92.04 114.23,-30.55 38.45,19.17 99.42,-79.87l6.31 -97.52c41.16,-160.72 97.34,-361.88 196.12,-448.94 87.28,134.49 -67.47,403.71 -91.7,557.03 -37.42,58.8 -72.23,-101.88 -35.46,151.03l96.29 -67.96 94.64 -353.92c49.89,-181.32 4.4,-132.18 108.73,-205.45 110.17,113.11 65.96,161.04 -4.08,290.15l-53.89 236.08c223.05,-2.44 30.02,17.41 114.64,-83.9l111.11 -335.11c5.4,9.35 11.99,14.39 14.3,33.52l68.24 242.01c1.61,6.48 3.12,20.81 8.41,29.61l43.45 -113.09c74.87,-55.14 15.91,-43.83 126.36,-22.91l15.89 9.41 8.61 174.67c114.79,-39.58 72.23,-129.05 72.64,-132.62 112.24,45.66 97.42,36.78 189.63,110.34 37.56,30 55.04,51.83 90.3,78.08 79.35,59.03 35.05,33.52 91.09,54.04l-6.28 58.49c12.48,7.27 63.29,25.24 85.88,45.09 90.19,150.22 88.64,139.32 269.46,183.94 7.82,-8.66 21.06,-32.85 24.31,-25.23 33.78,79.39 36.61,-41.26 42.26,-49.22 33.73,-47.7 22.19,-30.2 39.79,-70.93 76.1,-55.01 86.97,-1.15 110.73,-148.54l65.22 17.17c36.11,-93.68 378.16,-592.55 496.28,-773.09 174.12,-266.15 330.88,-518.09 504.85,-808.16l45.7 30.02 -16.88 193.24c-67.76,71.91 -31.88,-111.39 -35.41,45.26 -1.57,70.19 -2.59,37.56 21.62,88.98 168.99,-46.81 19.05,10.67 77.46,-91.79l56.88 -199.01 83.12 -277.7 100.01 205 53.44 -127.49c4.29,-180.16 84.73,-598.43 189.69,-717.74 65.65,118.19 -75.44,405.52 -67.7,581.88 -33.03,37.91 -48.72,-36.83 -89.3,159.3 -33.43,161.36 15.65,121.55 27.62,141.77 89.38,-88.8 54.07,-28.66 94.44,-184.51l215.27 -739.78 25.78 107.81 -74.86 458.26c-37.14,52.26 -64.41,-89.82 -37.74,139.36l89.84 -77.27 144.27 -562.38c62.6,58.59 42,-94.69 67.08,132.03 238.25,84.77 22.51,19.3 102.52,-30.29l27.3 -178.39 33.39 -85.62 63.41 117.57 61.96 -41.41 47.51 68.41c-17.77,155.96 -63.77,305.61 2.28,438.42 91.49,-135.34 79.93,-233.36 113.55,-421.25l42.71 -9.01c86.2,141.72 5.27,491.05 -6.38,692.02 -1.36,2.76 -66.85,-103.12 -25.76,87.43 21.59,99.99 4.7,32.29 48.38,77.82l48.65 -137.94 67.73 -452.75c104.28,60.75 48.83,3.94 77.54,99.27l17.97 250.34 121.29 -105.56c125.75,173.25 -22.51,565.65 23.51,784.51l-31.38 61.13c-47.04,178.73 -38.09,233.59 19.67,346.04 30.2,-49.23 6.73,61.86 46.12,-95.76 12.23,-48.97 9.95,-71.98 13.8,-116 4.7,-207.38 8.42,-585.6 110.05,-742.05 105.73,209.53 29.59,683.06 -9.63,955.26zm-6513.93 -4713.6c51.51,19.03 53.02,7.67 106.37,40.68l54.89 212.66 61.15 -28.66 104.9 -40.81 16.77 267.05c137.49,11.74 98.15,-44.83 154.08,-21.91 0.82,133.27 -14.03,199.92 33.3,301.54l31.17 49.36c4.78,7.74 12.45,17.45 17.49,25.26 5.38,8.31 12.86,18.79 18.28,27.08l105.76 45.85 86.62 -140.08c6.2,12.88 14.71,27.33 18.11,38.87l28.63 124.66c12.84,154.85 -63.22,269.04 39.18,340.61 26.57,-142.14 18.28,-125.33 90.63,-217.9l0.92 235.95c-4.21,180.17 -69.08,189.91 81.05,166.72l61.2 265.28 104.5 -171.9 -1.02 423.52c90.66,-101.03 22.91,-20.51 81.97,-145.59l55.43 -120.67c76.83,132.96 54.12,136.59 42.86,301.33 -15.16,195.57 84.75,-1.35 107.62,-45.31 140.06,146.92 11.9,206.31 313.33,170.99 47.55,-341.5 -402.8,-915.79 -562.54,-1189.35 -751.99,-1287.93 -999.35,-1129.44 277.5,-1904.82 226.75,-137.7 859.88,-614 1087.12,-582.33 102.56,181.87 94.93,262.43 128.37,485.95 122.99,-58.84 70.21,-69.45 163.32,-168.38l-2.4 394.34c127.22,-41.03 42.13,74.02 130.72,-120.29l24.87 99.22 -7.03 424.25c75.04,-84.65 102.37,-96.78 144.82,-226.98 68.17,0 43.03,107.88 45.11,181.85 -9.12,200.16 -82.46,336.01 3.7,512.89 111.87,-95.51 52.27,-58.25 117.95,-196.25l97.68 -162.51c100.8,170.85 -6.97,410.75 -11.23,617.13 104.22,-97.82 101.8,-180.81 183.71,-274.95 74.44,136.83 -9.47,348.95 -8.19,562.73 116.89,-49.19 58.52,18 68.11,-96.21 76.35,-63.41 77.27,-137.19 174.32,-196.22l-29.41 552.78c123.77,-106.35 92.61,-136.68 183.29,-243.05 63.24,73.74 85.99,114.13 89.09,252.19 -546.85,451.26 -1164.98,826.74 -1807.11,1159.65 -1111.65,576.38 -2607.68,1571.43 -3717.46,2193.68l-1809.12 1132.63c-134.9,-141.91 -554.26,-898.48 -691.96,-1126.93 -614.24,-1019.16 -1068.96,-1222.78 -330.18,-1627.74 214.23,-117.43 349.55,-184.38 558.67,-301.7 962.11,-539.8 867.73,-520.37 1125.32,-244.46l31.12 -102.14c-0.15,-0.33 -80.4,-13.45 12.03,-164.56l33.82 103.75 34.77 126.03c119.26,-29.35 1.47,12.27 96.02,-66.26 98.78,-82.05 -47.61,-11.14 64.56,-47.78l14.86 136 104.52 -10.76 86.83 266.33c156.43,-74.08 -39.66,-63.35 74.59,-10.41 11.04,199.32 2.89,275.33 79.87,416.08 156.78,-42.81 26.01,38.47 128.2,-149.89 6.12,7.42 14.28,18.24 17.77,22.71 3.54,4.54 13.34,17.66 17.74,23.23l102.02 119.51c-6.15,104.32 4.31,286.77 -72.55,328.39l36.79 175.8c88.58,-119.96 67.77,-177.39 158.43,-276.07l-43.68 506c137.3,-117.78 62.05,-120.91 171.6,-251.59 95.74,144.16 -4.78,295.02 -5.1,507.14 123.7,-130.81 48.43,-172.41 177.58,-284.27 99.78,141.09 42.26,232.68 21.34,407.8l-1.82 130.85 81.01 -112.77 26.44 -144.33c529.27,266.95 252.02,-168.05 126.79,-378.26 -119.22,-200.09 -244.17,-401.84 -370.37,-622.43 -190.8,-333.49 -648.91,-935.28 -641.34,-1367.51l1993.93 -1292.29zm5330.26 2349.45c-64.43,65.26 -60.45,-93.1 -50.87,100.08l67.79 -37.03c76.99,-64.02 138.96,-146.39 254.62,-195.13l15.21 -253.88 -88.81 -21.76c-9.99,128.07 -2.08,85.36 -78.48,215.29 -31.5,53.61 -21.62,43.96 -66.08,107.37 -33.04,47.14 -46.02,55.35 -63.58,76.31l10.2 8.75zm-8637.68 3211.43c98.49,0 51.47,47.35 50.11,184.36l-48.57 154.17c-65.56,-111.24 -23.54,-182.49 -1.54,-338.53zm4616.31 -718.34l44.7 -116.68c-180.96,34.82 -20.68,-7.82 -93.85,71.17l-126.66 346.04 -65.29 0 19.37 209.45c126.2,-44.58 39.15,16.72 102.35,-98.3l64.28 -138.23 55.1 -273.45zm2905.22 -2254.39c7.95,-86.84 26.57,-68.43 -59.76,-50.78l-48.25 94.31 -37.73 197.94c-27.44,45.67 -62.92,-79.54 -27.3,131.2l113.05 -67.13 59.99 -305.54zm-1057.92 491.35l-31.63 68.98c-9.31,101.52 -10.69,-16.99 1.83,91.79l122.17 -89.05 -8.55 -79.63c55.88,-79.88 39.67,102.14 49.66,-97.65 6.01,-120.25 -6.8,-71.47 -40.92,-139.62 -229.09,-39.34 -24.85,-19.34 -96.98,64.24l4.42 180.94zm447.06 4499.1l13.75 33.92c-168.03,179.15 -431.83,556.93 -598.38,788.37 -209.55,291.16 -375.29,565.95 -558.2,863.16 -193.55,314.5 -996.44,1564.38 -1002.18,1836.48l47.28 31.29c131.49,-330.98 315,-571.42 504.83,-806.4l612.15 -681.77c276.66,-269.13 1087.39,-1188.12 1336.61,-1283.33 21.66,-40.1 19.53,-62.29 70.57,-114.54 70.13,-71.78 -9.82,-0.85 98.61,-60.35 64.15,-146.73 1511.38,-1330.5 1670.51,-1386.3l45.36 -51.64c6.36,-6.25 16.63,-16.41 23.77,-23.06l119.74 -98.1c89.62,-74.59 63.13,-64.56 190.87,-129.99l306.99 -174.05c62.89,-90.66 -25.24,-1.02 93.82,-96.61 2.15,-1.74 75.74,-49.5 78.76,-51.42 58.93,-37.05 117.85,-72.53 169.97,-103.62l125.63 -65.54 47.49 -118.34 -88.07 2.96c-36.73,38.35 -20.3,30.44 -77.36,67.45 -43.85,28.42 -35.88,19.94 -88.06,42.94 -95.51,42.08 -124.71,49.93 -221.41,82.6l-19.05 11.26 -581.82 357.04c-36.8,44.99 -24.91,33.11 -72.02,76.92 -8.73,8.14 -73.52,60.41 -73.55,60.41 -110.24,78.89 -47.1,39.27 -159.15,91.43 -79.24,102.73 -337.83,271.26 -457.59,370.76 -701.59,582.97 -1102.08,900.95 -1741.38,1579.73l-1205.25 1261.99c149.53,-436.57 1191.24,-1863.35 1565.82,-2324.16 98.68,-121.42 196.08,-237.9 292.82,-356.45 126.35,-154.86 219.65,-196.78 269.37,-365.17 129.89,-73.96 194.92,-165.89 275.87,-221.31l242.09 -250.43c31.91,380.88 474.77,278.89 314.98,-291.24 -56.54,-38 -27.42,-27.82 -118.06,-16.34l95.98 -147.27c26.99,-33.52 41.49,-45.38 67.28,-70.64 5.38,-5.29 22.51,-6.76 26.52,-21.98 4.09,-15.53 17.93,-15.11 27.53,-21.81l629.5 -667.52c-147.77,29.9 -350.99,251.38 -455.21,343.8 -133.71,118.55 -257.83,313.61 -427.69,363.52 -49.49,103.88 -9.69,55.99 -95.13,150.8 -33.71,37.39 -48.74,42.93 -88.91,80.51 -126.01,117.96 -85.97,110.35 -253.47,190.08 4.32,97.04 -147.05,220.25 -247.79,277.73 -87.6,135.13 -110.66,107.32 -195.99,285.26l-73.69 -17.66 -842.56 931.43c-571.37,567.77 -2341.49,2736.69 -2386.32,3044.23 119.17,-37.77 131.58,-84.7 203.43,-179.98 738.29,-979.17 1760.68,-2169.19 2560.39,-3029.05zm1.59 -5060.13l75.1 27.76 14.39 -74.51 26.92 -219.6c65.4,102.18 25.37,49.74 54.22,140.21 60.31,189.02 -21.62,65.02 97.7,165.84l16.92 -63.51 -13.52 -296.04c-119.91,-111.05 -118.96,-29.81 -185.45,-164.32 -138.99,-40.22 -86.6,-52.74 -111.04,115.21 -8.33,57.25 19.77,183.79 27.87,246.65l-11.57 35.5 8.46 86.81zm-3278.76 -4089.1l-95.89 -89.38c-40.62,76.76 -26.89,-77.53 -37.56,103.86 -11.61,197.48 1.15,34.27 38.69,101.84 141.95,255.95 619.93,181.98 733.49,-59.35 -245.52,2.91 -508.4,-58.26 -638.73,-56.97zm6671.25 2709.51c-53.66,-47.81 -1.53,-43.9 -150.59,-85.37 -66.93,-18.62 -137.82,-20.56 -205.04,-27.57l-162.95 -18.18 -186.89 -39.91c-506.55,-78.29 -947.61,-185.24 -1389.01,-278.64 -50.91,-36.43 62.88,-10.56 -120.36,-68.77 -65.28,-20.72 -104.45,-19.45 -163.95,-28.56 -224.13,-19.92 -224.71,-113.24 -314.41,-269.43l-627.59 -1053.35c-324.48,-528.25 -380.35,-738.91 -845.32,-1444.8 -299.7,-455.01 -594.85,-926.12 -903.78,-1380.61 -609.47,-896.59 -286.73,-492.35 -1007.68,-1237.49l-294.04 0c-145.63,118.36 -442.25,238.63 -616.96,336.6l-1792.17 1059.4c-390.25,250.7 -795.22,475.26 -1169.95,724.58 -186.1,123.82 -1040.52,683.34 -1163.05,710.7 -74.95,90.45 52.76,-5.93 -105.31,97.04 -78.01,50.8 20.99,-4.19 -118.86,52.14 -48.06,84.05 -1849.9,1220.97 -2246.79,1547.23 -110.92,91.19 -132,190.92 -211.42,324.59l0 707.32c111.17,189.16 171.18,427.58 285.54,628.52l2483.48 4084.88c-117.8,350.36 -485.97,773.35 -441.31,1219.38 327.36,303.53 254.89,43.15 386.94,636.52 267.09,57.56 526.21,-41.56 796.37,-59.39 163.01,512.9 1794.52,2760.01 1854.55,3051.69 106.33,81.76 102.16,88.64 157.66,226.69l2836.85 4555.34c142.17,250.06 288.99,529.95 428.67,823.68 157.32,330.82 212.19,548.85 596.61,638.15l422.51 120.53c6.95,3.91 18.94,13.47 28.29,20.32 836.54,75.2 193.93,195.6 1422.02,-523.58 634.69,-371.7 3581.61,-2323.16 4020.07,-2356.24 78.18,-100.41 17.84,-51.88 159.41,-106.51 270.15,-292.11 1472.48,-516.88 2362.46,-1825.43 80.92,-118.98 136.47,-260.51 225.11,-383.71l0 -363.45 -654.09 -1090.33c-238.91,-355.2 -434.88,-657.18 -652.8,-1030 -220.58,-377.41 -363.51,-732.32 -592.9,-1135.41 -982.09,-1725.68 -1357.55,-2533.27 -2540.68,-4232.71 -114.06,-163.84 -246.49,-332.84 -372.57,-490.5 -109.77,-137.27 -286.88,-322.36 -358.47,-457.53 68.06,-141.8 222.36,-311.33 336.45,-435.79 218.86,-238.75 242.92,-135 599.55,-187.35 371.36,-54.51 856.54,-309.1 969.86,-585.44 -112.06,-179.34 -715.23,-356.39 -963.46,-369.25zm-10734.2 -524.34l130.6 82.17c11.7,-230.08 26.02,-131.05 -87.49,-219.58 8.7,-157.81 -226.7,-545.51 -312.49,-685.43 -134.6,-219.58 -310.31,-503.46 -525.67,-544.87 -200.19,-38.5 -1085.67,623.44 -1262.65,783.18 476.77,83.44 855.74,-538.6 1269.52,-531.25 90.57,83.46 740.89,996.86 788.18,1115.78zm6769.75 2228.37l-66.59 224.56c234.42,27.44 37.03,15.49 119.18,-36.93 26.6,-184.06 104.16,-239.58 -9.2,-398.18 -61.48,100.76 -44.13,59.27 -43.39,210.55zm1607.08 986.72c-5.29,-88.15 19.71,-69.51 -61.81,-69.51l90 -50.08c35.07,228.9 16.84,44.53 -28.19,119.59zm-422.5 -847.91c-101.35,99.1 -57.11,-2.34 -71.5,178.38 187.95,-6.69 21.61,13.82 92.72,-76.82 88.07,-120.25 184.19,-274.53 88.15,-447.84l-72.46 138.02c-24.94,82.99 -28.62,129.23 -36.91,208.26zm-2336.65 -2076.82c-55.85,-56.69 74.25,-66.34 -86.16,-39.02 -32.24,169.16 -54.91,130.79 38.62,248.66 37.76,167.5 113.28,247.13 257.62,310.28 -39.03,-243.75 -123.61,-345.61 -210.08,-519.92zm2633.61 14776.19l47.51 30.42c-75.21,151.77 32.18,64.36 -142.12,131.28 31.46,-146.76 0.47,-85.18 94.61,-161.7zm-3205.72 -11536.9l96 190.97c34.09,-36.11 52.16,65.43 12.66,-93.78 -36.62,-157.33 19.58,-61.8 -78.96,-150.42l-29.7 53.23zm-4653.04 -5876.99l-67.38 89.96c66.06,30.17 34.11,64.97 179.38,33.72 176.44,-37.97 80.5,-45.56 119.94,-77.74 152.98,-94.44 922.63,-581.46 1057.08,-520.6 322.74,332.41 411.42,1127 854.9,1245.14 37.03,-330.59 -493.79,-1373.76 -715.56,-1472.21 -332.8,-147.77 -983.28,420.38 -1428.36,701.73zm1789.57 6221.29c48.94,32.25 76.57,47.4 125.89,85.7 73.06,248.14 93.95,54.34 263.9,120.38l-162.77 86.28c-90.31,52.44 -56.67,-73.2 -73.16,50.89 58.99,58.37 31.54,30.51 84.79,77.38 6.85,6.03 24.49,33.1 29.74,24.74 5.27,-8.39 20.22,16.2 30.4,24.23 -100.52,0 -84.11,-30.14 -84.11,52.93l-1.88 30.78 -175.79 23.2c-97.36,112.7 -775.68,405.13 -925.44,447l-302.29 38.42 -139.42 172.81 -131.8 -105.58c-9.39,187.53 1.94,160.96 -134.57,198.14l13.17 -301.72c231.73,-131.26 503.11,-371.93 784.66,-550.13 235.27,-148.93 572.08,-375.63 798.68,-475.45zm7655.7 10274.37l51.52 33.96c-59.26,63.12 88.9,50.08 -100.07,51.76l48.55 -85.72zm195.47 -91.37c-27.12,-70.74 36.4,-83.49 -63.23,-31.48 69.84,-93.53 -25.39,-43.92 129.92,-75.59 -39.86,212.49 3.7,28.61 -66.69,107.07zm-4946.99 -14971.64c5.8,37.92 30.33,5.25 143.46,-26.59l-143.46 26.59zm2014.89 3629.18c73.68,-94.36 40.68,111.26 56.75,-98.37 15.95,-208.11 -27.99,-114.49 -42.93,-140.66 -37.97,57.44 -87.73,53.55 -13.82,239.03zm-839.75 -605.29l30.01 -357.66c-147.54,10.43 -25.02,-8.89 -57.8,52.2 -7.84,39.99 -33.2,138.77 -30.92,170.89 15.13,212.29 -8.93,63.6 58.71,134.57zm-4494.31 4489.51c-4,-65.64 14.26,-50.99 -48.02,-50.99l48.02 50.99zm4469.9 -2681.53l42.82 251.15c21.11,-23.95 86.15,49.6 50.67,-198.51 -17.3,-120.95 -23.72,-131.27 -102.69,-182.81l-112.79 -17.35 6.19 243.58c-19.94,-22.46 -70.74,-38.24 -91.11,-60.53l36.22 140.25c104.25,-52.51 36.63,-3.68 148.8,-148.46 4.91,-6.34 13.77,-18.94 21.89,-27.32zm2686.83 -2425.59c-44.26,-59.71 -38.05,92.1 -46.92,-123.19 -0.19,-34.6 -6.1,-149.58 -2.14,-175.19 25.72,-165.89 -12.88,-77.68 67.87,-145.78l-90.58 -85.09 -27.59 596.82 99.36 -67.57zm-2326.31 777.68c38.8,-43.09 53.48,-18.18 71.74,-134.54 17.18,-109.45 5.98,-122.24 -28.61,-194.99 -96.04,78.21 -114.74,184.35 -43.13,329.53zm1476.14 344.95c131.37,-112.81 143,-111.45 152.56,-224.36 20,-235.87 13.8,-34.61 -33.16,-115.15 -92.93,118.4 -112.49,177.52 -119.4,339.51zm1251.45 4503.54c156.84,-89.78 247.8,-155.7 329.61,-303.18 -150.13,28.86 -81.92,8.54 -189.4,98.65 -31.31,26.27 -41.42,32.18 -70.95,59.22l-91.13 98.44c-165.85,77.42 -411.04,307.89 -579.25,439.08 -98.01,76.44 -189.55,154.24 -287.88,232.11 -137.32,108.75 -154.05,164.46 -285.31,207.63 -45.08,57.95 -12.94,22.17 -70.13,85.54 -69.46,77.02 45.45,-35.86 -49.69,43.92 -72.94,76.06 -244.25,219.09 -359.86,318.85 -533.84,460.68 -2192.73,1969.23 -2247.46,2426.96l3901.45 -3707.22zm-1646.1 -5217.81c0.44,15.16 0.68,113.7 1.59,116.53 40.43,123.53 -26.3,12.44 59.77,100.46 26.11,-222.62 109.84,-299.48 -47.1,-479.83l-14.26 262.84zm1066.75 12897.87l29.23 -116.87 -109.82 44.4c60.86,-65.57 -87.25,-69.68 131.61,-55.05 -1.62,217.26 -8.91,73.84 -51.02,127.52zm-91.83 -13440.62l102.61 12.73 -11.44 -174c-71.57,-160.03 -48.68,-106.48 -184.21,-151.84l93.04 313.11zm-3627.01 3238.23l25.55 148.45 153.41 -267.92 13.03 -120.88c-14.24,-102.74 18.43,-86.05 -64.96,-86.05l-127.03 326.4zm5402.38 -557.23c1.6,-58.03 8.5,-107.22 -0.23,-163.25 -11.72,-75.23 -17.84,-54.44 -40.12,-90.07l46.47 -310.5c147.93,88.86 70.66,92.66 47.26,270.77 -19.26,146.61 8.76,178.88 -53.38,293.05zm-8607.45 2560.51l-54.75 0 54.75 0zm7171.61 -5114.86l-67.87 184.15 64.84 -5.19c120.31,-179.36 204.12,-102.1 172.88,-415.1l-63.39 -61.77 -106.46 297.91zm357.4 100.57c-71.64,161.46 -64.22,213.58 -237.59,290.07 77.33,67.19 -81.69,74.74 134.62,32.84 2.32,-0.45 134.83,-77.8 137.13,-79.61 142.2,-112.15 123.14,-153.32 121.41,-356.22 -104.34,76.78 -32.88,28.17 -95.16,74.61 -41.62,31.04 -16.22,18.37 -60.41,38.31zm-2371.4 -207.68c5.98,-128.93 43.13,-75.59 70.98,-85.31l-21.7 209c-50.98,-57.25 -62.18,154.03 -49.28,-123.69zm225.41 327.03c-67.4,-65.85 -61.37,-2.34 -83.69,-172.28 -2.91,-22.22 -10.35,-101.31 -6.59,-120.62 31.17,-159.95 -32.58,-54.26 86.43,-132.66 -68.31,-36.05 3.58,-59.11 -215.41,-46.4 -69.05,131.28 -53.7,151.67 -46.15,309.22 9.42,7.5 25.98,3.64 30.71,19.03 13.65,44.34 70.87,-38.82 144.81,198.26 214.58,82.79 24.36,26.91 89.89,-54.55zm1727.33 13047.86c4.96,66 -13.75,56.77 46.6,40.58 -54.29,62.81 84.98,42.83 -101.08,54.6l54.48 -95.18zm617.73 -402.67c32.6,-144.14 27.69,-42.9 -48.26,-77.7 73.25,-74.4 -111.25,-51.67 128.25,-64.47 -48.19,231.96 -19.13,85.09 -79.99,142.17zm-6538.61 -12203.85c170.16,262.63 538.86,325.1 706.26,86.56 -113.92,-59.82 -154.11,-49.92 -290.45,-43.43l-159.36 -69.02 -262.34 -140.26 5.89 166.15zm-2799.21 1187.72c92.32,212.25 403.12,844.96 606.8,409.56 -262.26,-106.88 -178.11,-44.49 -327.91,-273.83 -81.05,-124.1 -179.96,-225.54 -249.17,-336.48 -87.09,97.87 -19.58,-54.54 -48.21,84.8 -3.14,15.26 17.9,111.77 18.49,115.95zm1145.69 -3591.4c94.29,79.31 59.54,94.78 195.3,129.32 180.64,52.63 112.73,45.41 298.66,5.47 103.14,-66.66 193.72,-124.4 249.54,-230.62 -152.33,-11.09 -263.06,14.71 -412.92,-12.12 -119.76,-21.46 -196.6,-73.95 -331.46,-99.07l0.88 207.02zm-1420.92 1338.33c-269.2,-36.39 -520.17,147.16 -852.89,116.55 -110.64,-143.02 -225.87,-294.11 -376.6,-349.34 -41.09,611.95 609.83,794.67 1229.49,232.79zm2618.55 -448.33c293.81,0.57 628.11,-288.46 894.16,-399.44 301.22,96.78 361.37,331.21 650.89,441.25 -28.61,-320.45 -378.37,-806.25 -721.82,-720.1 -48.27,12.1 -804.38,407.97 -823.23,678.29zm-1102.57 1828.53l-26.22 -254.67c-107.32,-366.05 -343.76,-655.2 -777.53,-587.2 -159.68,25.04 -373.8,135.17 -487.4,212.35 -299.35,203.41 -323.87,212.15 -275.99,381.61 613.13,-165.06 667.65,-612.86 1232.02,-65.33 120.29,116.7 167.38,262.38 335.12,313.24zm1498.79 -6169.79c452.73,77.58 995.36,-590.05 1403.49,-689.87 306.2,181.91 516.69,804.69 825.66,977.6 46.57,-362.9 -140.38,-576.13 -298.73,-787.63 -512.59,-684.53 -600.54,-465.68 -1305.34,6.04 -266.35,178.28 -540.67,301.69 -625.08,493.86zm-2033.26 9027.05c-55.8,126.91 82.84,52.61 -111.53,107.24l111.53 -107.24zm-284.94 842.56l1.68 102.18 -125.57 -48.84c-68.04,-81.21 -99.23,-89.05 -99.84,-231l115.06 122.86 90.53 -40.49 18.14 95.29zm6844.66 640.41c40.21,-163.98 -21.18,-40.03 119.71,-97.47 -64.76,141.93 61.95,94.07 -119.71,97.47zm-923.72 8644.49c96.21,210.58 10.05,156.63 0,174.97 -151.22,-206.23 -39.03,-144.48 0,-174.97zm-266.82 -156.81l21.62 101.51 -96.71 -23.75c-5.72,-9.84 -17.48,-35.63 -17.73,-29.18 -0.07,2.36 -40.07,-13.36 14.68,-125.91l78.14 77.33zm-322.12 -223.68l-1.15 107.58c-11.29,-69.66 -22.17,-6.74 1.15,-107.58zm-230.38 -714.27l20.42 136.78c-103.58,-85.87 -87.06,160.41 -63.38,-52.46 14.67,-131.96 -45.87,-12.26 42.96,-84.32zm168.2 -240.61c122.12,80.09 553.79,903.86 587.31,1036.06 56.26,45.47 42.7,-56.87 72.23,140.72 -206.51,11.33 -22.15,15.05 -98.72,-64.84 -106.37,-451.81 -255.97,-219.18 -328.93,-557.33 -10.07,-10.25 -48.31,-42.19 -58.09,-48.7 -9.93,-6.63 -26.57,-17.05 -36.71,-23.64 -10.82,-7.03 -27.1,-15.17 -40.41,-23.15l-25.77 34.65 -70.91 -493.77zm-444.65 35.01l44.9 53.04c13.79,78.07 14.69,-11.72 0.53,103.24l-45.43 -156.28zm444.65 -35.01c-166.71,-47.28 -196.6,-28.12 -200.24,-218.01 139.17,35.88 163.58,73.87 200.24,218.01zm4448.1 -234c20.84,-175.05 7.91,-140.31 186.13,-188.74 -83.12,143.13 -58.05,108.94 -186.13,188.74zm-5090.65 -329.86c96.83,193.86 10.23,113.64 0,137.36 -81.9,-124.67 -59.39,-90.7 0,-137.36zm-258.74 -181.04c146.38,199.28 40.16,124.45 -10.48,172.32 -27.7,-55.67 -39.54,16.71 -27.18,-84.19 11.11,-90.52 -6.45,-39.65 37.66,-88.13zm190.17 -482.36c135.34,59.2 131.3,9.58 137.38,166.27 -162.81,-41.56 -84.54,-32.61 -137.38,-166.27zm-147.04 -296.26c76.82,134.07 87.47,87.04 0,212.76 -12.86,-19.32 -38.47,58.77 -43.87,-85.48 -10.35,-277.18 -20.51,-44.57 43.87,-127.28zm-474.36 84.15c42.57,77.72 33.84,72.23 0,126.31 -67.71,-84.75 -86.31,-38.28 0,-126.31zm258.75 -199.32c56.59,87.17 71.73,-7.99 0,112.51 -28.71,-37.16 -124.43,-5.52 0,-112.51zm-563.03 -29.29c87.79,69.19 107.41,75.22 137.37,184.12 -171.08,-98.93 -58.44,-76.25 -137.37,-184.12zm88.67 -251.43c46.42,101.78 66.47,13.31 0,128.03 -49.94,-61.6 -47.94,-78.61 0,-128.03zm472.35 -60.67l77.37 140.45c-120.53,1.32 -213.69,-0.26 -77.37,-140.45zm-695.44 -82.47c96.04,97.29 48.08,7.31 58.6,161.38l-131.75 -84.58c-30.42,-41.32 -42.68,59.24 -45.44,-132.07 213.31,-8.03 61.41,-4.57 118.59,55.27zm472.56 -211.45c18.96,-20.97 138.23,62.82 69.74,83.52 -1.53,0.45 -158.04,14.05 -69.74,-83.52zm-542.29 -92.87c116.24,39.37 75.02,14.69 112.79,125.78 -202.75,-51.52 -77.73,25.55 -112.79,-125.78zm-397.12 -546.04c6.17,10.71 20.56,14.16 19.98,31.22l-19.98 87.56c-42.3,-85.35 -90.23,-55.73 0,-118.78zm550.37 -114.04c-104.08,67.3 -18.75,42.7 -144.15,21.7 42.26,-30.91 -65.38,-137.4 144.15,-21.7zm-327.09 -523.92c124.97,81.82 125.66,112.83 166.57,231.87 -175.07,-50.85 -154.43,-31.57 -166.57,-231.87zm-697.64 -76.29c82.69,140.1 14,88.94 0,110.81 -39.63,-45.77 -45.43,87.75 -31.85,-44.19 9.08,-88.26 -46.87,-12.04 31.85,-66.62zm407.6 -296.58c154.3,11.25 81.41,-21.23 131.38,139.26 -137.29,-71.43 -49.46,93.99 -131.38,-139.26zm-743.76 -219.69c157.05,67.47 101.08,42.09 135.26,183.89 -178.54,-50.86 -79.18,7.47 -181.26,-98.9 -7.86,-8.23 -21.6,-31.42 -24.11,-24.13l-52.9 -104.86c218.48,-11.9 65.23,2.49 123.01,44zm75.78 -218.43l53.89 88.19 -85.24 -45.72 -99.4 -42.34c8.86,-5.85 21.98,-26.56 25.62,-16.67 3.33,9.06 21.15,-10.2 25.57,-9.86 88.38,6.71 16.32,-8.68 79.56,26.4zm260.38 -258.97c2.57,3.88 110.93,-20.58 0,181.44 -33.02,-61.7 -48.68,86.09 -35.95,-96.69 11.07,-158.79 -13.92,-20.9 35.95,-84.75zm-684.13 -7.83c140.08,66.49 128.15,7.95 116.57,158.52 -165.78,-50.09 -69.96,-28.72 -116.57,-158.52zm471.18 -173.18c28.39,47.85 28.86,7.83 37.94,92.64 5.48,51.17 -1.51,77.74 -5.55,127.67 -127.82,-3.21 -47.38,12.14 -123.82,-52.08 -71.49,-70.34 -57.69,-26.57 -68.96,-157.11l160.39 -11.12zm-433.9 -171.79c141.98,87.94 70.47,-41.37 102.22,187.44 -81.96,-23.11 -101.9,13.62 -141.76,-71.45 -74.95,-159.97 37.5,-113.8 39.54,-115.99zm314.16 -153.44c83.71,65.54 119.01,141.77 152.68,237.12 -141.06,-40.7 -208.19,-56.46 -152.68,-237.12zm-552.49 65.64c59.45,66.54 59.01,-72.72 50.21,124.49 -254.92,74.1 -77.53,9.67 -143,-33.02l12.73 -135.53c151.12,55.63 14.97,-34.37 80.06,44.06zm283.76 -519.49c119.93,317.19 9.03,238.48 -2.3,250.38 -177.52,-213.2 -0.23,-247.3 2.3,-250.38zm-673 91.51c27.19,-8.97 -37.6,-84.2 87.62,-16.2 99.28,53.95 26.04,-17.22 52.17,98.82 -215.03,-28.23 -71.61,-37.7 -139.79,-82.62zm368.85 -240.82c27.76,29.84 43.83,-63.6 47.85,76.4 6.63,230.72 -9.71,71.1 -47.85,122.67 -57.33,-97.89 -85.75,-83.9 0,-199.07zm-258.74 -145.38c10.12,14.4 47.81,4.06 51.43,91.56 11.05,267.45 16.58,46.72 -51.43,126.97 -72.03,-74.08 -145.26,-130.67 0,-218.53zm-301.86 -137.85c84.87,49.7 74.03,-22.74 92.55,96.09 29.4,188.63 -40.26,109.4 -49.42,120.44 -72.77,-35.03 -80.4,18.53 -97.34,-87.86 -29.97,-188.23 45.32,-118.02 54.21,-128.67zm301.86 -184.34c48.87,62.48 76.11,-103.35 54.87,100.98 -13.58,130.38 6.1,25.57 -54.87,84.45 -16.96,-29.89 -39.87,11.27 -33.9,-86.86 4.68,-77.18 7.38,-55.09 33.9,-98.57zm-258.73 -153.41c9.75,11.67 58.47,-25.57 57.75,90.33 -1.29,212.76 5,54.01 -68.42,115.68 -139,-204.43 10.05,-205.37 10.67,-206.01zm-345 -169.03c144.76,35.27 151.73,63.39 86.26,219.56 -115.49,-57.03 -154.5,-59.2 -86.26,-219.56zm345 -161.89c94.91,66.3 142.18,29.46 43.11,187.59 -26.19,-12.86 -52.02,17.92 -71.02,-51.49 -60.54,-221.34 -1.73,-91.36 27.91,-136.1zm-661.79 -15.43c165.99,39.94 168.39,14.56 132.98,195.09l-132.98 -195.09zm359.94 -155.46c69.64,42.81 120.87,31.91 43.11,177.77 -63.81,-39.91 -134.71,-49.04 -43.11,-177.77zm-257.42 -141.44l-38.62 80.69c10.81,-102.29 -27.98,-22.1 38.62,-80.69zm-293.79 -131.69l-9.19 3.83c117.21,81.99 79.68,-51.4 96.77,176.09l-121.27 -87.79 -21.6 -40.19 -66.49 -106.88 121.78 54.94zm530.02 -160.85c140.46,86.1 72.46,-43.91 109.55,155.97 -124.09,-59.99 -75.33,1.97 -109.55,-155.97zm-243.12 -187.52l10.61 -63.07c-2.68,-22.24 -7.67,-58.29 -4.23,-69.51 21.49,-69.85 12.52,-43.49 43.96,-85.62l42.15 165.91 -14.75 128.02c-20.64,70.03 17.81,31.49 -40.64,31.81 -56.1,-61.54 -26.17,2.7 -37.1,-107.54zm-373.29 66.32l29.36 96.65c-219.88,59.78 -22.07,15.27 -109.2,-25.87l-147.27 -116.02c190.46,-51.76 138.11,-86.81 227.11,45.24zm-1059.5 -380.92c-63.56,-54.02 -18.22,4.56 -70.92,-71.26 -54.73,-78.75 -9.22,-12.56 -35.47,-93.82 179.44,23.12 100.54,25.82 147.6,84.19 194.31,336.14 313.78,97.1 215.44,-91.55 -81.67,-156.58 -398.95,-148.82 -582.16,-163.12 3.36,-234.91 200,-617.88 298.21,-821.94l176.26 23.51 49.04 -42.64c-25.19,-181.84 -29.95,-37.22 32.91,-114.45 63.98,75.84 41.73,-133.28 62.51,144.5l23.52 108.39 204.21 15.33c3.72,387.7 -280.42,639.68 -177.58,872.49 138.79,169.86 202.64,-92.05 359.96,248.74 -131,56.86 -300.5,81.18 -459.72,101.89 -207.51,26.99 -222.03,-16.18 -243.81,-200.26zm131.04 -1770.11c-2.06,8.13 -14.49,35.61 -16.32,29.89 -1.79,-5.61 -12.59,18.18 -18.86,27.3 -90.17,-165.17 -64.11,-160.39 4.68,-349.42 49.25,88.53 74.48,119.78 30.5,292.23zm-341.02 -472.77c-71.7,-124.63 -83.88,-263.14 -33.44,-408.47 98.61,130.52 77.97,236.53 33.44,408.47zm-335.31 -566.3c-154.36,-110.45 -111.78,-229.94 -90.15,-459.74 86.94,49.48 122.42,44.15 130.82,217.18 4.4,90.66 -9.46,165.48 -40.67,242.56zm-258.73 -746.18c43.26,61.3 63.9,90.83 60.34,200.07l-47.69 152.98c-2.71,-6.16 -16.12,19.84 -24.05,29.87 -52.18,-138.68 -88.94,-235.69 11.4,-382.92zm-176.5 -315.83c13.8,76.39 30.29,87.96 21,173.26 -27.72,254.91 -0.83,53.19 -66.94,136.87 -24.42,-180.47 -52.01,-182.61 45.94,-310.13zm-215.33 -38.9c40.26,57.16 45.06,-91.45 41.39,129.94 -46.24,-52.8 -42.07,10.84 -41.39,-129.94zm-125.63 -203.54c92.4,163.04 11.05,98.65 0,122.95 -58.96,-54.59 -25.36,25.27 -36.31,-80.16 -18.34,-176.18 -19,10.21 36.31,-42.79zm-160.11 -367.76c74.55,117.67 49.68,65.45 51.62,231.38 -56.18,-63.73 -30.29,6.38 -59.52,-98.85 -15.56,-55.97 0.87,-75.91 7.9,-132.53zm7454.36 -34.78c3.2,69.17 12.98,46.77 -0.92,124.33 -14.9,83.1 -19.39,54.48 -48.76,99.67 -139.21,-104.34 -38.84,-165.8 49.68,-224zm-222.16 77.99c4.23,8 116.49,-66.3 0,116.09 -108.22,-76.68 -44.38,-45.94 0,-116.09zm-7395.47 -62.58c-62.75,-121.78 -30.08,-216.77 21.51,-322.08 9.21,13.77 28.49,20.38 45.02,88.19l-0.46 303.7c-29.29,-28.82 -40.37,-19.94 -66.07,-69.81zm7769.82 -151.56c77.46,-47.44 -93.34,-71.25 100.85,-32.91l-37.56 145.34 -49.53 318.64c-138.09,-109.84 -89.28,-272.77 -13.76,-431.07zm-7877.68 -473.39c37.05,81.39 77.83,14.97 0,150.41 -200.96,-131.66 -5.54,-144.95 0,-150.41zm-301.86 -73.27c-50.75,-66.13 -30.08,13.07 -53.98,-98.89l35.12 -351.35c39.79,50.74 63.43,41.64 68.21,222.34l-49.35 227.9zm-129.37 -254.11c-147.57,-34.2 -18.62,137.43 -30.23,-85.38 -0.98,-18.41 21.04,-17.01 30.23,-26.87 34.31,88.57 44.27,21.45 0,112.25zm-43.13 -473.98c133.26,123.63 117.84,78.9 0,183.95 -67.18,-101.13 -62.95,-88.93 0,-183.95zm-120.49 186.63c-88.72,-141.33 -97.08,-296.23 -19.19,-492.92l19.19 492.92zm-267.6 -956.04c159.07,241.2 14.79,176.32 0,195.11 -24.95,-52.2 -64.51,-42.75 0,-195.11zm6295.91 -511.21c-65.45,-98.91 -69.02,-64.66 44.39,-156.88 -3.12,144.36 33.65,56.1 -44.39,156.88zm6.34 -440.76c-30.29,158.96 30.61,78.54 -90.89,166.27 22.29,-112.26 9.92,-44.98 42.04,-107.79l48.85 -58.48zm1235.4 -3552.19c5.36,6.8 44.58,51.48 62.46,69.34 5.21,5.19 23.59,31.63 27.69,23.47 4.3,-8.55 19.96,15.62 29.83,23.57 69,-74.91 -48.57,19.15 68.6,-46.68l-0.15 106.16c2.55,4.02 68.63,79.39 71.06,81.46 6.1,5.23 28.06,24.84 32.92,16.3 5.02,-8.86 24.03,7.97 35.99,12.12l36.44 262.35c92.23,-44.02 65.96,-59.88 117.59,-40.05 38.32,173.29 -14.26,157.62 116.15,210.32 6.54,9.31 14.52,21.76 17.56,29.27l101.22 251.27c36.35,-108.11 -97.04,-38.02 49.91,-84.64 33.69,133.51 5.68,103.62 20.03,199.22 27.86,185.51 7.92,76.74 56.79,146.48l-13.24 -50.53c71.12,-87.85 -105.96,-43.66 102.69,-76.8l-70.55 181.04 21.96 81.95c-20.73,142.23 -75.19,156.79 49.15,156.79l65.76 -87.32 -22.63 309.07c138.59,-56.33 77.18,2.34 159.19,-119.27 61.88,-81.63 -74.36,-41.86 78.44,-73.1 9.22,227.27 13.34,48.21 -49.39,120.37 -7.41,173.14 -73.16,315.27 -1.86,432.03l85.26 -216.67 99.29 -126.4c3.25,90.39 15.71,295.9 -65.75,330.61l39.3 164.79 149.18 -178.71c-3.67,373.46 -203.47,424.31 -439.99,588.45l-1214.77 770.99c-607.37,369.27 -739.99,-167.82 -1445.25,-1231.65 -144.63,-218.17 -275.89,-394.16 -416.1,-576.27 -167.15,-217.12 -332.74,-328.27 -270.9,-719.65 185.64,-187.46 1690.85,-1031.15 2023.06,-1169.85 109.79,69.26 82.9,57.74 126.92,183.68 181.28,-75.31 -0.27,-32.54 159.28,-82.98l6.86 129.47z"/>
  </g>
 </g>
</svg>
