<?xml version="1.0" encoding="UTF-8"?>
<!DOCTYPE svg PUBLIC "-//W3C//DTD SVG 1.1//EN" "http://www.w3.org/Graphics/SVG/1.1/DTD/svg11.dtd">
<!-- Creator: CorelDRAW 2019 (64-Bit) -->
<svg xmlns="http://www.w3.org/2000/svg" xml:space="preserve" width="155px" height="100px" version="1.1" style="shape-rendering:geometricPrecision; text-rendering:geometricPrecision; image-rendering:optimizeQuality; fill-rule:evenodd; clip-rule:evenodd"
viewBox="0 0 17200 11100"
 xmlns:xlink="http://www.w3.org/1999/xlink"
 xmlns:xodm="http://www.corel.com/coreldraw/odm/2003">
 <defs>
  <style type="text/css">
   <![CDATA[
    .fil0 {fill:#fff}
   ]]>
  </style>
 </defs>
 <g id="Слой_x0020_1">
  <metadata id="CorelCorpID_0Corel-Layer"/>
  <path class="fil0" d="M8338.95 10885.7c27.25,-298.16 45.28,-122.16 151.65,-267.86 2.87,34.4 34.4,89.26 -61.11,193.9 -8.27,9.06 -16.54,15.79 -25.1,24.06 -9.74,9.4 -22.47,16.58 -31.19,24.28 -9.44,8.32 -22.83,17.08 -34.25,25.62zm2157.44 -6781.15c-1.13,5.02 8.9,38.12 14.44,48.68 5.31,-8.58 17.58,-19.04 19.15,-23.47l-13.61 -67.77 -19.98 42.56zm2370.9 735.15l-42.86 72.69 -70.89 -52.97c15.53,-95.85 150.76,-348.76 201.81,-458.52 73.76,-158.59 167.54,-293.46 195.44,-498.96l65.77 -126.65c91.86,37.35 71.25,-81.93 69.81,103.85 -62.5,145.31 -147.15,335.09 -220.52,490.12 -53.45,112.93 -172.48,350.84 -198.56,470.44zm-8175.36 -2019.59c7.13,79.41 45.58,17.8 46.49,11.19 14.46,-105.58 -48.03,-28.29 -46.49,-11.19zm8541.14 2554.74l9.02 24.82 -187.59 7.64c-105.41,-104.59 -49.07,-81.07 9.02,-118.79 122.71,16 102.83,6.28 169.55,86.33zm-6122.29 -1945.33c95.88,92.95 -65.17,20.24 62.52,36.38 162.73,20.58 -18.14,26.49 39.82,-49.88l-102.34 13.5zm2250.74 364.14c-149.28,-40.1 -24.12,53.92 2.89,54.94l4.66 -50.8c-0.26,-0.55 -7.25,-4.06 -7.55,-4.14zm-2360.96 -77.35c-1.27,58.74 85.62,-1.45 50.44,-22.17 -123.03,-72.47 -48.56,-65.4 -50.44,22.17zm6174.07 -2365.96c-3.2,86.31 106.04,-14.07 47.99,-21.4 -138.99,-17.56 -46.9,-8.09 -47.99,21.4zm-4504.87 1720.69c70.66,47.47 20.69,36.23 99.4,0 -50.65,-39.5 -57.16,-41.8 -99.4,0zm-5747.37 5772.3c-75.86,18.46 -43.14,-60.34 -69.72,62.68 132.39,-24.1 43.87,-4.07 69.72,-62.68 98.49,-14.13 79.86,-17.17 118.78,-111.24 139.12,-56.86 65.49,-26.92 92.6,-108.94 151.74,-9.78 237.2,-15.11 356.61,-111.77 57.11,40.64 103.2,-37.05 31.02,74.82 -1.12,1.75 -85.3,56.49 -88.18,58.28 -73.53,45.65 -102.67,64.22 -199.81,94.68l11.17 102.11c-112.79,49.72 -50.21,-42.7 -105.62,119.93 12.74,-5.14 31.68,-24.44 38.21,-15.43 6.12,8.44 26.89,-11.35 34.44,-17.42 86.75,-69.78 24.81,-16.08 65.75,-70.45 138.81,-60.42 239.11,-159.79 411.93,-198.75 47.93,84.6 79.81,37.4 -122.03,193.19 -3.39,2.61 -86.25,75.94 -95.34,88.68 -3.87,5.4 -9.54,15.03 -12.73,20.54 -3.1,5.32 -7.91,15.77 -10.36,20.99 -11.7,24.95 -12.13,47.05 -16.71,61.93l380.32 -130.24 -200.06 224.9c-36.21,52.63 -27.91,30.81 -62.97,118.76 121,-62.49 34.23,-12.23 126.68,-89.05 91.41,-75.95 194.23,-164.11 264.22,-260.77l1.74 3.05 38.93 -67.49c160.07,-75.86 181.64,-137.89 315.51,-59.91l-191.1 206.21c-137.87,47.51 -207.17,138.62 -354.27,312.6 166.19,-9.49 260.72,-123.25 325.6,-259.89l81.64 -15.93 132.48 42.72 -181.44 212.45c-39.21,45.36 -44.09,38.46 -81.74,91.56 111.8,-32.14 12.3,14.95 120.94,-52.9 105.4,-65.85 45.15,-32.42 100.68,-77.5l174.66 -192.7c117.5,-74.23 150.08,-134.44 319.26,-160.7 -66.73,140.84 -79.75,124.99 -203.28,248.69 -85.26,85.36 -156.39,133.35 -221.25,241.19 90.52,-46.29 108.86,-66.13 198.25,-120.29 114.29,-69.23 95.16,-72.72 244.85,-91.93 31.34,53.67 35.67,-22.92 -6.42,41.39l-106.56 111.27c-36.1,43.21 -94.69,122.58 -118.57,198.03 59.89,-33.39 353.81,-226.48 373.69,-315.7 3.17,-14.23 10.18,-17.53 15.3,-26.28l29.99 -64.45 148.03 6.65 84.54 53.22c-59.29,142.79 -55.06,55.08 -128.24,201.5 -87.26,42.81 -159.07,144.03 -208.52,255.33 131.1,-77.27 165.04,-119.39 270.16,-234 118.63,-86.92 97.83,-111.92 239.06,-109.45 36.47,12.47 54.58,22.56 63.19,23.89l-21.73 79.41c-155.87,57.12 -282.51,218.39 -325.55,356.65 139.11,-67.57 298.66,-217.92 325.55,-356.65 216.83,-19.04 48.7,48.25 314.63,-13.55 -77.21,120.12 -167.65,185.12 -233.26,330.47 132.1,-66.03 270.7,-188.42 347.69,-319.63 68.32,-58.02 99.38,-74.77 174.97,-127.73 26.9,-5.62 132.94,-34.05 146.12,-33.06 128.92,9.74 43.53,-25.79 106.99,60.09 -60.52,71.79 -98.57,82.12 -182.18,97.5l-18.88 89.64 -19.28 61.31c-151.3,56.29 -188.15,120.44 -198.79,234.12 144.2,-62.81 220.45,-148.21 286.24,-275.03 121.12,-68.99 124.74,-91.27 288.15,-123.02 -56.95,138.68 -22.57,105.99 -174.39,173.75l-91.79 6.27c-10.07,251.48 -124,192.17 -230.98,413.78 137.28,-61.83 271.25,-202.02 346.03,-336.92 118.09,-59.3 139.47,-106.32 280.71,-114.22l78.86 73.6c-54.68,83.02 39.18,-2.31 -74.91,86.84 -10.45,8.17 -54.17,23.66 -69.04,28.92l8.72 116.55c-91.41,35.57 -86.45,33.54 -151.83,110.65 -129.41,152.62 -43.74,123.58 -43.14,125.11 139.78,-66.7 173.9,-131.45 194.97,-235.76 149.89,-70.22 33.29,-76.14 209.13,-115.84l107.42 72.8 -13.52 138.6c-109.37,20.11 -185.73,114.23 -220.23,226.31 165.34,-105.63 184.96,-111.12 220.23,-226.31l115.57 -52.25 282.81 -271.45c71.46,18.92 142.92,-19.37 109.78,82.05 -21.02,64.33 -44.52,-37.87 -69.11,141.62 -73.11,21.77 -15.92,-75.86 -85.91,35.28l-18.41 72.8 -74.66 34.89 -31.84 68.24c-77.66,31.8 -37.73,-29.71 -79.75,42.55l-27.97 56.07c-133.21,47.43 -51.86,-35.97 -133.29,123.3 86.11,-41.37 19.13,10.04 85.43,-45.4 75.19,-62.87 7.55,11.04 47.86,-77.9 70.95,-15.34 101.13,-1.81 107.72,-98.62 75.89,-21.86 89.06,-9.37 106.5,-103.13 89.6,-16.85 113.63,1.83 104.32,-108.08 222.1,-32.87 47.27,-93.43 324.58,-120.48l2.86 -155.38c110.16,-67.5 189.48,-107.53 353,-121.18l-36.15 66.01c-107.19,181.62 -293.43,273.26 -334.11,426.51 -94.28,21.55 -85.9,2.89 -102.9,106.31 -105.72,41.39 -57.89,-12.76 -122.53,130.97 152.43,-82.63 88.91,-32.9 122.53,-130.97l62.82 -37.85c71.74,-28.39 38.25,14.02 40.08,-68.46 130.18,-36.23 120.73,-81.08 218.48,-174.35l204.55 -178.55c5.72,-16.7 22.04,-11.97 35.3,-17.38l-18.96 169.07 -17.97 51.95c-58.04,14.66 -5.36,-25.85 -63.74,43.2 -43.82,51.82 -12.08,31.6 -56.67,85.18 -112.41,135.11 -222.43,142.09 -362.73,389.91 189.32,-10.62 84,7.95 181.56,-107.16 103.04,-121.57 306.7,-363.26 427.85,-396.87l29.56 38.6 71.2 69.72c-49.7,127.27 -18.27,197.32 -104.79,243.85 -24.31,315.42 -16.04,425.33 -4.4,734.18 -300.54,4.41 -377.04,-48.26 -638.71,-93.04 -43.17,-66.3 -110.22,-79.72 -204.72,-102.88l-425.61 -139.2 -123.28 -75.01 -2055.04 -377.7c-178.08,-58.75 -260.41,-108.05 -422.61,-182.8 -148.92,-68.63 -301.03,-94.23 -457.21,-155.78 -198.86,-78.37 -657.72,-366.01 -826.74,-347.47l-38.1 94.66c-354.48,12.76 -340.86,-68.58 -479.8,-29.16 68.84,-190.19 -74.4,-36.79 83.02,-96.26 19.38,-7.32 122.14,0.47 145.21,4.91 180.73,34.77 111.5,72.31 289.67,25.85 -23.45,-65.54 66.38,-33.64 -108.42,-71.71 -35.95,-7.83 -99.16,-8.58 -129.61,-11.16 -112.75,-9.54 -224.58,-18.83 -337.46,-25.1 -139.06,-38.3 -275.52,-137.49 -388.35,-199.41 9.8,-9.52 24.45,-37.25 29.21,-28.73 4.28,7.65 20.43,-20.64 25.68,-26.43 13.59,-15 45.91,-54.37 46.35,-54.97l7.56 -120.08c67.44,-54.44 21.36,-27.34 95.49,-61.72l147.88 -24.95 72.15 108.72c119.59,-107.34 206.8,-192.94 375.07,-251.23 -45.73,87.48 -6.38,32.51 -84.02,120.75 -39.81,45.25 -40.38,35.09 -86.33,82.34 -95.44,60.8 -51.43,-2.68 -100.31,136.17 92.97,-44.31 95.36,-25.57 132.84,-120.04 96.59,-40.07 96.26,-58.96 197.36,-103.84 17.8,-7.9 94.33,-33.28 110.29,-34.03 124.29,-5.8 20.64,-77.03 116.91,31.23 -119.51,12.93 -51.1,-14.91 -79.7,55.33l-39.08 55.91zm4512.1 -897.16l-43.79 -55.52c30.71,-61.93 1.02,-55.48 41.64,-104.05 124.9,-86.59 219.52,-182.15 397.23,-238.5l75.61 21.36c-107.17,256.29 288.31,383.91 552.49,73.02 242.64,-285.52 111.06,-415.02 624.79,-408.58 94.25,110.99 36.63,132.88 188.67,207.31 46.69,90.07 159.38,119.82 277.7,120.69 183.97,1.37 234.53,-64.93 315.28,-153.27l-100.72 -187.54c-94.02,-48.92 -58.21,53.38 -89.72,-80.32l96.97 -24.44c382.29,40.11 668.17,-81 793.37,77.03 -95.96,113.81 -98.64,145.7 -237.75,238.99 -409.82,274.84 -610.14,272.26 -1078.91,420.14 -849.03,267.83 -1639.6,45.44 -1812.86,93.68zm7412.35 -4946.83c4.84,153.89 50.22,18.09 54.32,4.93 0.33,-1.07 -13.95,-9.84 -16.12,-10.77 -3.54,-1.48 -41.14,-87.62 -38.2,5.84zm-12255.97 3260.8l-57.84 30.17c9.16,77.28 -3.66,47.39 29.88,102.49 240.18,30.23 -10.3,54.86 244.68,75.24 131.41,10.49 135.67,-14.79 284.96,23.3l154.14 363.49c169.5,13.25 199.54,-1.15 370.69,24.76 123.6,18.71 64.7,-11.07 135.23,-14.84 201.31,-10.76 92.71,-33.61 153.96,66.19l244.11 1.58 4.5 89.07c38.71,-5.65 44.92,-13.26 87.53,-7.91 94.76,11.89 28.37,3.85 69.66,36.47 -102.33,78.55 -80.29,67.59 -216.61,73.07l-111.16 -41c-3.08,-16.42 -19.8,-15.15 -28.38,-24.11 -195.22,49.62 -408.61,73.43 -570.35,-25.4 -56.71,20.77 -42.48,30.59 -42.48,-29.87 -331.32,31.23 -1084.88,-424.45 -1251.44,-659.05 -48.12,-114.65 -8.54,-51.3 -81.55,-102.79 -217,-123 -208.19,-343.38 -169.34,-577.03l149.25 85.43c138.71,151.28 -92.19,104.87 279.47,96.52 -81.69,-110.65 -62.96,-85.06 -154.37,-115.55 83.32,-32.73 -115.47,-71.46 136.77,-6.77l55.03 41.3c153.88,-34.87 161.64,-57.12 353.56,-32.6l-87.29 83.4 253.57 -40.83c-88.8,160.62 -94,98.01 -242.8,174.66l-90.27 28.97c148.98,-7.81 120.51,-43.22 306.42,-37.62l-105.29 105.79 133.68 -6.06c174.8,-134.05 139.91,6.97 302.93,-106.31 81.05,76.19 31.68,89.32 166.4,128.69 -4.75,8.37 -20.38,51.47 -21.45,58.68l-13.39 122.7 -264.21 -100.83c70.63,-97.98 -34.74,-71.23 120.44,-71.43l-178.51 -14.25c-50.06,29.85 39.12,-6.11 -82.75,42.46 -16.7,6.64 -71.55,21.78 -97.31,33.21 -76.75,34.07 -117.68,65.17 -170.07,126.61zm8170.23 -4443.78c11.25,135.87 64.39,42.35 53.53,9.49 -24.48,-74.01 -55.59,-34.47 -53.53,-9.49zm-3184.24 2542.02c39.39,-82.5 38.57,-17.96 -0.82,-93.94 -110.09,92.97 -2.7,89.68 0.82,93.94zm6211.57 -3509.91c47.92,51.52 -99.9,52.3 40.01,35.83 115.56,-13.6 -8.37,32.68 67.24,-35.83 -85.8,-35.72 -18.01,-45.56 -107.25,0zm-12265.19 3139.55l-57.75 -92.48c40.82,-52.27 11.1,-42.54 43.36,-107.36 159.15,-60.61 325.13,-193.35 559.3,-272.71 174.15,-59.02 451.23,-137.13 637.29,-168.13 81.57,-19.08 190.36,-10.7 208.8,-103.34 175.89,-27.86 475.44,-200.01 678.55,-283.78 1196.98,-493.74 1685.25,-563 2818.34,-915.42 222.97,-69.34 440.12,-195.48 636.76,-292.11 709.74,-348.81 1153.67,-148.47 1374.84,-489.99 188.89,-291.68 2.99,-299.18 359.24,-607.47 107.42,-92.96 127.72,-161.67 247.64,-224.4 418.68,-219.05 1500.67,-247.01 2006.56,-319.39 1038.73,-148.62 2604.32,535.74 3120.62,560.7 40.58,62.42 -63.35,37.43 73.72,53.78 195.04,28.21 811.04,253.48 987.91,368.2 170.54,110.63 188.3,172.89 400.27,284.54 113.33,59.7 326.16,160.38 384.99,254.3 143.58,229.26 221.37,846.33 29.65,1110.03 -196.24,269.92 -568.3,356.49 -932.5,395.9 -53.51,6.4 -108.59,9.16 -158.31,22.65l-129.21 61.93c-353.97,-70.26 -2081.82,562.75 -2424.91,714.88 -367.57,162.98 -698.48,339.88 -1078.1,500 -310.54,130.97 -845.28,215.67 -1146.21,392.61 -170.22,100.09 -314,226.78 -478.69,307.19l-1268.24 314.64c-479.89,70.94 -316.03,69.74 -601.23,147.47 -377.67,102.92 -929.49,-221.47 -1250.3,-300.2 -442.83,-108.69 -889.78,-25.37 -1271.14,-250.19 -13.44,-200.63 82.04,-204.74 -96.57,-245.91l-18.71 170.29 -288.01 5.73c-55.38,-71.91 -49.74,-48.31 -177.92,-54.88 -250.33,-47.23 -410.16,-213.64 -592.82,-254.2 -364.63,-80.98 -352.12,56.1 -775.02,-129.39 -570.16,-250.08 -670.48,-320.7 -1404.24,-390.41 -72.39,-35.28 -326.23,-119.86 -403.82,-146.5l-14.14 -16.58zm7216.36 -2852.77c149.18,79.15 64.29,15.08 109.83,0 -95.45,-83.03 -73.43,-41.09 -109.83,0zm6903.03 498.64c91.77,-116.26 30.53,-64.51 0,-109.11 -73.16,94.81 -21.24,91.21 0,109.11zm-4323.7 5820.42l85.44 14.99 12.72 -133.82c97.73,-5.35 110.2,-34.8 94.7,50.62l128.41 -26.37 39.94 -130.9 -124.17 51.63c-42.44,-52.63 -44.21,72.88 -32.26,-80.28 144.31,-148.51 192.83,-52.75 209.82,29.11 -28.19,69.62 13.61,20.9 -45.56,98.27 108.81,-35.17 69.76,-28.07 161.33,-79.2 -77.47,-163.1 50.2,-32.45 -98.89,-57.62 58.91,-89.97 62.72,-68.27 163.17,-122.6l126.43 -67.26c118.86,-49.52 -143.6,59.52 50.89,-17.96 8.78,-3.49 17.64,-6.8 26.84,-10.48 120.99,-48.52 203.8,-120.94 277.33,-3.17l0.74 34.95c-115.63,17.05 -48.45,-19.49 -78.45,60.99 -67.31,29.13 -14.41,-10.84 -33.54,68.6 105.11,-44.91 84.37,-27.92 111.99,-129.59 149.74,-38.54 15.06,-39.22 172.58,-124.47l673.88 -218c275.45,-101.92 598.35,-240.15 789.86,-410.49 142.89,-0.05 112.4,19.77 218.5,-49.6 95.19,-62.25 83.73,-24.91 141.52,-151.62 104.76,8.53 209.91,118.92 308.3,185.48 133.58,90.37 216.7,131.76 188.33,312.76 -157.12,50.89 -267.07,-143.23 -467.19,-182.77 -38.76,-71.88 -0.16,-29.51 -9.46,-103.7l-24.19 -64.49c-93.19,72.12 -108.33,32.72 -178.11,149.18 -115.85,93.02 -208.07,134.14 -284.23,342.02 -43.93,119.9 -49.42,119.54 -148.08,173.97 -70.65,38.96 -147.81,73.82 -208.66,99.47l122.1 52.15 194.35 -99.68c-4.05,138.63 -29.65,140.75 -158.26,226.75 -405.15,270.92 -933.95,386.2 -1400.96,535.82 -180.09,57.69 -411.96,181.11 -555.03,218.17l-341.6 -348.16c-83.72,-32.47 -205.14,-52.15 -110.53,-92.7zm-2487.68 -5745.49c100.26,51.15 28.48,39.8 124.52,0 -92.68,-97.84 169.24,-78.31 -52.2,-47.73 -138.88,19.19 20.05,-58.46 -72.32,47.73zm-531.22 4861.93l-3.99 -0.66c38.76,-147.43 -3.32,-47.59 86.53,-162.51l88.53 -30.3c24.83,23.76 123.27,-11.67 -38.65,162.45 -3.82,4.1 -15.58,25.74 -18.41,19.7 -2.9,-6.16 -12.78,13.13 -18.93,23.44l-95.08 -12.12zm-65.51 -99.6l-43.86 120.67 -11.28 17.76 -106.27 80.75 -90.29 -4.45c31.76,-96.09 87.99,-146.24 134.29,-199.04l117.41 -15.69zm-3285.32 2640.42l21.59 -48.3 106.38 11.02 20.06 43.93 -148.03 -6.65zm21.59 -48.3l-44.78 -152.67c-98.44,6.09 -47.14,-56.7 -73.77,39.27 -75.64,41.32 -55.21,6.55 -118.1,92.64l45.54 22.26 191.11 -1.5zm9775.31 -3878.89l67.57 -39.44 28.69 -74.11c106.43,-4.13 90.36,-17.59 117.97,-92.31l125.38 -50.57c5.08,-11.79 14.65,-13.46 29.78,-14.49l-66.5 -80.99 84.29 102.66 -4.89 -5.96 -65.59 200.04 -14.21 59.38 -57.73 -101.05 -149.77 150.14 -58.82 49.15c-38.44,-50.71 -25.44,68.12 -44.51,-97.58 16.82,-108.63 -0.58,-93.8 104.6,-118.42 28.2,-73.1 9.28,-93.4 117.97,-92.31l65.85 -167.93 -163.85 25.12c-20.18,29.8 43.51,15.74 -81.53,43.05l-51.31 -5.91 -7.27 -40.59c-199.97,94.66 -207.35,124.48 -318.98,304.75l94.28 49.05c-4.4,3.15 -11.04,3.14 -13,9.7 -2.43,8.1 -13.37,9.08 -16.78,11.02l-79.61 43.03c78.89,139.37 -32.8,92.45 136,194.94 102.07,61.99 152.06,30.23 225.39,27.92 92.46,0 68.42,22.61 68.42,-71.52 -129.4,-170.76 -91.45,-18.89 -71.84,-216.77zm-4521.1 1729.5l139.81 -60.29 79.96 -55.97 161.92 -11.16 -16.21 115.62c-174.9,68 -179.3,113.62 -437.8,99.7l72.32 -87.9zm41.79 -121.39l-41.79 121.39c-145.76,34.2 -16.96,16.24 -168.94,67.42 -142.3,47.91 -141.42,62.57 -178.48,-15.95 91.49,-53.82 230.72,-149.61 389.21,-172.86zm-1165.38 -6072.52c141.89,-8.68 99.42,0.68 52.75,-91.74 -55.81,33.51 -43.77,-50.93 -52.75,91.74zm-8768.28 7202.84l65.35 77.72c372.93,321.4 773.62,365.62 1299.32,254.43 75.71,120.95 136.47,262.37 131.52,404.07 -13.53,387.38 -217.22,454.15 137.81,664.55 300.18,177.88 597.51,197.56 947.97,214.06 367.84,17.33 1166.65,538.4 2219.82,775.93 218.36,49.24 453.85,56.08 656.64,89.62 219.76,36.33 390.84,175.46 633.19,158.39 7.92,6.52 19.42,6.7 23.96,19.32l103.73 46.51c61.05,16.62 135.38,26.11 199.73,37.48l604.38 236.47c-36.25,68.4 -47.3,54.59 29.32,44.05 655.7,23.78 596.18,239.08 1496.08,-39.22 212.98,-65.86 482.87,-116.43 657.86,-205.4 186.39,-94.77 351.35,-261.69 531.45,-327.85 421.45,-154.84 1832.76,-1068.85 2271.7,-1208.55 822.77,-261.85 577.24,-237.16 1219.86,-503.87 213.19,-88.47 488.16,-109.77 659.73,-194.89 204.82,-101.61 360.24,-187.17 592.02,-270.4 344.4,-123.66 1174.31,-165.73 1336.13,-386.87 53.32,-72.88 150.33,-555.62 177.35,-677.09 72.26,-324.81 3.37,-589.51 39.55,-860.27 444.98,-150.8 329.19,139.1 493.85,120.78 166.28,-83.18 227.72,-219.82 231.25,-419.69 4.91,-279.41 -27.41,-453.19 -205.29,-470.48 -44.1,-78.18 -122.16,-59.38 -239.73,-67.99l269.83 -626.85c99.07,-260.66 215.76,-294.25 262.74,-624.44 -163.95,-112.79 -284.58,-71.96 -394.77,22.9 -278.16,-5.86 -380.97,60.83 -638.16,-58.75 44.28,-177.8 195.27,-276.6 172.2,-477.45 -62.59,-544.86 270.82,-970.99 -50.54,-1618.83 -70.11,-141.34 -41.81,-178.78 -93.6,-303.01 -157.69,-378.24 -401.63,-530.91 -766.42,-703.27 -220.25,-104.08 -820,-383.81 -1035.22,-422.83l-167.71 -61.27c-556.74,-73.43 -1678.82,-493.89 -2577.8,-548.88 -371.11,-22.71 -1792.32,66.69 -2193.21,153.9 -228.23,49.64 -385.76,127.06 -595.88,184.81 -51.37,75.38 5.68,36.31 -121.73,79 -590.77,384.02 28.58,673.38 -1099.1,1031.52 -569.73,180.93 -1098.03,381.78 -1625.17,561 -552.48,187.83 -1137.21,318.37 -1689.7,507.22 -525.64,179.68 -1234.95,565.51 -1531.68,625.09 -65.32,17.06 -50.48,-4.07 -105.44,29.53 -96.77,59.19 7.45,-39.69 -68.43,67.09 -45.77,-1.39 -1183.75,350.39 -1257.57,393.42 -265.28,154.61 -141.87,357.92 -45.29,614.58 26.85,71.38 149.97,640.8 151.59,703.4l-473.09 10.14 -171.74 -19.01c-147.43,226.49 -186.56,351.92 -112.05,565.88 58.64,168.36 142.3,375.16 229.31,527.9 -101.29,145.2 -202.36,128.6 -134.31,530.08 -54.77,123.74 -291.77,-34.86 -424.42,129.03 -200.21,15.45 -361.83,143.76 -358.49,380.6 3.29,234.08 181.56,339.23 305.21,419.47l26.09 417.22zm8618 -4036.96l-128.27 -90.5c16.92,151.83 -52.84,114.46 128.27,90.5zm-785.48 2271.56l-79.27 66.09 -11.81 -120.56 13.99 -45.54 93.5 5.93 -16.41 94.08zm-6752.39 -308.58c117.23,-10.39 94.52,-13.71 105.08,-112.64l161.46 -17.84 -232.93 222.47c-48.31,-59.83 -68.89,81.45 -33.61,-91.99zm105.08 -112.64l-56.85 39.19c-78.38,27.8 -31.86,-31.5 -48.23,73.45 -114.23,36.17 13.35,-5.79 -84.49,46.2 -58.55,31.13 -24.51,28.57 -96.99,47.2 -203.57,-266.26 -314.49,-412.74 -346.39,-855.34 172.93,-19.2 506.16,-35.19 623.72,32.72 22.4,232.04 114.16,180.65 17.38,323.43 -181.92,47.59 -155.89,18.31 -164.39,218.96 89.13,-46.62 115.85,-114.56 192.44,-106.61l-36.2 180.8zm10449.27 -397.38c-94.63,0 -65.74,21.54 -70.7,-80.87 58.09,-250.97 173.56,-479.03 261.3,-687.76 193.28,-459.74 120.57,-462.71 385.9,-562.9 -13.83,227.25 -186.45,538.56 -261.88,721.63 -158.89,385.56 -113.12,407.9 -314.62,609.9zm-9921.33 -593.23c105.84,6.8 43.19,28.91 71.26,-40.42 71.95,-28.74 15.58,9.88 34.84,-64.19 80.4,18.23 83.68,-41.17 112.14,-91.39 65.95,-44.2 97.27,-87.58 152.04,-133.83 132.15,-46.51 66.67,-55.65 189.77,0.85 22.22,75.46 -12.97,95.66 -82.24,163.15 -67.79,66.04 -105.94,103.27 -163.25,159.19 -57.99,56.57 -95.26,87.87 -163.11,153.49 -62.21,60.17 1.43,-19.36 -67.67,75.82 -43.2,59.5 -43.8,72.43 -67.59,118.75 112.26,-48.71 284.79,-215.58 374.72,-310.31l292.75 -280.08c5.54,-5.08 14.29,-13.36 19.28,-18.01l37.78 -37.45 99.19 47.86c166.83,88.33 17.73,-9.76 92.4,113.81 -124.78,71.27 -332.85,235.84 -395.6,386.93 174.11,-71.34 357.46,-245.45 468.05,-377.9l152.19 -4.16c107.31,106.98 119.47,0.51 143.39,154.73 -110.88,56.76 -190.6,85.19 -218.51,202.1 -131.75,23.42 -69.8,-34.83 -119.34,107.8 117.81,-41.96 83.27,2.81 119.34,-107.8 141.74,-22.28 26.5,21.06 119.36,-54.39 46.82,-38.06 74.26,-63.64 113.87,-118.6 126.92,-57.39 243.4,-6.58 370.19,37.2 -105.05,149.55 -141.97,136.74 -212.59,209.65 -65.44,67.58 -25.95,21.94 -68.44,89.99 145.66,-58.11 260.21,-165.05 362.51,-276.91l279.48 6.1c-44.17,86.94 6.06,14.58 -43.05,71.45 -77.41,89.66 32.37,-30.96 -35.24,34.12 -80.61,77.61 -123.55,80.9 -162.91,182.66 209.95,-67.11 123.07,-44.2 272.66,-185.6 7.41,-7.01 30.39,-25.05 37.28,-31.86 37.61,-37.17 18.63,-17.85 49.67,-57.24 99.44,12.64 149.69,19.48 210.8,89.69 -35.53,86.88 -2.11,40.88 -59.08,91.93l-87.3 58.23c-127.34,96.53 -69.39,13.02 -135.78,176.96 208.84,-28.96 126.46,-163.21 415.15,-255.75 42.97,49.68 -48.37,1.24 57.6,39.25 82.36,29.52 35.05,15.5 109.28,18.73 44.53,49.39 -73.88,36.43 91.7,41.33 849.68,11.79 118.88,-26.61 853.97,243.89 96.4,35.47 96.44,17.49 142.27,95.72l10.8 32.96c45.49,-29.86 96.28,-72.02 154.48,-95.79l481.83 28.76c-43.61,175.76 -58.18,-1.92 -92.96,170.06 -82.5,13.66 -0.84,-79.89 -84.45,29.79 -54.27,71.21 5.22,70.14 7.12,73.43 165.34,-59.55 44.8,14.65 77.33,-103.22 144.2,-29.14 61.46,-117.95 367.84,-161.66 -28.24,159.4 -192.61,268.63 -283.29,400.62 272.24,-54.05 173.28,-149.83 356.71,-265.81 80.65,-105.45 36.2,-72.63 186.37,-29.68 -9.93,121.05 24.42,29.25 -63.23,136.84 -111.24,136.54 -249.28,163.05 -295.87,352.84 184.74,-117.61 281.72,-276.55 446.06,-422.07l128.74 58.1 -0.87 109.98c-100.79,81.09 -73.28,20.53 -100.58,147.78 -83.01,31.96 -102.16,13.91 -96.22,120.11 -129.68,38.89 -287.08,239.25 -368.27,367.99 150.26,-41.01 338.44,-198.66 368.27,-367.99 90.91,-23.52 104.97,-5.16 96.22,-120.11 66.33,-19.28 13.54,36.69 115.67,-62.81 64.84,-63.16 61.97,-82.94 95.28,-147.23 122.54,-3.9 128,-23.38 217.63,28.05 -38.95,18.89 -60.71,27.03 -91.27,50.75 -6.1,4.74 -14.03,12.09 -19.86,17.24 -5.75,5.08 -12.88,13 -18.3,18.35 -5.36,5.29 -12.06,13.48 -17.16,18.96l-219.22 249.12c-74.76,93.97 -49.32,63.43 -60.74,156.95 -81.22,25.25 -63.27,14.8 -137.2,109.43 -157.13,201.16 -213.78,211.71 -298.62,380.78 49.82,-25.1 70.21,-34.75 111.53,-66.1 118.33,-89.84 303.74,-286.39 324.29,-424.11 202.24,-73.58 123.15,-211.88 442.95,-380.56l-3.75 235.29c-7.43,6.16 -17.55,14.23 -22.23,18.57l-43.55 41.12c-5.04,4.93 -17.37,30.02 -21.19,23.33 -3.86,-6.78 -13.73,16.28 -20.68,24.34 -68.12,32.39 -114.8,124.2 -178.76,188.25l-145.38 176.1c-96.5,117.96 -296.5,293.78 -336.79,409.94 -456,18.97 -949.34,-460.95 -1387.94,-571.94 -256.1,-64.81 -526.8,-93.03 -791.75,-162.57 -486.88,-127.77 -967.85,-305.1 -1417.38,-519.42 -457.24,-217.99 -1354.28,-164.61 -1511.8,-418.42 -80.54,-129.77 -180.19,-653.8 -120.3,-776.02 57.47,-55.57 79.35,-91.79 126.6,-145.74 68.24,-77.91 77.37,-56.72 132.47,-124.02 65.23,-4.42 78.66,-13.85 135.51,2.92 84.25,24.86 29.51,-1.59 76.35,48.87l-303.87 330.04c-81.16,99.91 -65.8,33.53 -82.6,161.71 172.6,-95.24 380.94,-388.04 490.16,-540.09l240.9 38 -129.7 202.95c-94.92,31.28 -75.14,24.19 -82.46,114.94 -100.79,12.39 -86.12,10.33 -106.1,104.61 -104.4,21.85 -85.96,34.45 -98.75,113.52 -125.73,-13.03 -99.38,12.61 -101.4,111.88 -89.27,-5.21 -128.36,78.73 -135.91,162.91l123.26 -65.27c75.63,-129.09 14.2,-3.24 12.65,-97.64 122.29,17.66 95.88,-7.55 101.4,-111.88 109.67,8.08 89.09,-25.92 98.75,-113.52zm3989.19 824.72c95.56,-45.68 65.8,-30.61 124.62,-132.41 -126.25,53.9 -116.3,4.64 -124.62,132.41zm-5586.81 1282.55c-44.64,-66.13 56.04,-36.43 -87.77,-60.96l104.26 -47.51c243.72,-23.59 283.31,-16.27 506.32,55.56l59.53 -9.9 142.37 110.67 25.53 101.71c-100.41,69.43 -74.51,97.3 -143.32,198.09 -108.2,158.49 -341.9,336.66 -398.28,568.96 203.45,-123.53 511.96,-557.4 541.6,-767.05l114.56 -93.78c2.14,372.95 -42.17,234.51 -147.29,442.69 -105.84,209.62 -22.45,256.85 32.83,415.77 -63.81,96.1 -93.74,93.1 -109.65,204.32 -120.32,35.76 -57.51,-10.84 -141.32,105.51 -245.52,127.83 -502.22,-194.05 -486.63,-446.18 11.53,-186.49 270.76,-682.65 -12.74,-777.9zm12552.93 -2998.92c154.96,16.86 68.43,-3.76 96.45,50.04 -81.2,170.19 -128.54,288.67 -215.76,463.33 -55.36,110.86 -182.25,345.66 -189.47,493.61l-70.14 103.96c-51.02,53.78 -18.46,29.12 -98.81,60.56 -38.34,-100.12 -13.99,-116.56 -2.72,-156.89 58.8,-210.15 386.8,-908.05 480.45,-1014.61zm-7927.41 -506.84c22.11,117.4 -51.93,37.16 65.02,110.7 3.36,-5.18 67.63,4.42 14.31,-80.88 -50.12,-80.19 -46.56,-23.89 -79.33,-29.82l-35.59 -39.57c-140.23,-77.56 -162.97,55.06 -178.44,85.58 -44.74,108.08 -97.86,153.76 -100.79,240.66 72.04,-12.29 97.35,-25.71 159.11,-46 62.87,-80.78 8.29,-66.15 -5.06,-216.54l160.77 -24.13zm-1357.27 978.63c-41.18,-24.05 -40.74,-54.26 -150.68,-0.48 56.51,55.18 -29.85,34.43 71.3,45.47 177.12,19.34 20.9,3.82 79.38,-44.99zm3940.8 -681.46c142.48,-40.68 74.42,16.72 107.25,-130.61 -106.11,49.77 -91.06,10.41 -107.25,130.61zm2469.62 -2874.43l119.97 15.78c832.06,-132.16 609.94,-62.67 1200.99,-114.42l204.63 -76.63c9.93,-24.29 -433.74,-63.52 -532.4,-87.54 -289.56,-70.5 -404.32,-39.54 -688.35,-63.62 -109.24,0.42 -211.89,21.97 -325.81,32.91 -35.77,3.43 -131,7.63 -164.09,14.23 -225.03,44.85 -65.8,-7.01 -142.08,66.96 -143.18,-27.7 -202.84,52.01 -336.75,102.7 6.02,21.98 15.43,63.72 24.05,78.45 53.54,91.48 5.08,23.7 60.82,77.9 28.04,-59.85 -20.61,-16.53 96.7,-7.46l48.18 -68.6c70.61,-101.53 79.61,-113.64 213.77,-177.05 109.31,98.47 -89.69,-87.87 43.38,49.7l24.42 22.9c-94.67,63.01 -65.92,20.24 -129.69,117.73 -4.37,6.7 -7.99,15.51 -11.52,22.11l-40.46 112.55c-142.67,-48.45 -29.43,-21.35 -175.33,-16.53 -118.03,3.89 -77.93,57.7 -135.67,-13.31 -74.1,11.49 -24.05,-38.64 -106.94,36.52 -7.21,6.54 -35.24,86.73 -36.89,93.75 134.34,-8.74 422.04,4.5 454.83,-100.43 111.99,16.8 68.23,34.26 209.62,-18.61 165.3,-61.82 88.48,-30.04 124.62,-99.99zm84.62 -105.98c-135.41,94.67 -54.75,20.92 -84.62,105.98 -109.81,3.77 -83.5,-46.58 -156.3,67.18 -29.05,-40.22 -86.29,-13.86 5.44,-199.37l18.98 17.8c4.21,-7.7 17.57,15.82 26.88,23.1 36.89,-127.64 31.83,-117.19 196.6,-119.84l81.58 46.58c-105.53,9.51 -38.08,-41.81 -88.56,58.57zm-2902.06 6395.21c-67.43,6.86 39.06,9.67 -50.83,-1.66 -4.59,-0.58 -17.13,-0.51 -20.39,-8.48 -2.86,-6.96 -9.95,-8.23 -14.57,-12.71 84.23,-178.59 207.04,-212.87 207.9,-354.26l249.77 -192.37c29.51,237.96 -59.53,263.18 -132.23,423.87l-122.91 -16.91c-43.96,72.67 -59.62,82.49 -104.84,161.12l-1.96 -1.23 -7.06 -6.1c-1.05,3.05 -2.01,5.97 -2.88,8.73zm5999.02 -4735.05c203.81,-11.21 114.18,-23.86 161.75,-108.8 -89.07,28.94 -12.04,-22.6 -101.76,43.29 -31,22.75 -56.13,35.38 -59.99,65.51zm-2071.68 101.76c55.74,76.89 -62.22,91.16 161.77,59.59 -22.75,-21.82 -50.43,-98.71 -161.77,-59.59zm-3267.01 6308.19c-3.3,-2.5 -9.04,-7.38 -9.18,-8.38 -0.12,-0.86 -1.57,-9.62 -1.56,-10.51 0.05,-3.02 16.08,-21.45 25.37,-28.93l-16.42 -64.99 53.25 12.21c91.77,-71.39 -8.52,-48.88 94.06,-48.27 116.51,0.68 23.61,-43.02 85.69,50.18l-231.21 98.69zm-3458.54 -5413.29c127.06,-59.32 182.23,-82.6 13.17,-137.06l-13.17 137.06zm4642.48 825.98c-114.28,69.75 -57.62,76.01 0,121.87 163.02,-209.42 23.27,-73.08 0,-121.87zm-1406.39 976.03c-102.43,88.96 -62.14,19.9 -96.01,150.45 146.01,-48.27 122.36,11.99 96.01,-150.45zm2889.34 -605.33c130.28,10.93 65.67,45.5 125.44,-98.72 -90.02,17.83 -104.82,-65.15 -125.44,98.72zm386.35 2279.48c-46.02,57.86 -27.16,46.01 -62.62,139.29 136.93,-59.78 87.7,1.41 144.51,-133.69l394.41 -65.92c12.13,-59.4 20.54,-74.69 13.82,-144.97 -60.17,129.24 -14.3,58.06 -136.67,126.81 70.23,-111.52 9.32,-85.14 136.67,-126.81 8.17,-126.47 -80.57,-19.2 42.39,-97.36 213.23,21.24 232.08,-54.23 487.07,17.21 29.11,209.76 19.08,37.29 -47.03,108.41 -18.74,-59.21 54.59,-140.62 -227.22,-114.91 -225.9,20.61 -129.74,-18.44 -201.64,150.93 8.05,2.83 21.02,-0.69 24.42,7.64l69.77 -4.62c91.16,-29.21 198.49,-120.54 360.46,50.25 85.1,2.17 162.13,-14.13 255.27,-30.29l229.79 -40.21c58,-25.28 25.66,-14.82 58.18,-49.15l102.39 -9.46 322.46 -90.28c324.76,-61.02 615.05,-276 772.85,-495.71 89.15,-124.13 152.25,-292.77 173.31,-449.71 40.24,-300.09 -78.57,-352.25 295.67,-364.47 -10.32,220.69 112,258.96 27.22,482.81 -54.04,142.68 -125.91,274.53 -226.87,388.28 -509.07,573.59 -2146.47,967.86 -2808.3,960.27l-694.99 9.81c195.95,-267.12 -161.18,132.74 57.71,-72.26 8.72,-8.16 97.48,-42.43 182.38,-149.32l254.59 -2.57zm4899.58 -2357.68c39.61,-4.04 39.16,60.94 118.96,-40.2 49.05,-62.18 25.32,-46.91 -48.26,-86.23 8.09,-4.31 19.44,-21.11 24.1,-13.18l89.65 -23.84c113.95,-4.21 77.1,0.06 159.88,36.95 -58.06,26.12 -323.67,243.05 -395.51,358.31 152.68,-56.5 388.79,-197.53 442.29,-342.19l153.15 -11.64 375.41 -45.48 -106.42 222.92 -63.12 150.96c-160.08,-114.48 -59.81,-24.18 -95.74,3.07 -12.58,0 -32.89,0.36 -34.77,14.73 -1.54,11.81 -14.73,14.65 -23.01,20.86 19.85,85.51 -0.45,46.17 46.49,100.9 -43.95,157.08 -7.13,37.59 -134.23,153.84 -60.45,55.3 -78.78,96.64 -121.69,162.65 -75.23,115.72 -152.08,227.7 -268.83,302.61l-134.12 88.41 -238.36 67.23c-84.33,-164.79 -85.19,-132.84 -224.12,-230.38 14.91,-77.02 79.21,-378.22 107.04,-427.17l306.44 -197.33c5.51,-4.42 14.6,-13.84 21.9,-20.76 -9.14,-3.44 -23.81,-19.54 -27.7,-9.63l-310.02 181.41c-62.78,-31.43 -20.04,54.5 -54.98,-104.37 141.22,-19.91 97.66,-39.22 135.63,-113.92 79.33,-0.52 89.13,-14.12 161.66,-59.83 25.91,-16.33 64.9,-38.53 86.45,-58.89 47.03,-44.42 32.46,-28.7 51.83,-79.81zm70.7 -126.43l-70.7 126.43c-94.9,1.74 -114.24,28.06 -190.68,83.47 -54.4,39.44 -36.05,18.04 -77.79,61.91 -53.63,56.34 0.15,-8.72 -31.47,53.15 -89.6,16.49 -15.16,-3.77 -108.84,28.37l-55.22 -122.05 434.7 -233.9 100 2.62zm-1605.53 -2855.09c49.52,-8.74 23.18,9.58 77.08,-18.42 49.47,-25.69 51.49,-34.93 71.98,-53.02 -4.18,-2.06 -97.65,-160.08 -149.06,71.44zm1850.09 4381.67c26.53,-5.53 37.43,-2.03 42.09,0.88 -82.63,180.84 -121.39,167.21 -115.31,373.18 2.86,96.55 41.06,95.67 -49.47,195.36 -60.07,66.14 -62.61,60.85 -168.81,90.5 -328.66,91.75 -350.85,42.66 -523.82,337.35 -50.37,85.81 -12.86,3.01 -47.61,92.22 -37.99,97.52 3.93,-74.3 -24.22,91.5 -175.98,7.18 -60.31,50.97 -264.53,20.38 -89.05,-13.33 -200.62,-41.01 -275.14,-62.88 -172.56,-50.65 -325.06,-35.3 -380.45,161.06 -134.47,34.62 -172.78,229.64 -258.17,344.13 -155.2,15.71 -170.88,6.24 -304.72,-61.24 -29.14,-14.68 -76.17,-38.98 -111.68,-62.8 -76.36,-51.2 -26.91,-8.86 -69.57,-57.86 101.91,-54.31 229.86,-137.25 280,-233.5 92.02,32.97 68.22,10.02 152.12,52.1l143.54 -87.33 -126.37 -84.15c-67.41,-42.59 -23.34,-4.33 -77.43,-59.81 68.53,-57.19 77.32,-154.51 106.23,-245.79 135.15,-426.84 359.43,-119.11 570.74,-10.83l111.67 59.9c-144.42,153.24 -344.66,164.54 -523.13,246.87 168.01,17 288,-18.12 435.89,-90.54l116.08 -66.83c57.34,-41.43 136.98,-126.39 173.37,-180.01l126.99 -204.05c189.66,34.64 361.68,224.55 627.54,-116.59 154.36,-198.05 192.89,-380.97 434.17,-441.22zm-6162.43 -4613.92c75.89,82.76 17.91,83.79 145.39,154.52 -0.69,-143.8 -22.35,-149.57 -145.39,-154.52zm1131.48 1926.95l-38.49 112.74c100.34,-30.29 67.19,27.42 120.7,-62.89 67.5,-113.93 3.6,-38.58 -37.74,-62.18 32.66,-85.92 -73.82,-58.28 262.85,-78.37l7.86 -243.95c-344.66,-25.54 -562.73,70.34 -524.88,428.96 18.57,176.07 -11.69,114.31 199.21,106.21l-67.7 -22.29c-53.16,-25.56 -94.19,-21.03 -113.51,-120.38l3.74 -83.04c25.42,-177.06 62.6,-136.89 131.51,-271.55l334.21 16.81 10.72 171.22 -281.96 -32.56 -6.52 141.27zm-1601.34 -930.61c145.92,8.3 74.96,9.18 121.54,-118.4 -192.52,55.77 -116.38,-32.54 -121.54,118.4zm-8097.99 3944.02l33.51 -109.53c130.6,-26.98 31.98,-20.98 92.17,27.96l-125.68 81.57zm33.51 -109.53l-101.39 -6.98 -15.51 25.16c50.66,-175.45 83.58,-171.64 254.88,-264.24l-137.98 246.06zm5490.91 -3307.98c-66.08,-138.07 -23.89,-107.44 -164.51,-149.68 68.19,159.66 -5.59,86.91 164.51,149.68zm-5800.95 4054.31l-149.33 -23.04c-81.01,-84.54 -132.49,-87.71 -182,-219.51 -54.32,-144.57 -93.38,-477.94 255.17,-371.7l206.24 109.05c-30.55,162.29 -108.56,326.05 -130.08,505.2zm13950.88 -1727.53c46.34,-56.49 17.4,-12.48 45.14,-81.24 18.13,-44.92 32.52,-91.17 48,-130.15l-92.6 -12.84 -15.49 -36.96 -162.75 -165.47c155.12,-134.22 220.48,-20.52 270.54,13.07 104.74,70.24 74.76,-22.71 115.12,183.57 54.92,146.41 19.79,271.17 -42.55,399.24l-135.15 41.2 -0.36 1.89 -84.22 11.74 51.55 -129.06 2.77 -94.99zm-5500.98 414.65l58.63 84c3.64,6.77 9.61,21.19 12.72,27.3 2.99,5.84 7,17.89 10.48,26.85 21.77,80.96 -177.2,332.13 -179.06,526.78 -146.08,88.56 -73.21,246.5 -221.86,385.88l-86.11 77.92c-72.92,-58.32 -51.49,49.88 -40.42,-91.3l115.51 -243.76c49.03,-100.88 102.82,-219.13 150.74,-341.54 62.8,-128.44 158.1,-299.42 179.37,-452.13zm2.47 -51.62l-52.03 1.76 -14.65 75.15c-29.97,-57.5 -31.87,66.52 -29.99,-114.46 1.74,-167.98 89.38,-170.98 161.98,-196.39l-65.31 233.94zm235.85 -975.17l84.66 -65.46c-32.94,-81.12 41.92,-28.99 -78.3,-79.03l-90.8 -34.54c-62.86,169.65 -104.54,2.7 -162.08,185.27 67.46,40.88 246.22,103.16 246.52,-6.24zm5580.52 -1854.89c-61.73,102.59 -30.16,12.24 -49.31,147.54l161.58 -37.83c110.37,-82.09 64.46,-41.34 90.04,-121.04l112.37 -24.82 33.93 -179.03c-4.74,-286.58 -33.56,-239.63 -103.27,-299.54 -64.96,-71.23 -97.56,-103.55 -226.93,-114.81 -0.43,86.88 -15.97,18.2 9.77,94.69 69.73,207.18 11.8,43.77 68.96,108.13l-30.94 301.98 -66.2 124.73zm-3490.25 3501.69l33.19 -67.02 81.55 -13.77c-25.68,67.61 -7.06,94.97 -74.66,123.25 -190.15,79.57 -83.04,-18.82 -97.45,-69.7l57.37 27.24zm-7258.66 -2317.06c-20.43,-189.17 63.97,-91.99 -134.79,-137.13 41.75,138.99 9.27,97 134.79,137.13zm3322.92 2043.19l-27.34 -178.56 126.26 23.1c-12.75,121.21 0.65,103.16 -98.92,155.46zm238.02 210.43l117.05 -66.72 -55.46 161.34 -9.87 14.26c-83.84,-16.73 -33.05,14.96 -84.78,-38.18l33.06 -70.7zm667.67 -1218.47c68.03,117.79 -11.61,53.4 90.57,118.54 57.64,36.73 68.81,-9.97 71.99,-11.17 -32.91,-139.65 13,-74.84 -162.56,-107.37zm-2077.41 4448.99c-0.78,5.2 -17.95,104.35 -17.76,106.47 9.92,104.87 7.38,63.9 46.83,108.94l54.86 -241.69c206.67,-36.76 289.89,-242.87 553.83,-289.07l-25.91 89.77 -30.83 141.87c8.98,-9.6 20.59,-19.68 27.24,-28.55 151.24,-201.61 -15.96,-132.7 203.33,-273.6 -1.25,257.81 -37.32,291.53 -244.62,373.29 -91.1,78.79 -192.33,145.68 -292.31,217.89 -92.13,66.53 -169.84,148.82 -281.44,218.36 -163.46,-54.48 -80.32,-91.21 -200.45,-114.05 -53.08,-116.38 -80.69,-143.14 -128.04,-236.37 -48.48,-95.43 -58.01,-139.69 -158.85,-198.27 -626.74,-563.04 -135.98,-345.53 -848.97,-660.83 -119.04,-52.65 -245.91,-117.26 -372.81,-120.83 -118.18,-84.66 -394.52,-142.33 -585.32,-178.41 -315.39,-16.34 -735.72,-13.19 -1031.5,-110.59l-230.98 -147.26c349.65,45.64 741.7,84.36 1107.93,129.54 883.65,108.99 1097.93,201.6 1807.21,634.81 334.16,204.1 425.38,455.23 648.56,578.58zm-5793.2 -1176.79c-104.2,19.9 -80.26,43.31 -80.26,-59.77 136.36,-35.35 27.47,6.8 60.29,-68.77 171.87,-44.89 53.48,-119.09 269.42,-224.27 -97.98,274.99 -115.44,176.49 -249.45,352.81zm10214.38 -1987.6l-126.23 -4.24c-48.32,68.82 -55.5,61.78 -85.31,147.11 -481.27,73.73 -1144.78,500.55 -1599.7,661.9l-202.66 42.76 22.53 -179.25c225.15,-22.54 200.26,-104.1 431.24,-57.18 12.7,-121.43 103.59,-109.76 262.35,-198.24 115.96,-64.62 198.92,-134.7 330.12,-205.04 227.46,-121.92 501.33,-178.57 745.47,-300.33 309.22,-154.23 745.84,-394.05 1165.56,-400.5 150.53,-2.31 242.67,-29.06 382.38,-35.59l255.69 -8.7c-9.38,9.52 -23.15,6.63 -28.32,19.92 -12.67,32.53 -183.67,53.04 -280.69,122.97l-162.65 2.73c-144.41,8.18 -191.05,9.63 -295.92,56.48 -279.82,44.08 -572.93,262.69 -813.86,335.2zm-8861.49 -217.33c10.68,-5.34 58.37,-20.32 62.97,-34.85 5.33,-16.8 19.4,-20.24 31.48,-26.81l-73.33 -6.98 -218.2 66.54c66.63,54.66 -104.66,64.21 101.53,37.38 4.09,-0.52 72.63,-28.8 95.55,-35.28zm8416.91 -991.62l60.95 -148.92c93.47,15.6 49.07,-5.12 95.27,37.25 -92.16,270.42 -180.77,510.41 -280.16,776.73 -115.9,310.57 -101.19,473.41 -419.66,583.16 66.2,-372.18 532.48,-1210.42 543.6,-1248.22zm-2836.24 3464.9c53.89,-11.01 62.52,-11.7 71.32,-105.47 16.59,-176.52 -16.3,-77.04 -35.47,-112.55 -72.77,73.42 -66.86,104.94 -35.85,218.02zm-4950.04 -57.69c0,91.42 35.37,52.35 124.04,25.48 91.54,-82.62 83.08,-57.81 120.5,-151.41l172.36 -40.85c-44.8,100.19 -20.46,88.26 -145.79,176.68 -72.49,51.14 -110.79,72.45 -194.59,95.48 -42.28,44.74 66.96,22.16 -78.55,46.8 -191.2,32.38 -41.63,13.43 -87.17,-33.15l-77.84 -53.12c27.65,-93.53 65.52,-78.99 211.87,-210.02 13.78,-12.34 -9.47,-65.21 215.21,-87.97l-15.5 106.15 -244.54 125.93zm2942.38 1078.06c-88.77,16.87 -80,3.33 -138.86,36.37 -94.1,52.83 9.72,-26.19 -55.73,84.7l211.14 -37.9 19.28 -91.52 -35.83 8.35zm4990.06 -3556.18l-84.48 39.24 -33.84 -45.97c81.52,-121.96 220.11,-537.28 281.24,-684.6 78.34,-188.81 150.93,-482.06 307.41,-603.84 107.64,43.46 101.23,-87.83 35.27,112.17 -56.18,170.32 -323.15,568.86 -436.75,1100.88 -39.33,127.73 16.54,36.65 -68.85,82.12zm-152.94 -55.71c-74.46,66.12 -25.86,60.44 -45.68,126.67l-23.02 52.43c-3.19,7.01 -12.24,18.95 -18.99,27.98l-109.07 41.87c-5.36,-148.96 300.81,-829.47 396.42,-1103.6 73.51,-210.73 25.12,-232.41 240.45,-287.69 -82.05,366.19 -364.39,737.49 -440.11,1142.34zm-5442.97 -3182.23c110.32,-10.61 164.39,-60.39 234.05,-152.31 -142.13,13.04 -198.8,5.51 -234.05,152.31zm3154.95 3982.03c82.88,2.83 69.08,-22.19 69.08,46.47l-27.57 57.97 -196.37 56.94c46.23,-111.16 27.09,-141.03 154.86,-161.38zm52.92 -106.52l-60.08 19.59 25.81 -120.44 -8.65 -14.55c91.8,-27.5 80.69,-25.7 188.71,-46.39l-29.97 84.59c-3.38,9.52 -25.03,72.65 -29.91,83.54l-85.91 -6.34zm8346.13 -626.68c-176.06,81.62 -57.22,21.69 -93.64,9.5 55.21,-121.03 -31.66,-59.09 89.87,-88.27l3.77 78.77zm-202.14 -18.98l7.33 115.47 -114.62 62.29c21.36,-60.53 25.04,-86.42 51.23,-129.18 33.07,-53.99 8.98,-13.23 56.06,-48.58zm-9770.51 2385.59l4.58 -41.44c51.25,-93.15 -3.15,-40.71 91.89,-76.27 5.55,69.38 13.62,66.1 2.67,141.21 -23.91,164 -1.77,22.54 -34.88,83.73 -111.44,-52.32 -44.83,38.49 -64.26,-107.23zm7006.62 -5246.51c-66.48,-58.91 134.03,-102.42 -126.12,-55.42 -101.92,18.42 -51.14,47.06 -64.1,91.27 17.63,14.37 -44.35,31.06 69.44,12.87 122.16,-19.52 71.48,-22.43 120.78,-48.72zm-4765.31 3941.4c-44.33,39.68 -27.31,-89.87 -49.5,101.1 -108.6,86.56 -272.05,122.9 -435.4,111.25 7.39,-122.1 20.33,-112.94 64.37,-206.11 427.8,-39.77 119.64,-74.44 432.41,-121.2l-11.88 114.96zm6450.51 -4308.24l-104.63 4.61c25.04,-90.97 25.03,-76.81 51.83,-137.57 55.38,-125.56 38.2,-21.91 40.42,-168.15 70.43,58.14 108.58,-109.04 67.04,156.86 -21.38,136.82 -25.99,-70.12 -54.66,144.25zm-5113.94 2534.32c62.28,-101.12 42,-106.4 71.16,-209.14 4.97,8.53 14.23,9.69 15.39,25.32 1.23,16.57 10.72,20.59 12.01,29.02 11.01,72.26 8.06,36.63 5.44,121.24 -109.22,199.25 -193.59,425.08 -280.17,628.75 -113.13,266.14 -88.17,471.03 -397.49,542.71 42.5,-221.99 401.08,-932.39 498.99,-1227.8l53.41 66.17c3,-6.95 15.13,15.05 21.26,23.73zm2426.96 66.53c-40.66,83.71 -36.66,65.49 -136.71,130.4l-50.62 33.13 -165.07 42.87c-112.95,-8.83 -30.14,8.07 -61.29,-51.5l306.24 -154.18 107.45 -0.72zm-2718.01 -1775.32c-77.39,-32.89 -177.04,-67.27 -242.76,24.5 -89.11,124.49 -4.47,72.11 -3.17,85.14l245.93 -109.64zm-3600.65 -660.66c-109.26,106.66 -20.32,26.78 -86.65,128.43 219.69,-51.97 176.24,17.09 200.79,-198.73 -106.77,53.27 -33.5,-8.41 -114.14,70.3zm5447.62 186.22c-157.49,54.24 -50.62,227.86 141.95,123.29 -8.13,-8.14 -19.37,-17.4 -25.99,-22.7l-115.96 -100.59c126.31,2.71 76.76,48.91 210.28,-55.94 -6.58,-29.87 31.67,-100.95 -102.46,-64.22 -139.45,38.2 -96.73,2.73 -107.82,120.16zm-2191.71 2515.53c67.71,-167 -15.08,29.61 81.78,-72.13l-4.07 153.22c-74.08,167.15 -228.42,444.93 -229.83,604.96 -184.79,116.89 -49.07,302.3 -317.95,323.26 41.47,-110.32 96.53,-171.64 101.42,-317.99 145.55,-90.5 254.08,-539.42 368.65,-691.32zm26.21 -202.53l-72.57 88.16c-27.66,93.51 -27.94,93.18 -77.11,139.67 -18,-36.95 -101.52,-312.03 187.54,-364.81l-37.86 136.98zm5465.3 947.08l146.81 -334.57c-206.8,63.76 -27.71,105.11 -249.68,217.94l-22.35 -167.06 -71.83 17.56 -58.98 16.71c55.21,87.45 50.62,23.17 45.44,151.98l-198.25 76.77c40.64,-87.72 83.82,-166.11 152.81,-228.75l-27.32 -81.94 -7.74 -23.17c-36.54,13.94 -86.16,29.81 -103.31,38.23 53.8,-157.21 31.59,-55.97 18.18,-171.97 92.62,-44.58 53.75,-31.02 106.13,-135.79l38.32 -71.17 122.6 -10.66c143.4,82.65 143.93,94.83 258.74,236.42 124.2,85.9 93.96,102.38 277.11,152.07 -19.84,64.78 -33.75,126.23 -77.95,207.38 -48.65,89.32 -48.22,41.62 -78.92,120.91 -135.36,-6.55 -49.92,45.7 -112.1,-28.91 74.62,-125.78 54.81,-21.55 50.59,-181.67 -102.92,76.41 -71.65,29.31 -99.81,150.21l-108.49 49.48zm208.93 -2621.76c60.98,-65.46 43.98,-42.52 88.16,-134.38 52.75,-109.68 2.96,-51.25 82.59,-138.98 44.33,-126.7 71.81,-130.39 106,-234.4 79.93,108.5 -268.22,835.57 -361.36,999.64 -119.89,211.15 50.1,42.47 -142.77,241.8 -69.42,-11.61 -50.22,-3.82 -79.73,-29.87 66.41,-133.52 99.72,-231.81 154.65,-358.97 50.66,-117.29 105.74,-213.62 152.46,-344.84zm113.93 -355.92c-71.99,101.23 -109.06,229.85 -163.36,274.92 -25.68,110.21 -316.11,769.85 -362.39,820.83 -51.6,78.6 65.7,41.38 -100.68,86.22 -53.72,-70.12 -26.87,-80.95 -19.01,-200.36 7.73,9.7 27.29,-5.04 56.34,10.89 20.2,-112.84 77.62,-211.09 126.35,-306.75 51.65,-101.4 93.33,-207.01 152.83,-319.82 166.83,-110.12 -48.31,133.48 48.69,-61.55 90.37,-181.69 50.4,-371.51 301.21,-383.71l-39.98 79.33zm-7724.53 -739.71c-8.93,23.97 -18.37,1.92 -10.73,58.95 1.13,8.41 19.38,60.89 21.35,66.82 11.47,-5.1 27.51,-28.2 32.3,-19.37 7.05,13.01 -19.12,-23.85 138.04,-66.7 100.28,-27.34 -5.67,34.93 75.02,-35.71 -135.96,-39.49 -134.14,-84.99 -255.98,-3.99zm-2867.68 5259.17l11.12 -0.13c-39.54,0.93 -85.98,0.92 -143.54,-3.67 -1212.46,-96.78 -1458.89,131.58 -2554.16,-410.43 -200.2,-99.08 -575.44,-353.67 -754.74,-425.98 -175.05,77.71 -330.41,260.48 -409.23,435.93 1406.13,198.24 1671.07,526.3 3098.29,621.32 472.44,31.45 1085.04,199.48 1459.23,418.21 218.9,127.95 388.5,191.79 585.78,347.86 168.56,133.36 330.16,452.67 530.91,419.41 60.35,-44.95 70.82,-49.8 129.3,-90.14 151.97,-88.15 280.04,-146.95 423.94,-210.2 166.72,-73.27 315.83,-200.36 416.56,-230.63 -75.7,-85.2 -92.13,-76 -237.38,-67.17 -59.4,74.26 -100.23,105.04 -171.22,167.38 -12.25,10.75 -61.18,54.39 -72.79,62.11 -76.37,50.76 -41.55,35.46 -140.78,57.18 25.98,-38.05 10.36,-32.57 70.33,-91.38l215.95 -179.95c-63.42,-65.27 60.47,-10.83 -124.98,-54.33 -297.22,-69.72 -806.58,-142.86 -1125.14,-274.49 -385.01,-59.93 -485.66,23.56 -606.81,-79.06 94,-35.1 68.25,-14.42 150.24,-19.93 158.97,-10.68 123.39,8.24 197.06,-61.22l-185.46 8.37c-212.12,17.8 -403.92,38.71 -556.98,-70.61 6.1,-3.59 19.17,-22.76 80.81,-33.61l136.04 -70.76 -79.54 -57.76c-86.04,120.35 134.27,81.96 -157.72,70.76 -5.85,-0.22 -92.44,-23.69 -150.61,-27.93 -334.64,-24.34 -481.65,16.54 -846.3,-110.55 239.97,-46.51 928.73,33.01 1154.63,67.72 -101.35,-88.89 -157.71,-106.67 -231.74,-108.44l-111.07 2.12zm-2825.38 -632.72c-43.17,-116.9 -27.72,-20.47 -33.52,-138.94 -2.8,-57.26 4.89,-122.15 2.07,-191.12l24.92 -94.06 572.15 287.9c182.25,83.85 413.19,185.01 627.31,204.45 40.44,137.37 9.92,55.12 25.69,153.99 1.8,11.31 1.46,22.07 3.15,31.65l26.38 68.92c126.39,-49.33 28.07,-28.74 107.55,-181.74 186.16,65.69 98.04,33.61 70.73,252.15 -52.96,55.63 -5.12,28.79 -108.92,42.79 -382.81,51.6 -1134.08,-364.9 -1317.51,-435.99zm-78.43 -323.43l-73.61 219.05c-56.44,-52.91 -82.62,-74.95 -102.99,-128.51l13.71 -358.34c154.45,-2.25 157.92,90.31 162.89,267.8zm2675.09 259.51l43.76 37.51c149.36,108.64 186.17,128.91 301.07,140.14 29.93,81.34 51.12,88.28 137.16,171.51 65.21,63.08 96.65,94.91 169.51,158.67 118.63,103.81 206.69,176.17 391.95,230.16 80.31,114.92 598.9,164.63 724.37,88.51 115.02,27.74 44.76,3.45 131.37,46.46 -97.5,98.42 104.57,16.84 -138.23,85.29 -14.91,4.2 -115.54,10.96 -134.1,11.17 -673.31,7.85 -845.93,-295.23 -1091.91,-425.83 -47.03,-24.97 81.37,33.73 -55.33,-20.35 -210.03,-83.09 -139.66,-113.03 -277.67,-210.42 -188.84,-133.27 -593.04,-331.39 -787.84,-432.63 -378.94,-196.94 -593.33,-179.15 -1037.03,-181.86 -2.29,-92.67 -3.62,-116.44 105.11,-154.1 70.46,-24.41 202.25,-21.11 278.23,-16.2 172.6,11.15 326.17,62.03 464.51,113 283.21,104.33 522.46,244 775.07,358.97zm344.83 177.65c-47.52,-93.78 -31.7,-62.18 -138.21,-125.23 -59.35,-35.14 -79.87,-47.99 -139.82,-93.76 -661.31,-281.72 -913.91,-667.05 -1783.36,-423.9 -7.73,-273.96 36.69,-179.07 117.3,-338.75 271.65,-50.65 682.52,111.15 1012.13,132.19l652.61 146.92c-9.03,7.09 -21.97,6.5 -26.87,21.54l-99.66 69.48c106.47,64.46 183.63,97.72 279.81,144.09 174.36,-25.54 942.81,362.95 1221.91,386.68 -55.01,-101.93 -390.43,-207.06 -551.56,-267.13 -156.11,-58.19 -449.28,-182.61 -633.51,-199.38 8.11,-3.74 19.19,-19.67 24.13,-11.63 5.39,8.75 20.21,-8.29 27.63,-9.34 11.56,-1.67 109.96,-7.28 114.82,-7.26 235.72,51.46 488.19,147.34 695.91,225.11 185.61,69.49 481.41,204.48 667.88,237.87l-173.69 75.43c40.58,42.5 141.45,137.87 209.6,45.69l15.34 -30.13c1.04,-1.92 2.16,-10.84 4.73,-15.64l84.92 93.34c44.92,32.08 66.98,34.48 135.66,48.76l136.77 -3.67c-5.43,153.8 24.6,52.1 -38.3,131.6 -53.62,157.88 -184.56,259.08 -320.16,302.49 -475.46,156.91 -481.87,1.42 -859.06,-64.95l-636.95 -470.42zm3328.12 -1447.28c-109.92,-81.18 -18.16,24.31 -57.87,-102.67 -14.84,-47.46 -2.24,-25.07 6.05,-100.09l102.4 21.05 -43.5 157.83 -7.08 23.88zm4371.59 -2283.11c113.32,-49.12 176.52,-130.59 167.6,-234.76 -191.73,54 -177.51,60.11 -167.6,234.76zm-4589.61 1021.52l-38.45 -131.06 137.4 -163.02c-162.5,6.25 -184.08,34.87 -215.24,196.33l-17.2 251.01c106.37,-28.98 106.94,9.76 161.09,-77.47 54.72,-88.14 13.46,-19.24 -27.6,-75.79zm3051.66 -651.4c-71.38,107.39 -74.34,59.98 31.43,157.93 146.21,-189.64 128.05,-129.47 146.23,-233.38l59.26 -56.6c116.82,-106.36 183.36,-146.67 125.41,-474.84l-220.48 -7.36 -40.88 288.84 -247.43 9.51 -27.46 195.85c9.4,-10.86 18.34,-24.23 25.24,-34.92l64.44 -114.71c5.92,-36.41 199.35,-14.73 236.65,-14.31l58.26 -290.89c228.03,11.9 136.65,-42.76 141.16,107.46 12.89,429.41 -342.36,346.73 -528.49,313.56 202.43,212.9 104.9,-42.69 176.66,153.86zm-4162.77 -1811.22c14.19,-24.96 51.22,7.3 -7.57,-144.46 175.4,-10.15 129.91,26.16 141.86,-100.42 -137.57,20.47 -377.92,151.15 -134.29,244.88zm3379.61 5533.42l-42.4 154.3c-15.32,-64.11 -50.82,-180.14 -3.36,-306.51 17.82,22.84 15.94,3.52 41.1,76.71 13.45,39.13 3.46,28.07 4.66,75.5zm-1631.56 -4979.65c-68.59,10.9 -93.61,42.88 -102.01,138.61 -12.87,146.96 -4.17,99.33 74.66,130.6 76.37,-103.4 56.44,-140.4 27.35,-269.21l78.5 24.13c48.41,-81.48 92.31,-94.1 109.23,-103.72 230.21,103.96 145.24,85.22 171.24,6.55 -6.68,-5.94 21.59,-59.71 -207.85,-45.8 -230.18,13.94 -137.7,33.82 -151.12,118.84zm-4526.04 6084.23c164.51,-12.53 105.06,-44.19 172.29,29.27l-1.48 7.12 -76.03 46.91c-25.12,16.39 -36.13,25.51 -61.81,42.57 -36.65,24.34 -62.35,39.82 -93.07,60l-146.01 -3.77 71.51 -96.07c11.27,-11.15 24.28,-26.69 35.77,-48.04l98.83 -37.99zm291.61 119l0.02 -0.01c30.39,-2.33 18.78,36.21 48.53,133.76l-48.55 -133.75zm9931.17 -6712.98c22.36,119.74 19.64,129.24 89.88,83.23 238.03,-155.88 -130.7,33.56 67.7,-51.83 45.3,-19.5 26.46,4.72 106.68,-31.4 -11.84,-10.89 52.25,-50.12 -109.47,-58.62 -149,-7.85 -140.67,48.49 -154.79,58.62zm-2870.13 -586.92c127.72,-24.08 43.78,4.92 103.51,-76.09 4.14,-5.6 8.14,-14.59 12.7,-20.69 4.96,-6.64 11.17,-13.28 16.71,-20.44l95.85 -120.18 -218.14 30.38 -10.63 207.02zm-4554.84 5542.84c-26.42,83.39 18.86,38.42 -133.57,64.63 -7.88,-131.7 -46.58,-70.6 47.78,-87.48l85.79 22.85zm81.38 76.42c20.88,-57.61 13.68,-62.41 42.21,-122.39 64.61,60.66 35.51,-43.92 50.33,130.33l-92.54 -7.94zm-793.53 3384.89c-1.88,-0.59 -3.79,-1.14 -5.71,-1.65 1.92,0.52 3.83,1.06 5.71,1.65zm-5.95 -1.71c-2.03,-0.53 -4.09,-0.99 -6.18,-1.41 2.09,0.42 4.15,0.88 6.18,1.41zm7205.45 -5883.25c-93.04,-80.13 -102.77,105.65 -41.35,-198.29 66.06,-163.45 364.59,-916.45 505.02,-947.51 -1.1,445.94 -124.41,489.22 -315.4,900.73l-148.27 245.07zm-49.15 -329.06c-6.63,8.56 -15.88,18.4 -20.63,25.09 -95.38,134.22 -73.75,106.09 -77.26,192.16 -46.75,63.11 -24.36,48.18 -73.44,98.03 -73.26,74.45 -53.91,47.9 -130.93,89.96 35.29,-133.87 82.53,-205.56 127.25,-305.69 49.1,-109.95 81.94,-188.78 133.26,-297.47 91.68,-194.11 188.52,-371.89 287.84,-567.05l111.8 -60.15c-28.42,163.97 -122.74,265.04 -194.44,432.82 -60.91,142.53 -101.87,263.15 -163.45,392.3zm887 1481.6l58.58 -47.09 93.52 -120.3c77.95,-50.08 5.6,-14.8 102.26,-43.82l-171.48 405.47 -93.94 9.9 11.06 -204.16zm-9211.08 3496.68c-0.74,-11.25 -1.85,-26.92 -1.85,-48.11l5.51 34.75 -3.66 13.36zm7565.87 -6949.48l75.66 -126.1c38.45,-61.75 87.52,-155.56 31.88,-253.84 -123.73,85.08 -72.26,82.29 -120.79,213.96 -37.37,101.4 -70.72,83.8 13.25,165.98zm-6967.19 6783.68c-85.26,104.37 -172.46,139.4 -322.06,153.81 -65.11,21.89 -79.36,29.16 -142.41,62.36l-50.62 -75.52c110.08,-18.9 238.99,-158.4 524.62,-202.51l-9.53 61.86zm-4170.28 -2666.35c-39.13,11.79 -81.42,26.12 -115.11,41.62l12.79 -433.85c114.38,132.76 77.05,174.13 102.32,392.23zm87.46 363.38c-62.6,-169.28 -50.14,-262.82 -41.52,-424.88l-45.94 61.5 87.46 363.38zm1.15 -481.99c31.54,14.77 71.21,33.2 75.61,35.17 52.28,200.34 36.88,248.57 27.79,465.64 -175.75,31.16 -39.17,12.49 -104.55,-18.82l1.15 -481.99zm-1215.55 1655.74c164.43,-60.46 263.07,-181.39 348.25,-325.39 -87.35,10.77 -96.71,3.21 -221.44,119.98 -75.27,70.47 -86.63,111.59 -126.81,205.41zm6593.49 267.45l69.03 -268.82 88.15 21.9c74.09,408.13 -33.05,329.16 -78.52,354.73 -78.37,-42.83 -48.29,-4.73 -78.66,-107.81zm-22.56 -291.75c-18.89,121.74 -14.51,281.43 -78.02,368.73 -66.57,-87.09 -29.06,-166.32 -0.84,-310.33 31.54,-62.23 -45.5,-30.86 78.86,-58.4zm2501 -6316.42c112.49,-28.72 54.95,10.97 160.65,-96.1 34.19,-34.63 32.5,-35.39 51.18,-59.06 -48.61,-35.6 -96.06,-64.75 -130.15,-88.4l-7.97 -136.44c-227.82,204.69 77.25,50.07 -73.71,380zm-2674.28 6021.08c3.64,-7.3 38.1,-89.56 40.6,-92.69 51.52,-64.9 5.79,-32.45 79.2,-45.56l-22.81 171.63c-26.75,118.62 -10.64,88.1 -73.44,156.7 -33.82,-45.56 -16,79.76 -33.15,-90.66 -3.68,-36.5 5.67,-65.22 9.6,-99.42zm264.77 71.84c-84.13,-49.82 -32.86,10.04 -62.03,-83.31 -0.27,-0.86 -10.56,-109.75 -10.69,-112.53l-5.54 -173.01c55.27,-42.43 121.85,-81.72 159.68,-115.14 100.95,17.89 108.36,39.47 217.08,30.92 149.04,-11.73 69.83,-6.77 170.43,-69.99l89.55 3.98c12.38,-4.02 28.25,-7.23 37.68,-10.26l116.51 -43.61c-30.13,169.89 17.37,138.05 -128.22,166.8l-37.19 14.31c-53.65,32.98 -2.25,27.98 -99.66,32.47 -51.36,2.37 -57.55,-9.12 -82.56,-34.68 14.71,161.52 4.98,58.44 -35.2,93.79l-119.81 95.31 -55.12 -189.39c-6.91,404.63 -49.99,189.67 -154.91,394.34zm5342.49 -2599.76l138.14 18.07c-102.1,53.29 -82.85,61.43 -182.48,106.97 -84.25,38.51 -135.24,33.92 -196.23,120.89 -204.21,53.25 -309.69,151.73 -549.29,174.28l97.7 -76.05c6.94,-4.52 16.06,-8.81 22.92,-13.03l265.86 -158.9c141.58,-87 249.07,-160.89 403.38,-172.23zm-6700.67 -1067.27c9.32,-97.04 60.46,-37.41 -30.17,-122.3 -199.04,70.84 142.19,62.49 -179.23,100.25l-35.85 -107.25 -94.88 67.11c-47.04,60.74 113.76,209.54 340.13,62.19zm-568.06 4939.76c-247.47,10.57 -180.98,3.64 -347.74,-85.38 -26.39,-41.46 -39.66,-83.9 -61.69,-151.25 -23.61,-72.16 11.92,-8.07 -25.52,-74.98 -42.89,-76.67 -11.02,-26.48 -57.11,-51.38 -52.81,-115.46 24.14,-21.03 -82.26,-132.78 -73.31,-77.01 -59.14,-54.67 -142.28,-96.7 -204.54,-167.41 -288.38,40.53 -430.45,-144.14 86.48,-3.15 515.21,31.74 584.92,86.98 94.39,74.8 204.21,520.19 454.94,330.33l162.07 -44.24 -102.24 -36.26 -245.05 21 -109.23 -202.18 22.23 -15.51 291.25 112.52 446.82 174.35c-1.3,11.86 -16.12,33.11 -14.68,38.47 0.58,2.15 2.71,11.26 3.89,13.8 1.58,3.42 7.35,12.93 9.65,16.71l56.24 68.65c-8.08,6.68 -20.38,6.25 -24.49,19.76 -3.91,12.88 -38.3,29.67 -46.85,35.7 -23.6,16.64 -54.25,34.23 -77.55,51.6l-264.87 64.93zm3205.84 -3261.04c87.29,-0.12 41,56.65 70.96,221.04 -57.08,107.52 -88.64,124.58 -231.08,112.18 85.91,-132.46 67.79,-131.71 182.81,-255.78l-22.69 -77.44zm199.67 49.63l35.02 -67.2 35.52 -50.16c21.53,-29.78 40.66,-55.56 50.39,-68.82 20.83,240.33 -29.72,269.28 -51.5,466.09l-220.23 149.06c50.39,-133.74 14.8,-31.38 59.26,-104.56 64.45,-106.11 84.65,-213.67 91.54,-324.41zm17.66 -189.03l-18.69 69.64 -53.59 -103.17 54.84 -66.06c134.53,-28.89 37.24,-29.46 61.67,65.7l-44.23 33.89zm1024.4 2906.65c55.5,51.95 49.27,-23.78 31.74,92.66 -1.38,9.19 -45.17,86.99 -53.86,104.12 -168.41,-3.68 -57.73,12.46 -104.71,-42.37 -6.25,-92.16 20.59,-90.57 126.83,-154.41zm133.68 194.89l31.6 -288.98 127.5 -54.69c13.76,142.14 -25.49,191.45 -73.91,327l-85.19 16.67zm2802.56 -2989.1c22.6,-34.74 14.08,-88.13 190.18,-129.99 128.77,-30.61 189.75,-21.66 317.88,-13.77l121.96 202.45c-25.62,152.82 -78.87,194.76 -155.28,269.4 -43.53,42.54 -67.53,58.26 -111,100.83 -79.43,77.78 -45.1,14.28 -72.86,98.99 -221.16,-6.4 -464.74,185.14 -714.42,140.16l0 59.22 -1081.05 13.14c-15.76,-50.88 4.2,-43.57 -35.85,-74.85 -0.36,0.34 -12.73,40.74 -128.47,62.13 -115.69,21.38 -85.28,-1.04 -118.73,-17.83 61.99,-87.24 174.45,-142.45 296.63,-183.98 25.34,35.5 139.77,-70.38 -2.4,116.15 157.74,-67.25 112.06,-83.93 262.29,-92.45 68.9,63.3 -23.45,19.56 120.68,26.62 13.36,-71.94 966.28,7.79 1207.63,-241.1 114.73,-58.47 98.43,-62.81 95.91,-194.49 -54.32,-76.08 34.67,-3.22 -74.7,-87.39 -66.9,-51.49 -46.81,-31.28 -118.4,-53.24zm3954.82 -1179.9c30.92,-31.58 16.63,-4.96 43.12,-56.94 16.27,-31.93 8.03,-33.2 30.47,-76.11 63.07,-120.61 17.38,-79.03 130.79,-128.94 73.43,21.13 -11.9,-56.37 39.28,41.07 -133.82,244.88 -275.28,843.07 -476.09,984.38 -11.27,-430.45 128.16,-453.82 232.43,-763.46zm-12926.13 3016.32l15.76 -99.43 8.99 -188.33 199.27 -5.56 -7.77 279.68 -216.25 13.64zm-2148.74 214.58c-22.97,38.47 -23.19,41.03 -50.79,70.97l-166.27 26.55 45.98 -110.36 171.08 12.84zm-100.23 199.37c95.43,-48.98 137.73,-82.5 186.07,-216.52l65.98 24.48c0.96,0.5 142.31,-23.05 -42.27,153.2 -226.82,216.6 -208.73,41.08 -209.78,38.84zm404.44 -212.3c-54.92,-87.47 -10.68,-17.13 -66.5,-84.62 -6.58,-7.96 -37.76,-33.53 -41.92,-50.45 -4.11,-16.71 -14.86,-18.3 -22.05,-27.65 374.92,27.85 1054.88,126.95 1327.43,420.99 -82.68,83.04 -244.46,186.07 -345.8,256.43 -120.4,-31.24 -216.12,-125.57 -356.87,-46.18 -36.84,131.68 61.5,179.24 -73.31,342.55 -166.5,53.18 -336.3,-103 -326.61,-303.24 8.41,-173.71 86.42,-109.95 27.52,-310.87 -0.55,-1.88 -57.7,-112.39 -61.64,-118.39l-60.25 -78.57zm1014.98 -3776.34c169.42,-83.06 185.14,-0.85 303.95,-56.88 -144.85,-119.24 -446.09,-79.39 -407.77,155.63 150.28,63.4 89.55,48.77 244.66,35.78 -121.93,-186.93 -103.02,8.55 -140.84,-134.53zm12023.5 1731.28c-83.42,47.18 -11.54,-84.47 -88.99,88.73 -55.06,123.15 -16.31,73.4 -13.75,111.54l-53.16 55.06 -76.95 -26.52c51.13,-165.43 33.32,-195.86 119.74,-346.69 55.66,-61.41 40.36,-75.58 139.23,-91.04 5.35,68.72 -37.69,70.46 -26.12,208.92zm85.13 133.74l-5.54 -16.62 28.73 7.14c-23.13,56.65 -41.93,66.04 -50.92,77.34 -212.54,266.83 -10.42,287.12 -227.13,268.65 27.24,-164.14 18.04,-23.11 47.84,-115.13 33.04,-102.03 15.84,-83.13 19.15,-154.85l187.87 -66.53zm-1718.25 -631.04l32.82 -36.36c61.83,-117.89 -4.76,-62.44 150.56,-125.68l-53.21 123.51c-89.8,45.61 -28.67,-61.56 -78.69,67.11l-51.48 -28.58zm27.91 -40.05l-3.96 -2.8c1.3,0.89 2.62,1.81 3.96,2.8zm-4.34 -3.05c-2.75,-1.86 -5.4,-3.51 -7.96,-4.98 2.56,1.47 5.21,3.12 7.96,4.98zm-8.27 -5.15l-3.51 -1.92c1.16,0.6 2.32,1.24 3.51,1.92zm-18.24 -7.92c-0.97,-0.27 -1.93,-0.53 -2.85,-0.73 0.93,0.2 1.88,0.46 2.85,0.73zm-3.09 -0.78c-0.92,-0.21 -1.86,-0.38 -2.75,-0.53 0.9,0.14 1.82,0.32 2.75,0.53zm-3.03 -0.58c-0.93,-0.15 -1.85,-0.26 -2.73,-0.35 0.88,0.09 1.8,0.2 2.73,0.35zm-2.86 -0.37c-0.91,-0.09 -1.79,-0.14 -2.64,-0.17 0.86,0.03 1.73,0.08 2.64,0.17zm-2.72 -0.17c-0.86,-0.03 -1.68,-0.03 -2.51,0 0.83,-0.03 1.65,-0.03 2.51,0zm-12.09 1.63c-2,0.65 -3.83,1.45 -5.52,2.35 1.69,-0.9 3.53,-1.71 5.52,-2.35zm-5.66 2.44c-1.14,0.62 -2.22,1.28 -3.23,1.98 1.02,-0.7 2.08,-1.36 3.23,-1.98zm-3.32 2.04c-0.95,0.66 -1.84,1.36 -2.66,2.06 0.83,-0.7 1.71,-1.39 2.66,-2.06zm-13.72 13.61l-0.05 -0.06 0.07 0.08 -0.02 -0.02zm-6515.48 -339.21c150.84,-92.78 61.8,24.87 128.57,-88.69 -146.19,-10.75 -132.19,-29.59 -229.99,71.59 35.56,129.94 96.36,159.73 252.03,121.93 248.22,-60.27 146.7,-138.47 137.85,-169.29 -119.56,-2.68 -29.2,-25.7 -119.69,77.78l-168.77 -13.32zm1280.53 1478.87c135.88,-32.65 25.74,58.55 143.21,-77.2 150.47,-4.5 19.71,-9.3 65.47,42.31 -57.77,107.83 -116.3,133.79 -224.16,146.35 -3.69,-10.84 -10.85,-25.68 -11.54,-32.38l27.02 -79.08zm5449.22 -504.67c9.22,-7 23.61,-28.16 27.91,-20.65l155.32 -211.46c7.39,-13.08 15.57,-27.97 23.16,-42.06 -26.32,5.28 -118.22,33.72 -128.14,35.46l-47.19 3.7c-3.23,0.24 -11.17,-1.96 -16.62,-3.49 54.19,-139.09 -24.57,8.91 89.22,-143.59l89.54 -112.51 68.02 5.16c34.17,327.31 -57.69,518.15 -294.11,680.5l32.89 -191.06zm-9914 2828.92c-111.98,-51.06 -50.11,-8.17 -91.67,-53.44l64.42 -78.51 190.28 -117.6 229.72 -34.06c-58.13,83.49 27.71,-4.65 -76.17,93.88 -39.37,37.36 -19.57,19.26 -61.67,47.16 -63,41.77 -88.86,57.1 -166.47,59.8 -135.63,47.03 -59.58,14.82 -88.44,82.77zm-1023.79 -2314.79c21.17,-47.81 -31.29,-70.98 118.01,-110.13 199.59,-52.34 167.32,44.3 181.89,61.54l-82.06 76.18 -217.84 -27.59zm5554.95 1211.69c-162.59,87.77 -40.14,-10.93 -102.23,150.52l168.7 -41.07c-42.72,130.63 -227.12,108.96 -301.77,5.4 53.48,-78.25 128.28,-100.48 235.3,-114.85zm66.47 109.45c0.64,-0.71 33.22,-59.54 34.26,-63.41 25.03,-93.25 -28.16,-40.18 71.11,-139.87l119.73 -21.09c-36.54,95.94 -100.12,217.91 -225.1,224.37zm-6832.74 -3632.68c30.09,28.62 11.94,25.24 62.99,57.37 126.78,79.78 142.43,25.86 248.09,136.51 -89.82,111.16 -180.36,176.21 -274.17,324.31 -45.21,-159.09 -1.98,-199.24 35.21,-334.57 -139.75,-11.12 -152.18,-47.54 -72.12,-183.62zm6007.27 5482.89c-60.87,24.37 -140.19,84.39 -140.19,-18.56l205.1 -67.22c-16.25,79.22 12.66,46.48 -64.91,85.78zm5310.22 -3582.49c7.76,3.41 51.01,27.94 59.16,28.65 25.99,2.22 30.66,1.49 114.33,-18.05l0.96 129.18 -146.62 -72.33c-3.03,-5.39 -9.77,-19.05 -12.35,-23.87l-15.48 -43.58zm-5279.66 352.34c69.58,-100.76 -14.57,-31.75 108.27,-58.99 2.01,147.32 5.87,44.67 55.12,205.05 -64.75,40.54 -197.54,142.98 -219.93,261.67 -117.78,45.33 -187.2,197.13 -343.26,378.84l-222.23 -13.52c2.03,-97.52 -48.69,-36.35 122.13,-225.62l265.2 -273.98c160.39,-137.39 93.26,-78.91 234.7,-273.45zm4913.09 -5485.18c-100.53,-95.53 116.33,-21.74 -149.82,-83.96 67.26,-47.95 1.29,-29.71 128.66,-24.6 4.61,6.15 8.75,10.08 10.65,20.5 21.63,119.13 184.17,105.73 275.95,111.47 -58.29,-121.21 5.52,-100.38 -271.48,-198.91 -138.24,-49.16 -184.8,-45.08 -342.11,-47.7 21.1,193.59 99.84,210.57 348.15,223.2zm86.44 5247.05c81.52,-22.4 39.71,22.26 129.7,-107.21 2.95,-4.25 9,-14.64 13.63,-21.89l66.79 -2.92 -119.01 160.16c-50.61,65.67 -244.61,192.3 -206.04,4.18l114.93 -32.32zm1243.11 -864.59c0.54,-11.95 -17.73,-14.88 -131.71,73.49l55.34 -164.05c46.8,-18.07 90.14,-31.9 128.19,-50.44l-51.82 141zm1.66 -191.79c-98.24,-24.38 -132.27,28.61 -50.3,-44.76l60.14 -73.87c22.41,37.17 95.63,-88.43 11.02,102.77l-20.86 15.86zm-133.27 -131.49c-57.44,158.05 -7.44,143.29 -196.48,162.24 21.76,-46.41 19.41,-60.51 50.85,-114.24l145.63 -48zm-609.99 1579.57l-263.11 30.43 339.24 -89.81c33.9,77.41 47.7,58.91 -36.09,58.91l-40.04 0.47zm76.13 -59.38l58.25 -90.48c2.1,-12.24 8.17,-15.7 12.38,-23.48 231.01,-8.55 210.68,-203.43 430.59,-244.5 -41.66,116.69 -10.2,58.82 -87.93,131.72 -5.38,5.03 -14.19,11.24 -19.66,16.19l-93.78 84.51c-76.92,57.95 -170.32,123.08 -299.85,126.04zm-3391.4 921.86c116.94,98.57 59.55,30.89 74.08,118.36 -153.05,78.74 -254.24,63.59 -410.74,0 -49.33,-168.45 -25.04,-40.82 34.96,-69.57l68.33 32.92c46.61,-36.06 81.49,-80.14 143.69,-127.55l89.68 45.84zm-301.7 48.79l10.01 -109.88 23.44 -1.48c49.2,-80.68 13.92,-68.31 112.6,-79.12 4.45,8.32 13.46,20.03 14.53,24.29l-11.63 69.67 -148.95 96.52zm-1401.25 -576.19l71.71 69.71c-98.01,87.4 -34.6,48.49 -143.59,57.67l43.06 -89.31c37.43,-15.74 63.1,35.37 28.82,-38.07zm-243.88 76.79l90.6 63.33 -112.93 50.64 22.33 -113.97zm550.63 -34.73l-96.38 -1.27c39.69,-146.84 68.72,-164.9 207.37,-149.45 -48.5,102.68 -20.47,98.47 -110.99,150.72zm-4312.98 2066.19c5.62,-9.09 10.92,-18.25 15.85,-27.48l-15.85 27.48zm-68.99 -96.7c-115.74,18.31 -107.13,48.85 -124.48,-37.56 150.68,-94.28 181.97,-142.08 389.48,-174.64 -143.2,187.45 -120.05,97.36 -265,212.2zm9918.42 -5212.66c78.86,49.93 122.78,-65.84 -60.11,275.95 -118.88,222.16 -336.45,656.95 -403.65,894.7 -86.07,79.4 -53.83,59.54 -195.81,66.84 129.4,-350.57 304.46,-661.59 467.8,-993.71 78.47,-159.53 45.02,-181.52 191.77,-243.78zm-2551.98 2163.27c-63.16,-43.86 -114.62,101.08 -41.57,-161.06 55.75,-200.09 396.46,-851.18 429.64,-1001.61 123.82,-189.14 47.81,-76.72 220.89,-186.54 8.41,132.12 -47.08,171.71 -120.14,358.76 -56.34,144.28 -85.01,212.81 -141.57,365.32 -49.16,132.59 -94.3,240.13 -144.22,362.48 -94.76,232.2 -25.55,127.05 -203.03,262.65zm4326.54 -1519.5c111.59,-209.91 200.96,-363.52 273.44,-558.8 70.14,-188.97 138.81,-412.47 234.88,-575.87 18.1,-83.31 -5.47,-43.72 34.45,-121.32 35.66,-69.35 32.01,-41.21 67.9,-80.21 3.69,342.78 -150.87,490.08 -161.96,696.78 -99.9,70.6 -144.03,224.12 -194.03,346.22 -85.48,208.76 -53.02,230.42 -254.68,293.2zm-11214.71 4460.37l-210.85 5.39 116.16 -130.45 209.28 14.22c-27.06,72.84 2.98,24.07 -61.57,80.65 -6.1,5.33 -43.26,23.33 -53.02,30.19zm-152.33 -203.99l-70.24 27.89 70.24 -27.89zm-72.94 28.95l-3.02 1.2c-2.66,-2.44 -5.21,-4.35 -7.62,-5.8l10.64 4.6zm-11.56 -5.13c-37.28,-21.08 -46.14,62.68 -16.18,-72.76 141.34,-20.72 37.75,-15.04 100.68,48.94l-84.5 23.82zm4799.01 -2402.69c55.59,-8.44 81.32,-11.28 159.51,-20.84 -32.55,-228.48 2.07,-345.89 172.87,-453.11l-112.51 520.28c-111.73,-5.42 12.26,-22.46 -145.52,15.74l37.04 61.61 -17.94 109.51c-84.19,63.24 -76.51,76.89 -197.92,114.27 34.22,-126.78 11.65,-95.46 102.49,-173.08l22.2 -108.86 -20.22 -65.52zm219.87 46.33c63.29,-37.23 23.47,24.07 95.47,-93.56 39.15,-63.97 44.65,-92.07 73.96,-149.86 47.33,-93.33 83.51,-155.86 124.56,-267.63 47.08,49.64 29.55,8.79 40.11,103.24 2.09,18.76 -3.56,115.92 -1.04,162.88 -106.73,29.07 -220.31,572.97 -484.98,692.13l151.92 -447.2zm320.15 -629.87c-54.46,44.96 -35.47,27.41 -78.61,75.77 -7.79,8.72 -26.79,41.15 -32.54,47.06 -40.76,41.77 -4.49,106.68 -40.43,-5.92l8.25 -36.19c-256.4,-105.39 22.23,19.24 -143.27,-214.74 -68.67,54.37 -82.54,-41.42 -113.67,146.61 -1.76,10.63 3.87,56.36 5.95,68.12l-153.24 0 547.56 -80.71zm723.92 3253.56c11.27,-146.4 29.82,-269.38 136.61,-343.46 76.43,84.35 31.71,-41.8 49.05,79.5l-8.69 54.55c-13.2,77.97 -33.19,-0.54 -35.72,160.21l138.75 -183.9c82.91,150.57 -9.36,118.4 100.4,243.62l-277.94 -31.78 -102.46 21.26zm243.97 82.95l22.95 16.45c0.91,30.34 55.19,38.48 -30.02,90.32 -94.34,57.41 -80.16,-26.16 -82.68,-28.54 25.85,-87.52 -11.42,-31.25 89.75,-78.23zm207.16 -101.6c-57.15,-280.53 -60.99,-209.62 -124.15,-300.79l-11.72 -59.01c76.38,12.86 113.44,114.92 176.11,216.45 3.27,5.27 10.44,12.16 13.84,17.43l55.6 92.54c15.44,43.28 20.44,103.98 31.44,159.75l-78.05 9.78c-14.22,-21.29 -44.22,-67.12 -63.07,-136.15zm225.59 36.62c-56.83,-99.85 -44.85,-172.53 -99.52,-290.74 -72.34,-156.39 -119.95,-134.5 -226.22,-246.98 -214.82,60.42 -429.74,-89.6 -694.04,93.09 -484.94,335.21 145.39,1021.77 -683.19,788.21 -328.41,-92.58 -362.87,-71.92 -468.48,218.92l53.86 136.77c-69.28,16.44 -102.06,-6.52 -159.49,-37.93 -186.76,139.59 -398.55,-37.98 -719.68,-231.35 272.45,-222.42 442.38,116.86 775.94,-611.11 39.29,-85.75 70.9,-174.47 105.06,-249.64 63.33,-139.38 42.71,-123.88 192.63,-165.12 126.61,-34.81 180.16,-22.32 308.03,-26.96 234.95,-8.53 91.11,-29.75 286.33,-69.7 189.02,88.28 292.09,239.41 523.64,33.94 156.06,-138.5 224.07,-270.66 495.91,-107.72 167.84,100.6 189.3,267.91 450.66,265.08 266.54,-2.9 306.08,-128.18 446.33,-265.9 -24.17,-202.38 6.07,-70.85 -65.69,-117.36 -51.58,74.05 -68.88,78.38 -137.41,162.78 -231.86,285.57 -458.62,50.58 -497.75,-67.11 95.54,-118.17 225.1,-145.27 218.41,-284.08l107.36 -134.16c202.39,26.68 79.97,39.61 183.84,96.24 116.92,63.75 144.62,-52.88 145.53,101.18l145.22 18.45c-92.73,118.79 -18.65,-0.78 -39.12,114.76 169.46,3.38 141.4,71.32 281.49,129.7 176.48,-74.83 341.78,-189.99 570.66,-200.17 18.02,67.79 15.37,105.39 37.66,187.35 51.23,188.42 17.19,-40.69 52.25,137.86 -281.48,333 -485.02,126.76 -788.07,0.63 -116.67,93.67 -257.68,76.29 -260.53,296.1 -2.33,179.65 97.22,213 47,459.05 -205.34,154.17 -485.05,217.21 -588.62,-134.08zm-576.74 -8165.75c72.68,-46.22 126.55,-55.43 247.45,-76.35 -35.1,62.52 -16.82,45.46 -81.55,85.52 -57.27,35.44 -60.09,31.22 -129.27,56.25 -39.98,-32.86 -14.95,14.8 -36.63,-65.42zm2024.82 5421.46c-9.1,21.36 6.47,80.68 -69.08,113.77 -179.47,78.59 -78.8,-13.62 -98.82,-58.08l167.9 -55.69zm1898.48 -881.99l-305.41 31.5 33.29 -173.47c42.4,-14.5 87.34,-37.59 151.97,-35.37 194.02,6.7 106.31,-6.04 137.32,75.09l-17.17 102.25zm20.92 -236.87l-190.74 24.7 -16.01 -61c1.42,-0.48 177.87,-57.05 178.13,-57.07 280.36,-28.15 88.52,-4.68 161.55,51.58 -0.57,0.23 -119.87,36.94 -132.93,41.79zm-4927.32 665.82c-21.27,-149.08 25.88,-250.21 202.11,-273.62 -29.79,83.61 -61.97,115.35 -42.91,199.42l-159.2 74.2zm-697.51 578.59l5.79 73.18 -117.79 81.48 5.93 -128.3 106.07 -26.36zm244.34 331.93l73.02 -7.46 -13.17 106.22c-31.7,28.04 -31,5.61 -61.15,16.5l-114.17 58.62 63.83 58.19c60.32,86.5 13.58,3.37 36.23,103.07l-226.5 3.48c83.63,-124.49 106.04,-82.48 95.93,-202.92 58.61,-118.35 -5.56,-44.74 70.91,-77.53 7.53,-58.5 -25.18,-33.99 75.07,-58.17zm146.35 158.97l76.76 -31.06 14.92 99.2 -190.84 40.36c58.1,-153.58 -7.73,-67.47 99.16,-108.5zm5836.35 -3306.94c124.41,76.86 86.77,-89.47 42.87,340.54l-42.87 -340.54zm604.78 157.22l-79.15 63.76c-3.57,-7.37 -14.78,14.72 -22.13,22.14 -2.82,-33.69 -17.98,-164.41 -13.32,-189.52 30.54,-164.67 47.24,-92.71 106.18,-127.55l8.42 231.17zm-239.28 -52.38c-34.22,-40.29 -55.22,107.51 -25.8,-76.14 18.97,-118.32 -16.96,-16.54 76.67,-41.36l-50.87 117.5zm-557.87 -84.5l127.7 -14.38c29.42,72.54 17.61,13.32 31.72,122.15 0.96,7.46 8.04,144.57 8,145.99 -2.8,128.66 4.88,98.93 -63.55,201.94 -58.04,127.16 11.96,49.57 -76.21,57.31l26.53 -394.01c-25.78,-81.23 25.47,-33.9 -74.17,-97.95l19.98 -21.05zm-55.1 18.69c19.8,188.8 7.31,235.83 -123.77,365.23l56.6 -382.51 67.17 17.28zm-77.45 420.11l73.57 -42.77c14.89,22.64 111.37,-44.55 1.86,105.34l25.25 77.68c-79.46,183.18 -27.2,38.16 16.18,82.94 74.46,-135.34 7.1,-31.09 125.64,-87.01l-5.18 110.61 -144.72 18.55c30.95,79.38 48.96,92.92 17.47,197.85 -136.97,39.92 -35.97,46.57 -192.02,-4.56 -6.64,-200.7 -8.26,-47.01 34.95,-93.31l80.34 -31.63 -75.32 -54.3c87.83,-125.06 -114.66,-66.33 77.96,-153.37l-35.98 -126.02zm324.24 243.36c-6.71,-129.83 -46.37,-146.92 82.2,-250.3 6.46,-5.2 18.92,-13.37 24.49,-17.52 56.83,-42.32 76.83,-317.8 90.87,-400.43 140.54,131.24 87.21,207.46 20.5,468.66 -16.52,0.4 -45.83,1.54 -95.02,2.22 -46.6,214.51 45.58,319.33 -241.89,384.36 35.39,-189.13 3.64,-92.1 102.65,-173.13l16.2 -13.86zm216.76 -179.34l132.76 -3.38c-8.27,-77.88 -15.92,-118.52 -2.66,-200.4 16.6,-102.47 4.2,-37.77 24.61,-73.12 47.87,-82.96 11.68,-17.5 62.05,-69.09 16.77,217.33 -5.36,460.19 -146.74,561.54 -13.62,85.83 -17.64,119.64 -13.41,132.64 -253.77,277.99 -224.45,75.3 -246.05,52.6 57.88,-41.07 45.84,-35.65 119.53,-71.89l-23.99 -60.3c40.63,-57.18 70.43,-133.25 105.86,-203.83 -24.65,-31.8 -20.91,-52.04 -11.96,-64.77zm-10688.61 4806.49c-58.98,226.83 27.76,-117.08 -24.04,140.61 2.99,-3.19 13.84,-10.22 27.11,-23.36l-3.07 -117.25zm3869.17 2107.47c2.93,-180.3 60.46,-219.57 153.83,-308.54 -9.18,154.12 -46.56,224.17 -153.83,308.54zm475.49 -543.61l-34.47 47.89c-57.79,93.07 -92.71,200.59 -207.15,273.4 14.56,-174.54 103.9,-318.34 210.69,-418.08 42.5,58.32 42.83,-118.42 30.93,96.79zm-389.41 -34.28c-96.52,-138.48 16.22,-218.04 123.28,-280.78 -24.64,140.74 -48.36,173.08 -123.28,280.78zm360.68 -134.06c-17.42,-204.07 33.1,-270.32 190.91,-342.11 -12.45,112.44 -9.89,130.31 -75.84,213.32 -67.89,85.46 -49.7,28.92 -115.07,128.79zm-218.1 302.19c-49.87,62.95 3.1,19.7 -71.23,60.26l-104.77 -39.69 -53.72 197.19c-39.41,-48.81 -111.66,95.79 -36.27,-140.92 11.14,-34.98 49.5,-69 82.67,-96.47l113.39 -67.7c29.02,-106.26 19.9,-92.23 74.79,-176.84 168.95,-260.41 -82.03,-248.21 190.07,-368.34 -1.79,96.09 10.52,74.89 -27.61,134.3 -77.2,120.31 21.04,-11.86 -85.5,56.02 66.63,128.47 71.49,71.99 15.83,205.15 -61.5,147.13 -94.42,104.74 -97.65,237.04zm-135.39 -698.59l-7.19 92.7c-5.1,-4.33 -168.3,55.32 7.19,-92.7zm1676.04 32.78c-84.12,54.94 -8.18,7.48 -83.04,65.15 -43.1,33.19 -24.62,20.77 -72.88,51.03 9.83,-78.86 21.17,-143.12 56.78,-213.97 49.97,-99.43 57.46,-75.32 121.17,-109.51l-22.03 207.3zm-1239.99 -103.63c-57.2,157.64 -2.4,86 -132.61,118.36 43.74,-151.78 -3.14,-80 132.61,-118.36zm-215.45 31.76c0.52,23.1 10.06,103.97 -24.73,117.17 -5.31,2.02 -19.1,4.05 -25.02,4.03l-103.75 -73.04 153.5 -48.16zm557.21 32.92c-158.08,-145.4 -38.52,69.13 -66.21,-92.02 -0.01,-0.07 24.93,-88.25 25.7,-90.07 60.36,-142.96 -13.88,-46.09 80.01,-89.03 41.64,46.45 54.32,-5.54 25.52,111.37l-65.02 159.75zm-247.6 -138.77c43.04,-129.39 63.95,-95.02 135.73,-95.11 -3.05,34.52 89.6,107.02 -135.73,95.11zm611.7 -33.08c127.69,-97.75 -13.92,-111.14 194.01,-98.72 -40.03,90.42 -61.07,91.13 -124.29,152.87 -118.22,7.84 -33.81,17.22 -69.72,-54.15zm858.99 200.38l116.93 51.18c45.71,-134.49 90.7,-213.64 223.04,-266.78 -36.53,268.95 -92.87,647.13 -376.25,649.32l-9.62 34.09c-3.89,-187.93 12.92,-21.29 -67.38,-93.64 -40.94,107.74 17.8,33.82 -53.96,117.1 -76.98,89.33 -30.97,24.55 -109.41,65.68 10.3,-114.88 32.23,-191.67 95.18,-293.36 125.87,-203.31 137.54,-590.26 360.09,-662.28 53.92,113.14 -92.24,310.68 -178.62,398.69zm-1293.89 -349.32c-21.79,103.09 12.28,13.87 -68.94,68.6 -61.32,-124.76 33.14,-190.91 35.85,-197.14 56.34,101.99 89.16,-136.78 33.09,128.54zm621 -105.21c150.85,-39.49 89.59,36.62 93.67,39.87 -63.5,88.23 -79.69,71.24 -172.79,35.85 38.3,-51.26 -75.42,-35.24 79.12,-75.72zm937.15 161.07c16.05,-120.09 21.7,-209.84 129.45,-262.4 111.13,147.79 27.7,174.21 -129.45,262.4zm-138.47 -248.38c0.8,-6.39 37.01,-55.63 38.97,-58.4 13.82,15.17 157.62,-14.34 -9.43,153.44 -43.21,-57.75 -41.77,4.02 -29.54,-95.04zm-409.5 135.36c50.52,-139.49 -12.74,-68.07 118.65,-122.76 -63.7,185.85 27.58,56.58 -118.65,122.76zm-1118.43 -127.99c-56.23,102.06 68.38,17.1 -89.82,94.37 56.2,-79.74 -144.28,-34.95 89.82,-94.37zm2349.6 434.31c-45.45,61.71 43.62,54.56 -64.37,48.95 43.03,-258.31 4.38,-115.9 -33.72,-172.79 -9.43,161.93 -32.39,124.4 -67.14,257.85 -115.98,101.98 -91.04,53.35 -249.56,88.38l-219.96 109.52c18.64,-135.14 166.39,-594.1 225.88,-654.79 42.58,-43.47 -77.43,-64.62 104.6,-42.74 117.02,14.06 29.72,-5.91 100.88,65.4 -35.01,242.23 -15.49,42.84 17.31,128.93l7.7 -100.97 25.99 -17.71c43.22,-137.79 28.91,-108.35 195.76,-162.81 -8.3,38.59 -54.1,188.23 -54.42,191.63 -17.87,192.41 -25.59,53.73 38.87,106.43 16.4,-199.55 99.32,-326.54 251.99,-420.17 -17.29,241.08 -89.6,489.33 -279.81,574.89zm-1083.45 -488.26c-12.81,28.49 -38.43,22.95 -73.54,35.56 8.3,-97.77 -2.53,-69 47.76,-125.15 29.66,43.82 98.67,-72.45 25.78,89.59zm-459.35 -9.17c15.88,63.03 -48.49,87.09 -49.74,3.69 -2.18,-145.82 41.34,-37.08 49.74,-3.69zm911.28 -129.42c-11.01,157.3 30.21,79.17 -132.61,131.75 43.17,-135.82 10.61,-106.75 132.61,-131.75zm-226.63 61.42c-1.82,3.44 23.09,47.68 -62.62,68.55 -163.12,39.71 -15.86,7.45 -76.6,-32.71 18.94,-82.64 78.5,-73.36 139.22,-35.84zm-394.9 81.23l-78.19 16.25c5.85,10.18 15.49,22.1 18.56,29.93l23.36 56.51c10.76,77.24 3.63,13.78 -15.64,70.97l-141.89 320.88c-202.31,184.21 3.43,-27.18 -64.08,227.24 -25,94.21 -76.57,140.27 -152.87,173l70.47 81.81c19.9,-189.31 -10.96,-3.92 56.58,-89.76 117.62,-85.07 -28.54,-33.72 135.28,-91.09 23.41,-64.16 -27.15,-39.73 12.4,2.02 3.33,3.52 18.75,87.09 33.69,43.21 2.98,-8.77 14.42,20.25 22.4,29.75 21.28,-163.14 47.81,-124.31 60.66,-275.94 126.18,-88.28 95.81,-74.46 130.77,-233.92 51.91,-236.79 113.78,-175.1 167.36,-185.48 -7.93,121.08 23.86,74.38 -79.31,177.81l-50.87 40.05c93.97,171.09 -46.91,324.75 -130.2,460.01 -123.52,200.56 -18.21,87.41 -59.1,265.81 -26.48,115.5 -78.89,123.99 -197.35,149.26 43,-161.62 82.46,-186.53 203.9,-239.18l-142.1 -170.65c-14.14,129.33 -26.76,179.18 -103.07,276.94l-24.81 81.23 -145.88 -15.34c-37.32,83.4 -67.04,123.47 -102.3,190.48l-110.68 104.09c-89.26,-185.28 -0.58,-22.69 -115.78,-107.19 -36.86,155.24 -40.95,144.96 -231.74,181.83 44.14,-106.83 79.48,-138.32 163.32,-192.32 -80.44,-27.01 -25.94,-3.16 -76.36,-37.85 -7.84,-5.4 -38.84,-24.79 -43.46,-40.55 -3.99,-13.6 -13.19,-15.84 -20.45,-23.15 -23.64,137.36 -57.45,186.06 -130.63,293.96 -116.85,145.26 -113.66,34.98 -245.41,92.97 -3.46,1.52 -61.37,45.07 -88.15,57.4l46.04 -225.46c14.26,-119.39 60.36,-161.89 135.56,-245.19 -55.35,-83.54 -23.96,-15.84 -43.12,-123.6l69.98 -119.61c46.58,-54.92 73.38,-131.29 115.64,-190.18 46.47,-64.75 78.26,-86.17 106.25,-155.65 47.92,-68.87 11.34,-33.02 71.52,-67.71l80.08 149.5 51.24 -147.62c22.47,-146.82 78.64,-233.83 238.2,-282.76l26.78 71.27c-69.91,27.22 -110.91,23.14 -120.63,108.8 -29.5,260.15 26.5,132.91 82.63,162.61 29.43,-65.94 60.6,-79.75 94.91,-162.37 125.61,38.31 39.68,7.37 144.38,73.92l24.13 -77.28 48.07 -176.57c232.31,-227.67 66.41,-140.26 216.54,-205.42l-73.51 -69.46c-3.02,-3.08 -10.44,-6.95 -12.54,-15.94 -1.66,-7.1 -5.41,-9.21 -8.14,-13.81 49.23,-110.84 -41.12,-23.46 78.94,-87.9 61.23,-236.18 -30.45,-93.05 132.66,-145.01 1.08,5.46 11.08,32.8 2.76,82.11l-56.8 142.34zm-2107.1 -239.72c-20.83,142.2 -47.64,219.25 -168.69,270.78l17.65 -242.88 151.04 -27.9zm2343.78 -7.38c-65.56,136.21 -4.84,46.1 -110.77,112.43 41.26,-153.56 -49.8,-80.84 110.77,-112.43zm1567.69 -118.11c108.68,20.29 48.01,-4.96 86.15,33.04 -186.71,574.94 -104.26,501.23 -353.23,612.72 32.35,-319.25 129.68,-439.46 267.08,-645.76zm-3754.52 187.45c-3.58,-136.41 -71.84,-55.55 61.41,-117.81 33.72,-15.76 42.4,-5.71 84.39,-0.75 -23.61,144.08 -29.57,97.41 -145.8,118.56zm-4948.24 -302.11l-252.81 21.49c60.26,-94.09 -48.11,-62.29 117.35,-109.92 60.03,-17.28 104.18,2.61 147.03,9.85l-11.57 78.58zm8702.76 114.66l-65.78 -38.65c51.66,-113.31 151.35,-189.5 270.08,-223.61l-204.3 262.26zm-97.72 -253.93c57.14,-83.8 -72.48,-80.06 79.67,-66.46l-54.44 97.9 -28.83 54.56c-95.52,-103.22 -82.79,-77.46 -149.45,-85.81 16.33,-94.32 0.32,-65.68 80.94,-117.11 28.16,216.73 -6.94,42.61 72.11,116.92zm-9115.45 50.72c27.65,-89.05 21.27,-124.43 149.87,-171.28 36.84,57.23 64.96,29.59 -0.63,103.01 -66.07,73.99 -32.94,45.56 -149.24,68.27zm-569.74 -228.18c13.03,145.29 -15.39,43.39 -33.19,65.48 -55.43,-91.54 -42.72,-50.85 0,-130.08 32.13,39.82 20.54,-76.34 33.19,64.6zm10494.03 632.92l-59.64 80.71c-5.02,-5.58 -11.97,-13.27 -15.36,-16.49l-103.19 -89.14c-39.2,143.11 -3.54,68.56 -84.44,137.23 -77.95,72.62 -18.66,33.73 -113.32,-63.03l-101.75 153.51 25.68 -215.35 -24.34 -48.57c-42,87.42 -43.19,91.21 -73.4,190.74 -65.53,215.85 -7.26,107.46 -119.29,151.5 -37.45,-195.82 134.59,-572.6 285.85,-702.46l53.54 24.45c4.28,-1.26 17.12,-3.85 22.22,-5.46 7.34,-2.34 23.87,-8.6 31,-11.01 7.76,-2.62 73.99,-31.02 76.66,-34.98l27.01 164.74c25.17,-92.27 120.68,-373.25 184.83,-409.78 64.11,100.99 8.24,39.83 35.67,166.57l-2.05 177.58c18.64,-96.31 39.27,-148.22 59.8,-221.45 50.91,-181.42 33.06,-140.68 121.66,-182.2 29.08,56.46 35.15,-65.11 25.02,110.23 -9.78,169.19 -146.77,546.38 -252.16,642.66zm-11.12 -731.25c45.56,-157.87 -18.21,-97.25 135.23,-122.87 -46.88,118.69 4.24,66.29 -135.23,122.87zm190.5 -82.5c59.1,-87.64 -99.34,-13.45 86.77,-75.81 55.35,-18.54 41.5,0.08 96.67,8.5 -68.12,115.25 -45.72,148.31 -183.44,67.31zm-10677.85 -147.96c25.07,127.12 -16.99,55.03 -28.75,72.35 -67.65,-87.53 -54.22,-17.08 -19.57,-162.66 26.16,36.11 33.6,15.64 48.32,90.31zm13003.39 19.94c58.76,-111.03 -2.11,-39.1 82.07,-102.52 59.07,-44.5 25.6,-8.08 84.63,-30.91 -59.87,126.39 -11.5,87.5 -166.7,133.43zm-2243.76 -20.5c37.02,-148.34 30.98,-108.38 160.17,-149.22 -22.92,128.52 16.54,115.71 -160.17,149.22zm-202.35 -0.53c31.87,-114.98 27.83,-85.4 142.16,-112.04 -45.25,114.92 0.58,96.36 -142.16,112.04zm-5644.34 -6.36c11.19,-116.99 8.31,-184.84 77.01,-263.58 67.2,142.73 9.78,212.94 -77.01,263.58zm8836.54 -100.27c75.11,-138.42 -32.76,-52.26 148.39,-124.25 -65.47,114.41 -24.35,78.45 -148.39,124.25zm-2574.12 -208.72l-19.57 99.6c-135.89,3.86 -57.35,24.47 -133.65,-50.87l153.22 -48.73zm-2917.57 158c-71.17,79.51 -22.8,14 -81.84,47.44 -67.77,38.39 -39.6,4.43 -101.79,73.92l-109.94 73.45 -61.06 46.31c-243.01,205.7 -160.17,67.67 -188.59,46.78 -425.89,-250.85 -202.53,-29.39 -607.93,-11.63 -298.83,13.08 -346.69,-12.26 -468.1,176 -24.75,38.37 -49.84,85.98 -76.56,134.66l-1052.99 -13.41c-26.81,-128.46 -35.7,-237.76 18.3,-348.61l143.78 -7.24c5.05,9.5 8.34,22.4 10.47,30.51 67.85,257.78 -21.54,140.44 61.57,278.28l71.35 -272.38c405.89,-1.64 664.78,10.23 1062.58,-62.18 183.87,-33.46 774.5,-140.83 886.44,-204.84l141.24 -30.29 53.1 -13.19c84.83,-72.19 123.11,-52.53 220.59,-106.53l120.28 -32.7 205.21 -141.18c47.36,145.89 41.72,134.1 13.69,284.74 -8.82,4.67 -21.9,9.54 -27.83,11.07l-90.07 13.71c-59.61,9.47 0.06,16.14 -141.9,27.31zm-5255.3 -123.78c73.61,-53.11 -122.12,-47.66 123.37,-51.36 187.68,-2.84 110.87,43.94 122.19,51.36 -92.61,70.88 106.87,51.45 -122.26,54.19 -155.02,1.85 -108.85,-44.81 -123.3,-54.19zm10135.63 142.59c-6.38,-176.59 26.95,-118.69 129.72,-247.67 22.45,154.25 8.36,168.51 -129.72,247.67zm-979.54 -73.53l-45.87 303.83c127.61,-193.32 0.41,-126.4 174.88,-213.93 -44.18,243.94 -90.3,197.33 -125.7,352.46l-105.21 -142.66c-32.19,245.85 -57.91,191.62 -172.79,255.55 51.81,-211.89 92.49,-308.02 172.73,-495.56 107.3,-120.58 -39.44,-111.48 165.29,-181.26 -54.2,127.25 40.06,26.46 -63.33,121.57zm-321.39 -0.21l-99.47 110.85 79.18 112.78c55.77,-143.07 44.89,-143.06 181.33,-232.5 -113.51,353.73 -104.46,516.18 -328.34,675.37l-51.29 -149.43c-27.58,110.67 -16.94,109.17 -94.23,166.28 -65.3,83.94 9.84,38.27 -133.36,83.39l51.95 -133.21c14.04,-126.12 68.8,-177.48 68.67,-306.44 62.44,-25.61 68.48,4.24 110.69,-114.02 -23.73,-125.75 9.63,-84.88 30.33,-121.53l71.92 -201.64c83.31,-91.31 35.63,-65.9 162.59,-48.82 17.52,135.88 38.96,85.65 -49.97,158.92zm-795.7 -176.4c-40.45,148.86 -2.75,82.58 -155.88,84.64 45.65,-88.34 45.12,-111.84 155.88,-84.64zm578.29 188.55c-68,134.22 -110.98,156.22 -108.15,314.94 -223.67,134.81 -27.35,547.41 -570.68,636.13 96.16,-214.12 114.4,-584.89 302.94,-716.57 -36.24,-112.08 59.43,-30.34 -52.26,-102.4 -54.64,60.73 -23.82,32.78 -71.87,66.26 -19.54,90.94 -95.24,333.04 -149.38,468.66 -174.37,436.74 -96.59,336.77 -273.68,400.68 12.17,-206.53 48.53,-303.08 115.01,-482 90.07,-242.41 66.97,-366.43 197.92,-382.2 4.54,-176.76 21.58,-182.69 146.78,-156.99 179.47,36.83 -40.49,-98.24 77.34,70.56l20.75 -90.34 34.24 4.84 47.7 -184.65 132.36 29.85 -115.68 219.94 -38.14 13.69c53.62,49.06 38.67,35.31 88.02,96.65 35.54,-113.72 65.38,-174.07 179.28,-210.49 -51.04,-81.14 55.52,-5.33 -62.56,-77.56l19.17 -50.93c72.54,-132.78 51.81,-83.08 145.34,-114.85 -72.19,132.85 -75.21,82.65 -64.45,246.78zm-444.42 -115.22c28.45,-145.49 8.74,-63.07 53.69,-114.9l65.19 54 -118.88 60.9zm1204.13 0.87c-0.28,123.82 33.09,66.98 -76.57,124.03 -5.5,-14.43 -32.24,2.96 -12.83,-71.04 18.8,-71.7 10.92,-20.57 56.55,-46.51 42.4,-88.07 51.45,-127.37 168.42,-166.04 9.65,128.57 -31.17,103.18 -135.57,159.56zm664.86 77.96l3.91 10.44c-44.79,161.32 -40.8,159.09 -172.02,219.43 -4.91,-144.43 -33.53,-52.85 59.01,-147.27 17.36,-124.15 42.27,-96.26 -83.31,-74.65 -43.81,100.02 -21.29,63.49 -101.11,118.24 11.97,23.22 52.3,115.41 62.89,161.3l-137.4 -130.52 30.3 -124.29c112,-81.81 54.37,-126.74 181.94,-134.2l91.31 56.73c-7.43,-158.27 -42.4,-71.04 41.17,-106.52 83.69,-110.29 16.89,-64.2 151.09,-87.04 -38.66,88.58 -100.71,177.82 -127.78,238.35zm-10944.78 -167.7c9.23,-185.58 -6.25,-173.09 83.31,-317.16l189.51 -14.73 -14.71 303.33 -258.11 28.56zm6978.59 -92c3.7,-97.65 -104.41,2.93 40.98,-19.84 91.12,-14.28 -44.59,115.28 -40.98,19.84zm-9499.23 63.84c-148.71,16.23 -233.56,62.01 -326.82,-63.84 17.84,-11.15 8.33,-21.25 74.89,-32.84 33.59,-5.85 70.75,-2.28 105.35,-1.84 68.52,0.88 130.18,6.49 197.83,4.48 67.52,50.73 81.56,-86.79 51.14,66.99l-102.39 27.05zm14275.23 27.93c-1.46,-116.75 -40.15,-99.27 97.76,-174.51 36.03,104.85 -1.72,117.65 -97.76,174.51zm-1038.2 -18.42c0.45,-6.06 2.64,-17.7 4.34,-23.7 1.44,-5.09 39.54,-56.01 43.01,-59.37 63.93,-61.92 78.17,-54.63 152.52,-75.63 -30.17,115.45 -74.81,170.31 -175.2,233.01l-24.67 -74.31zm-10191.16 -178.32c-0.62,-108.49 59.21,-93.79 70.89,-104.5 85.55,67.7 76.8,145.93 0,224.69 -90.89,-83.8 -69.28,163.15 -70.89,-120.19zm-187.82 164.51c-8.18,-72.71 -19.17,-161.58 7.57,-228.04 54.94,-136.51 2.76,-66.96 155.73,-91.25 -31.05,207.24 20.87,300.09 -163.3,319.29zm10799.61 29.66c40.65,-249.11 130.07,-213.98 174.65,-238.53 -10.12,116.09 32.56,140.37 -174.65,238.53zm-10410.05 -100.04c-80.48,-126.48 4.42,-115.71 12.54,-125.84 33.67,84.91 26.7,42.43 -12.54,125.84zm10132.81 -225.27c40.35,-44.7 61.68,-40.22 102.86,-66.5 10.07,188.96 51.11,162.39 -153.84,171.75 28.09,-85.68 -11.28,-36.28 50.98,-105.25zm-154.9 177.76c-52.92,86.41 -62.62,50.26 -88.8,139.26 -3.28,11.1 -6.92,52 -10.22,63.94 -35.33,128.41 -52.82,124.24 -191.36,136.91 61.69,-70.9 53.24,-127.07 140.57,-184.81 -70.82,-60.97 -49.02,3.71 -47.71,-121.74l87.5 -29.6c40.32,-159.23 -3.12,-70.75 74.51,-160.51 64.78,43 103.47,-42.86 35.51,156.55zm-3620.3 -192.33c34.52,116.43 22.98,85.39 -92.86,131.58 38.06,-105.92 12.21,-88.54 92.86,-131.58zm4542.24 210.72l42.21 160.34c-270.59,157.16 -5.24,163.89 -206.89,283.28 -85.97,50.9 -253.96,105.82 -335.1,53.61l101.74 -95.57c-49.14,-19.17 11.28,33.57 -44.3,-39.07 118.68,-108.17 22.12,-140.31 115.54,-264.04 118.23,-74.27 25.55,-50.15 176.71,-102.14 -25.02,108.89 -4.75,83.07 -58.62,150.41 -65.55,81.95 -80.8,52.61 -111.88,66.28 43.48,109.53 24,97.96 -12.99,231.84 83.3,-40.78 56.34,8.27 127.57,-86.34 68.51,-91 1.65,10.36 39.41,-105.18 43.62,-133.47 27.82,-95.15 167.99,-160.31 -10.06,-6.43 -37.2,-35.21 -40.15,-50.92 -3.38,-18.03 -12.44,-24.87 -21.91,-34.78 21.71,-102.24 91.58,-186.71 202.38,-230.35 41.14,-9.47 -8.58,-81.45 95.04,8.52 75.34,65.4 24.98,-25.23 40.17,122.69 -103.85,-113.05 -39.14,-32.78 -139.3,-83.21 -25.55,64.01 -5.67,60.22 -47.24,118.42 -55.48,77.65 -21.04,26.77 -90.38,56.52zm-532.87 -49.94c-31.75,40.38 -45.29,98.19 -106.21,35.74 -26.78,-27.43 -23.17,-13.72 6.3,-43.96 87.37,-89.66 -111.53,6.8 90.97,-30.32l13.85 -121.54 119.49 12.89 -124.4 147.19zm-15064.48 -428.51c281.57,-287.62 526.06,483.43 91.94,379.7 -53.33,-12.74 -88.98,-40.73 -113.14,-75.82 -81.5,-118.36 -56.9,-224.12 21.2,-303.88zm15393.47 443.66c-20.12,-67.69 -23.82,-99.55 33.57,-173.77 2.41,-3.12 75.17,-68.35 75.67,-68.68 60.85,-40.75 -4.16,1.28 92.99,-46.73 -28.32,213.27 -40.03,108.19 -202.23,289.18zm-1120.03 -53.58c-43.03,100.08 -34.42,74.95 -90.44,136.4 -19.08,-32.42 -74.25,27.96 -9.14,-146.34 28.32,-75.8 40.75,-76.3 70.08,-164.37l8.87 -38.83 100.12 -23.89c-30.95,127.04 -15.51,134.98 -79.49,237.03zm1000.76 -83.1c-47.57,-120.77 26.44,-173.28 140.82,-226.8 5.99,105.37 14.54,59.91 -41.26,135.13 -33.79,45.59 -72.09,70.17 -99.56,91.67zm-101.27 -248.6l84.34 29.86c-55.53,99.7 41.16,60.16 -110.4,65.75 75.85,-88.05 21.46,8.92 26.06,-95.61zm-7235.83 208.08c137.79,-198.49 -19.45,-63.43 171.39,-113.72 118.26,-31.16 70.92,-45.06 209.31,-54.59 -3.56,114.42 -51.43,222.58 -181.35,154.42 -8.09,-4.25 -37.93,-35.97 -39,-39.67 -3.66,-12.79 -9.83,-17.23 -15.55,-25.31 -36.86,155.73 -28.79,145.63 -144.8,78.87zm-395.07 -218.43c12.62,17.33 25.29,-1.18 32.03,75.33l-32.03 56.88c-83.83,-72.17 -81.84,-32.38 0,-132.21zm833.77 171.78c-18.66,-212.12 -21.77,-147.08 154.26,-222.81 25.49,155.39 -7.83,206.59 -154.26,222.81zm7316.37 -30.57c28.15,-135.53 51.86,-180.18 163.44,-237.49 -6.85,182.37 -32.65,176.72 -163.44,237.49zm336.36 -270.99c-50.28,176.31 33.92,82.78 -122.03,141.42 61.76,-188.52 -52.32,-50.76 122.03,-141.42zm-509.75 187.74c19.54,-72.76 14.65,-113.78 60.81,-157.12 103.25,-96.95 -14.04,-13.85 118.5,-29.72 -43.61,171.85 -73.35,140.65 -179.31,186.84zm40.72 -286.2c-49.68,151.33 18.14,96.11 -120.31,138.45 20.1,-90.22 44.81,-88.14 120.31,-138.45zm-7397.07 58.05c341.74,-91.06 172.37,-30.33 219.53,-4.69 -62.88,75.06 1.39,64.55 -90.7,75.3 -250.52,29.25 -41.84,15.53 -128.83,-70.61zm7847.83 -112.23c-0.55,1.18 41.07,90.56 -103.56,35.85 57.54,-32.27 -70.24,-88.82 103.56,-35.85zm-310.34 51.41c-161.99,63.49 -15.55,7.22 -71.53,-15.56 200.24,-159.2 112.91,-42.31 124.76,-35.85 -46.41,64.34 13.98,25.06 -53.23,51.41zm-14320.1 63.04c-3.34,-7.04 -76.88,39.42 -19.42,-89.09 46.3,-103.53 4.47,-23.65 110.12,-54.63l-90.7 143.72zm6274.88 -215.87c116.34,162.11 -5.6,140.88 -29.66,157.42l29.66 -157.42zm3097.25 101.42c-3.48,-67.14 17.83,-34.16 65.63,-64.09 61.7,-38.62 23.1,-12.93 85.91,-20.83 -39.4,106.89 -27.94,129.09 -151.54,84.92zm-174.36 -83.2l122.14 11.5c-53.27,47.15 27.97,25.35 -72.35,35.99l-49.79 -47.49zm-240.53 11.5c106.78,-42.1 53.06,-51.02 121.03,0 -25.92,28.96 49.04,25.56 -55.34,37.31 -160.8,18.08 -45.03,-18.76 -65.69,-37.31zm-8947.99 -14.45c-4.13,-6.08 -107.87,-4.81 -38.77,-145.48 51.42,-104.69 13.07,-29.73 133.26,-90.83 -38.82,126.72 -56.76,136.88 -94.49,236.31zm6333.65 -288.34c154.53,64.77 95.02,-59.38 105.32,111.41 -135.95,-14.02 -51.82,86.79 -105.32,-111.41zm-109 170.3c-15.78,-32.32 -35.75,26.33 -20.83,-58.36 24.47,-138.94 -56.82,8.62 56.68,-58.81l-35.85 117.17zm-6452.62 326.78c-13.9,-23.14 -116.11,80.57 12.16,-284.78 66.44,-189.22 54.2,-172.15 131.23,-209.39l-27.1 259.44c-32.03,142.54 -22.23,156.43 -116.29,234.73zm13682.49 -541.16l32.23 158.34c-8.44,-5.66 -64.89,-36.64 -70.71,-53.71 -49.65,-145.64 -18.55,-27.81 38.48,-104.63zm344.22 120.65c45.41,-67.86 -59.76,-63.5 134.58,-107.43 73.17,-16.55 107.05,5.23 163.24,20.23 -120.7,106.54 -111.97,84.34 -297.82,87.2zm-7497.01 -262.22l1.38 185.72c-114.11,-60.83 -53.91,-39.73 -156.5,-110.25l155.12 -75.47zm9021.98 -107.28c29.72,118.74 43.85,104.47 -29.55,225.67l-271.78 -183.44c225.42,-42.3 156.24,-93.19 197.55,67.01l103.78 -109.24zm-567.27 -31.2c55.72,139.91 6.06,106.98 -35.84,150.13 -78.21,-132.92 35.65,-149.98 35.84,-150.13zm286.6 -125.7c-43.83,96.89 19.38,126.54 -125.78,120.86 78.97,-56.76 -58.79,-2.67 125.78,-120.86zm-8421.16 36.47c12.96,114.1 -26.7,48.24 -56.33,59.14l17.58 -116.97c46.9,42.52 23.39,-77.39 38.75,57.83zm3972.1 60.28c27.56,-55.92 -19.27,-67.26 95.57,-113.49 60.92,-24.52 57.99,10.68 69.67,16.56 -80.38,129.51 -6.99,72.52 -165.24,96.93zm-4476.37 -0.78c62.86,-148.22 47.47,-166.5 142.89,-227.43 39.02,105.57 31.13,-121.86 29.51,96.28 -0.92,124.08 -74.32,110.07 -172.4,131.15zm563.97 -114.9c57.63,-55.26 -0.93,-26.88 72.06,-45.45 4.22,-1.08 19.09,18.47 22.26,10 3.68,-9.82 14.24,12.41 23.01,32.52l-117.33 2.93zm46.19 -89.38c-29.88,-160.06 -11.44,-161.17 140.92,-169.42 -54.08,144.12 -26.24,100.68 -140.92,169.42zm8592.35 -293.28l52.98 101.66c-146.28,38.76 -66.91,-38.1 -256.46,-32.68 -115.22,3.3 -152.86,47.47 -297.51,59.03 50.44,-69.38 -48.24,-25.26 101.23,-96.12 119.92,-56.84 269.77,-20.2 399.76,-31.89zm-16021.75 -24.17c33.45,94.92 43.76,114.94 85.99,199.98 52.01,104.8 156.38,267.03 189.48,362.07 -270.1,-49.6 -369.8,-465.4 -378.05,-757.83l102.58 195.78zm15511.27 8.82c-29.31,-180.2 38.98,-346.08 126.04,-444.19 94.31,162.92 30.6,376.66 -126.04,444.19zm-3469.37 -391.03c75.7,-118.58 37.76,-128.12 129.19,-1.37l-129.19 1.37zm-3106.87 1054.09c68.56,-44.13 383.16,-728.2 435.69,-855.71 -115.35,-66.19 -31.75,177.26 -97.98,-28.42 -2.81,-8.76 -15.65,-3.69 -26.4,-8.06l43.97 -191.91 132.87 -20.73 -61.79 141.57 105.06 107.55c-43.34,142.46 -174.14,426.17 -240.85,584.03 -170.03,402.42 -84.98,425.92 -347.76,496.01l57.19 -224.33zm555.58 -1025.47c22.04,-193.72 -21.17,-131.17 141.38,-174.89 -35.47,114.61 -3.53,135.79 -141.38,174.89zm4224.59 -618.89c46.8,-57.05 -59.21,-69.42 159.67,-82.44 -37.98,101.49 -55.75,133.79 -159.67,82.44zm439.81 -134.87c-51.34,52.19 -15.85,54.61 -112.33,86.84 -102.5,34.25 -77.79,-22.76 -79.28,-23.67 94.96,-98.04 40.53,-56.13 191.61,-63.17zm-701.64 -49.47c4.45,-10.43 14.56,-45.19 18.7,-54.8 30.12,-69.82 -40.61,12.55 50.41,-79.64 105.26,130.78 -92.02,-114.09 37.39,69.92l29.91 40.83c30.43,29.14 95.56,36.28 104.52,89 -50.29,55.73 -13.55,31.3 -97.19,59.68 -5.7,1.94 -108.47,18.62 -124.59,14.61l166.99 44.74c-88.3,92.81 20.81,45.78 -120.67,79.11 -49.39,11.63 -127.73,5.09 -178.2,4.17l112.73 -267.62zm405.07 -49.52c83.1,-30.5 85.44,18.32 86.46,18.77 -64.2,103.93 -25.39,73.56 -171.12,93.59 19.38,-46.63 -24.15,-72.42 84.66,-112.36zm-2884.33 1021.13c-135.08,96.1 -103.26,211.05 -311.38,287.05 7.8,-193.6 322.58,-906.33 429.57,-1139 99.93,-217.33 84.71,-118.42 243.52,-256.87 -7.11,299.91 -350.34,755.22 -361.71,1108.82zm2297.98 -1080.02l99.15 55.85c6.85,-9.39 21.49,15.97 33.45,21.81l-108.32 188.04 -41.1 1.59c-24.38,188.12 -2.46,148.12 -201.09,171.37l66.58 -127.23 9.91 -87.05 89.15 -17.34 35.66 -230.26c13.07,-40.26 -25.71,-44.53 59.19,-72.9 202.74,-67.74 131.55,28.66 133.66,30.39 -110.18,97.33 -17.09,51.09 -176.24,65.73zm-1905.4 956.32c-18.8,-237.29 162.54,-514.41 245.22,-708.74 250.21,-588.01 82.21,-433.97 374.77,-553.19 -14.85,161.77 -214.05,486.51 -292.15,668.61 -149.26,348.01 -119.28,489.73 -327.84,593.32zm2137.24 -1219.65c-16.73,-19.28 -129.77,10.09 -17.49,-206.32 17.1,8.61 158.33,-55.33 17.49,206.32zm-966.29 -139.18l46.16 -114.28 160.3 -60.05c-53.04,277.24 -214.68,430.4 -329.25,664.61 -177.7,363.26 -34.33,377.05 -339.83,586.19 -7.24,-125.05 373.33,-919.17 462.62,-1076.47zm2634.53 -243.59l86.65 -84.97c3.2,-14.07 12.42,-16.89 19.45,-24.64 -3.68,224.26 -68.94,473.1 -265.58,570.95 59.25,-178.32 146.51,-318.22 159.48,-461.34zm-1724.97 -160.23l112.64 -1.77c-33.09,152.67 -4.59,121.95 -111.68,192.04l-0.96 -190.27zm2060.15 -661.78c-12.77,126.91 3.09,41.02 -85.12,60.39 -37.37,-67.92 -19.78,-98.91 0,-150.67 38.22,12.61 96.36,-21.4 85.12,90.28zm-1539.37 1305.53c4,-3.36 8.19,-6.94 12.62,-10.88l-12.62 10.88z"/>
 </g>
</svg>
